<?xml version="1.0" standalone="no"?>
<!DOCTYPE svg PUBLIC "-//W3C//DTD SVG 1.1//EN" "http://www.w3.org/Graphics/SVG/1.1/DTD/svg11.dtd" >
<svg xmlns="http://www.w3.org/2000/svg">
<metadata></metadata>
<defs>
<font id="trebuchet_msbold_italic" horiz-adv-x="1200" >
<font-face units-per-em="2048" ascent="1638" descent="-410" />
<missing-glyph horiz-adv-x="617" />
<glyph horiz-adv-x="0" />
<glyph horiz-adv-x="682" />
<glyph unicode=" "  horiz-adv-x="617" />
<glyph unicode="&#x09;" horiz-adv-x="617" />
<glyph unicode="&#xa0;" horiz-adv-x="617" />
<glyph unicode="!" horiz-adv-x="752" d="M163 141q0 68 49.5 114.5t117.5 46.5t117.5 -46.5t49.5 -114.5t-49 -114.5t-118 -46.5t-118 46.5t-49 114.5zM310 424l10 279q4 109 13.5 202.5t22.5 165.5l78 420h297l-57 -330q-13 -77 -103 -348l-129 -389h-132z" />
<glyph unicode="&#x22;" horiz-adv-x="800" d="M163 1086l52 381h260l-112 -381h-200zM573 1086l52 381h260l-112 -381h-200z" />
<glyph unicode="#" d="M65 409v181h189l83 320h-157v181h205l108 396h193l-105 -396h229l108 396h193l-104 -396h167v-181h-215l-84 -320h154v-181h-202l-120 -429h-195l118 429h-230l-118 -429h-195l118 429h-140zM448 590h235l86 320h-237z" />
<glyph unicode="$" d="M148 55l84 259q134 -102 311 -102q228 0 228 177q0 49 -31 97.5t-88.5 94.5t-244.5 190q-128 125 -128 285q0 171 98 285.5t271 145.5l37 199h227l-36 -194q153 -11 229 -49l-80 -263q-108 86 -236 86q-241 0 -241 -183q0 -81 128 -178q158 -119 220 -173.5t103.5 -141 t41.5 -190.5q0 -181 -111 -290.5t-309 -134.5l-29 -156h-227l29 161q-134 21 -246 75z" />
<glyph unicode="%" horiz-adv-x="1500" d="M102 -20l1190 1511h207l-1189 -1511h-208zM199 1027q0 195 109 329.5t285 134.5q250 0 250 -269q0 -187 -107.5 -320.5t-278.5 -133.5q-258 0 -258 259zM398 1058q0 -126 79 -126q82 0 126.5 83t44.5 200q0 112 -86 112q-75 0 -119.5 -81.5t-44.5 -187.5zM770 240 q0 196 109.5 329.5t285.5 133.5q249 0 249 -269q0 -187 -107.5 -320.5t-278.5 -133.5q-258 0 -258 260zM969 271q0 -127 79 -127q82 0 126.5 83t44.5 201q0 111 -86 111q-76 0 -120 -82t-44 -186z" />
<glyph unicode="&#x26;" horiz-adv-x="1446" d="M117 343q0 287 229 487q-85 109 -85 216q0 209 143.5 327t380.5 118q180 0 283 -62l-65 -221q-92 84 -213 84q-132 0 -208 -64.5t-76 -184.5q0 -81 64 -140h337l32 173l257 37l-41 -213h248l-37 -209h-250q-40 -178 -52.5 -254.5t-12.5 -141.5q0 -97 86 -97q69 0 177 78 v-247q-101 -49 -253 -49q-124 0 -193 63q-157 -63 -337 -63q-186 0 -300 96.5t-114 266.5zM379 384q0 -186 230 -186q114 0 184 36q0 45 10 99l66 358h-357q-133 -138 -133 -307z" />
<glyph unicode="'" horiz-adv-x="617" d="M275 1086l52 381h260l-112 -381h-200z" />
<glyph unicode="(" horiz-adv-x="752" d="M139 294q0 360 188 710t479 502v-150q-392 -414 -392 -1246q0 -230 81 -387v-178q-356 264 -356 749z" />
<glyph unicode=")" horiz-adv-x="752" d="M-10 -276q182 138 296 505.5t114 705.5q0 251 -89 418v140q177 -75 271 -273t94 -468q0 -360 -188.5 -690.5t-497.5 -516.5v179z" />
<glyph unicode="*" horiz-adv-x="885" d="M147 1158l98 205l158 -67l71 -76l-54 155v135h236v-131l-46 -162l100 89l141 62l82 -201l-151 -65l-133 -11l137 -78l86 -111l-193 -144l-84 122l-53 128l-50 -114l-111 -136l-172 154l119 115l110 57l-135 12z" />
<glyph unicode="+" d="M164 535v201h348v343h201v-343h349v-201h-349v-355h-201v355h-348z" />
<glyph unicode="," horiz-adv-x="752" d="M151 -313q159 117 159 263q0 56 -58 101t-58 97q0 65 53 107t126 42q71 0 124 -58t53 -133q0 -302 -322 -520z" />
<glyph unicode="-" horiz-adv-x="752" d="M88 476l42 235h529l-42 -235h-529z" />
<glyph unicode="." horiz-adv-x="752" d="M204 139q0 66 46.5 112.5t112.5 46.5t112.5 -46.5t46.5 -112.5t-46.5 -112.5t-112.5 -46.5t-112.5 46.5t-46.5 112.5z" />
<glyph unicode="/" horiz-adv-x="813" d="M-10 0l556 1471h234l-554 -1471h-236z" />
<glyph unicode="0" d="M91 430q0 458 181 759.5t509 301.5q403 0 403 -435q0 -497 -173.5 -786.5t-509.5 -289.5q-195 0 -302.5 119.5t-107.5 330.5zM361 466q0 -257 156 -257q192 0 294 240t102 589q0 224 -166 224q-176 0 -281 -255.5t-105 -540.5z" />
<glyph unicode="1" d="M327 881l40 265q356 158 486 325h120l-272 -1471h-271l190 1024z" />
<glyph unicode="2" d="M43 0v84l582 683q137 161 162.5 199t43 84t17.5 86q0 133 -199 133q-123 0 -228 -150l-184 122q116 250 436 250q204 0 324 -89.5t120 -254.5q0 -100 -58.5 -210t-220.5 -307l-322 -391h524l-45 -239h-952z" />
<glyph unicode="3" d="M52 130l130 225q114 -146 259 -146q136 0 221 76.5t85 203.5q0 180 -285 180l41 222q313 0 313 223q0 148 -179 148q-102 0 -203 -81l-130 163q145 147 378 147q183 0 296.5 -94.5t113.5 -256.5q0 -108 -66 -206t-174 -153q164 -89 164 -285q0 -516 -608 -516 q-216 0 -356 150z" />
<glyph unicode="4" d="M18 381l29 158l974 932h126l-162 -876h148l-39 -214h-148l-70 -381h-271l70 381h-657zM408 595h306l66 356z" />
<glyph unicode="5" d="M98 106l113 232q46 -54 118 -91.5t136 -37.5q155 0 247.5 118t92.5 292q0 89 -60.5 141t-156.5 52q-132 0 -237 -114l-112 52l125 721h800l-43 -229h-539l-45 -246q68 25 150 25q156 0 270 -101t114 -255q0 -685 -635 -685q-206 0 -338 126z" />
<glyph unicode="6" d="M116 407q0 357 260 687.5t553 400.5l120 -155q-111 -42 -253 -164t-246 -257q70 23 153 23q182 0 287 -98t105 -271q0 -248 -158.5 -423t-394.5 -175q-426 0 -426 432zM381 379q0 -175 176 -175q118 0 193 99.5t75 230.5q0 83 -43.5 131t-121.5 48q-132 0 -205.5 -91.5 t-73.5 -242.5z" />
<glyph unicode="7" d="M149 0q206 400 776 1223h-678l46 248h1021v-119q-524 -704 -845 -1352h-320z" />
<glyph unicode="8" d="M77 337q0 160 83 286t229 196q-125 109 -125 272q0 175 146 287.5t342 112.5q164 0 275.5 -87t111.5 -231q0 -114 -67.5 -219.5t-175.5 -165.5q168 -128 168 -317q0 -491 -563 -491q-188 0 -306 95.5t-118 261.5zM342 371q0 -72 54.5 -117t134.5 -45q121 0 191 68t70 188 q0 134 -168 220q-123 -31 -202.5 -117.5t-79.5 -196.5zM537 1092q0 -109 171 -183q164 133 164 234q0 52 -45.5 85.5t-104.5 33.5q-185 0 -185 -170z" />
<glyph unicode="9" d="M150 912q0 262 150 420.5t403 158.5q201 0 313.5 -120.5t112.5 -331.5q0 -342 -241.5 -656.5t-572.5 -411.5l-119 155q119 44 271 175t228 245q-67 -22 -154 -22q-168 0 -279.5 110t-111.5 278zM420 932q0 -179 164 -179q134 0 206.5 90t72.5 244q0 175 -175 175 q-124 0 -196 -93.5t-72 -236.5z" />
<glyph unicode=":" horiz-adv-x="752" d="M164 139q0 66 46.5 112.5t112.5 46.5t112.5 -46.5t46.5 -112.5t-46.5 -112.5t-112.5 -46.5t-112.5 46.5t-46.5 112.5zM290 912q0 66 46.5 112.5t112.5 46.5t112.5 -46.5t46.5 -112.5t-46.5 -112.5t-112.5 -46.5t-112.5 46.5t-46.5 112.5z" />
<glyph unicode=";" horiz-adv-x="752" d="M151 -313q159 117 159 263q0 56 -58 101t-58 97q0 67 57 110q52 39 122 39q72 0 126 -60q51 -58 51 -131q0 -302 -322 -520zM290 912q0 66 46.5 112.5t112.5 46.5t112.5 -46.5t46.5 -112.5t-46.5 -112.5t-112.5 -46.5t-112.5 46.5t-46.5 112.5z" />
<glyph unicode="&#x3c;" d="M192 557v161l799 383v-228l-528 -236l528 -239v-228z" />
<glyph unicode="=" d="M179 325v201h898v-201h-898zM179 745v201h898v-201h-898z" />
<glyph unicode="&#x3e;" d="M265 170v228l527 239l-527 236v228l799 -383v-161z" />
<glyph unicode="?" horiz-adv-x="813" d="M56 141q0 68 49.5 114.5t117.5 46.5t117.5 -46.5t49.5 -114.5t-49 -114.5t-118 -46.5t-118 46.5t-49 114.5zM128 1392q113 99 346 99q147 0 236 -79.5t89 -218.5q0 -89 -38 -175t-107 -146l-172 -149q-102 -88 -135 -139q-44 -67 -44 -135v-34h-146q-1 15 -8.5 56 t-7.5 64q0 132 108 253l189 177q60 57 90 112t30 108q0 109 -141 109q-111 0 -204 -71z" />
<glyph unicode="@" horiz-adv-x="1578" d="M60 427q0 395 251.5 656.5t639.5 261.5q276 0 442.5 -145t166.5 -399q0 -227 -126 -399.5t-325 -172.5q-130 0 -204 79q-92 -90 -223 -90q-121 0 -195 67t-74 187q0 196 136.5 344.5t331.5 148.5q99 0 279 -76q-69 -251 -78 -315.5t-9 -109.5q0 -71 52 -71q106 0 168 113 t62 262q0 180 -119 288.5t-307 108.5q-293 0 -479 -205t-186 -511q0 -203 126 -328.5t329 -125.5q106 0 210.5 35t159.5 93l117 -143q-89 -74 -233 -119.5t-276 -45.5q-281 0 -459 169t-178 443zM633 483q0 -95 82 -95q71 0 118.5 52t64.5 132t42 215q-29 25 -66 25 q-101 0 -171 -105t-70 -224z" />
<glyph unicode="A" horiz-adv-x="1257" d="M-95 0l890 1485h93l301 -1485h-271l-46 298h-524l-172 -298h-271zM459 493h384l-83 547z" />
<glyph unicode="B" horiz-adv-x="1208" d="M54 0l268 1463q168 24 299 24q546 0 546 -360q0 -96 -58.5 -180.5t-147.5 -128.5q75 -33 125.5 -126t50.5 -198q0 -253 -178 -379.5t-577 -126.5q-131 0 -328 12zM357 213q46 -5 88 -5q200 0 314 68.5t114 196.5q0 245 -321 245q-50 0 -101 -4zM485 902q59 -3 108 -3 q143 0 228 60.5t85 174.5q0 132 -232 132q-48 0 -126 -6z" />
<glyph unicode="C" horiz-adv-x="1255" d="M113 538q0 404 224.5 678t586.5 274q177 0 314 -58l-73 -249q-114 81 -253 81q-225 0 -377.5 -214.5t-152.5 -475.5q0 -169 83 -270t231 -101q230 0 361 125l-5 -229q-142 -124 -409 -124q-238 0 -384 156.5t-146 406.5z" />
<glyph unicode="D" horiz-adv-x="1295" d="M43 0l267 1462q146 26 274 26q335 0 518 -153t183 -443q0 -407 -242 -649.5t-646 -242.5h-354zM349 233q44 -4 80 -4q268 0 426 189t158 485q0 162 -109 260t-280 98q-48 0 -97 -10z" />
<glyph unicode="E" horiz-adv-x="1215" d="M42 0l270 1465h943l-43 -228h-675l-61 -337h484l-41 -218h-484l-82 -454h664l-43 -228h-932z" />
<glyph unicode="F" horiz-adv-x="1199" d="M41 0l272 1465h969l-42 -228h-705l-61 -337h515l-41 -218h-515l-125 -682h-267z" />
<glyph unicode="G" horiz-adv-x="1385" d="M84 546q0 435 239.5 689.5t652.5 254.5q224 0 333 -100l-78 -217q-147 89 -293 89q-264 0 -424 -193.5t-160 -484.5q0 -180 99 -280.5t271 -100.5q143 0 250 79l53 290h-203l40 218h461l-121 -657q-226 -158 -553 -158q-252 0 -409.5 161.5t-157.5 409.5z" />
<glyph unicode="H" horiz-adv-x="1389" d="M53 0l269 1465h264l-104 -565h582l104 565h265l-271 -1465h-263l125 682h-582l-125 -682h-264z" />
<glyph unicode="I" horiz-adv-x="570" d="M68 0l269 1465h262l-270 -1465h-261z" />
<glyph unicode="J" horiz-adv-x="1021" d="M-9 262q0 30 6 74h229q-2 -128 107 -128q84 0 140 28t83.5 84.5t58.5 229.5l167 915h258l-168 -916q-63 -344 -194.5 -456.5t-374.5 -112.5q-142 0 -227 75.5t-85 206.5z" />
<glyph unicode="K" horiz-adv-x="1331" d="M70 0l269 1465h260l-121 -666l608 666h308l-579 -644l364 -821h-293l-274 626l-208 -229l-74 -397h-260z" />
<glyph unicode="L" horiz-adv-x="1082" d="M50 0l269 1465h262l-227 -1237h662l-42 -228h-924z" />
<glyph unicode="M" horiz-adv-x="1610" d="M-16 0l544 1465h146l148 -929l484 929h150l42 -1465h-258l-17 793l-445 -813h-91l-145 821l-307 -801h-251z" />
<glyph unicode="N" horiz-adv-x="1352" d="M52 0l269 1465h120l529 -908l159 908h257l-273 -1485h-101l-540 947l-162 -927h-258z" />
<glyph unicode="O" horiz-adv-x="1438" d="M99 545q0 391 213.5 668.5t555.5 277.5q263 0 405 -139.5t142 -403.5q0 -433 -218 -703t-597 -270q-232 0 -366.5 156.5t-134.5 413.5zM369 572q0 -169 67 -269t196 -100q238 0 376 214t138 511q0 336 -296 336q-208 0 -344.5 -220t-136.5 -472z" />
<glyph unicode="P" horiz-adv-x="1195" d="M49 0l276 1463q209 22 319 22q581 0 581 -437q0 -246 -176.5 -386.5t-457.5 -140.5q-90 0 -177 17l-99 -538h-266zM455 760q51 -14 130 -14q170 0 270 73t100 210q0 231 -262 231q-70 0 -151 -17z" />
<glyph unicode="Q" horiz-adv-x="1576" d="M116 539q0 393 213 672.5t556 279.5q262 0 404.5 -141.5t142.5 -404.5q0 -310 -118 -550t-336 -342q42 -85 145 -132.5t220 -47.5q123 0 229 72l96 -156q-128 -161 -377 -161q-169 0 -308.5 96.5t-201.5 257.5q-75 -18 -163 -18q-241 0 -371.5 152.5t-130.5 422.5z M386 566q0 -173 67.5 -272.5t196.5 -99.5q237 0 375 215t138 515q0 338 -295 338q-208 0 -345 -221.5t-137 -474.5z" />
<glyph unicode="R" horiz-adv-x="1277" d="M51 0l268 1465q292 15 383 15q237 0 374.5 -91.5t137.5 -264.5q0 -176 -100.5 -305.5t-268.5 -169.5l327 -649h-293l-280 606q-68 1 -167 8l-113 -614h-268zM471 830q59 -6 105 -6q378 0 378 240q0 101 -72.5 143.5t-240.5 42.5q-14 0 -95 -10z" />
<glyph unicode="S" horiz-adv-x="1027" d="M43 60l84 257q134 -101 311 -101q107 0 177.5 45.5t70.5 129.5q0 83 -128 183l-157 125q-72 58 -97.5 84t-53.5 72.5t-42 95.5t-14 101q0 202 134 320t351 118q72 0 184 -16.5t157 -37.5l-80 -260q-116 85 -236 85q-241 0 -241 -182q0 -77 128 -184l151 -128 q70 -60 97 -87.5t57 -76.5t45 -99t15 -102q0 -201 -150.5 -314t-390.5 -113q-197 0 -372 85z" />
<glyph unicode="T" horiz-adv-x="1403" d="M200 1237l42 228h1192l-43 -228h-462l-226 -1237h-263l226 1237h-466z" />
<glyph unicode="U" horiz-adv-x="1355" d="M123 349q0 53 11 113l184 1003h268l-187 -998q-5 -27 -5 -57q0 -99 61 -153t166 -54q134 0 223 73t113 205l183 984h264l-187 -1014q-42 -226 -210 -351t-416 -125q-207 0 -337.5 99.5t-130.5 274.5z" />
<glyph unicode="V" horiz-adv-x="1399" d="M238 1465h278l175 -972l514 972h291l-822 -1485h-142z" />
<glyph unicode="W" horiz-adv-x="1897" d="M221 1465h265l111 -888l462 888h113l136 -882l428 882h282l-746 -1485h-105l-159 894l-475 -894h-105z" />
<glyph unicode="X" horiz-adv-x="1345" d="M-23 0l588 772l-279 694l268 -1l189 -488l395 488h303l-593 -724l345 -741h-287l-232 517l-394 -517h-303z" />
<glyph unicode="Y" horiz-adv-x="1400" d="M247 1465h271l236 -573l439 573h297l-642 -817l-119 -648h-258l121 656z" />
<glyph unicode="Z" horiz-adv-x="1252" d="M87 0v83l793 1154h-602l42 228h928v-83l-766 -1154h597l-43 -228h-949z" />
<glyph unicode="[" horiz-adv-x="994" d="M69 -420l353 1930h544l-43 -232h-263l-267 -1466h263l-43 -232h-544z" />
<glyph unicode="\" horiz-adv-x="978" d="M171 1471h216l540 -1471h-217z" />
<glyph unicode="]" horiz-adv-x="994" d="M8 -420l43 232h263l267 1466h-263l43 232h544l-353 -1930h-544z" />
<glyph unicode="^" d="M263 903l358 568h107l356 -564h-197l-214 358l-218 -362h-192z" />
<glyph unicode="_" d="M-8 -125h1215v-209h-1215v209z" />
<glyph unicode="`" d="M484 1618h280l35 -333h-162z" />
<glyph unicode="a" horiz-adv-x="1214" d="M71 351q0 305 184.5 522.5t465.5 217.5q271 0 391 -50l-124 -657q-7 -37 -7 -82q0 -220 34 -302h-156q-70 0 -104 107q-128 -127 -319 -127q-174 0 -269.5 98t-95.5 273zM331 357q0 -173 170 -173q108 0 188.5 133t143.5 550q-71 20 -134 20q-168 0 -268 -160.5 t-100 -369.5z" />
<glyph unicode="b" horiz-adv-x="1215" d="M21 0q96 245 131 440l190 1070h244l-84 -479q93 60 227 60q201 0 317 -134q110 -127 110 -332q0 -267 -186 -456t-452 -189q-159 0 -234 101l-80 -81h-183zM361 265q38 -78 151 -78q175 0 280 126q98 119 98 297q0 270 -258 270q-101 0 -174 -86z" />
<glyph unicode="c" horiz-adv-x="1009" d="M75 402q0 299 173 494t453 195q160 0 277 -66l-51 -219q-105 77 -212 77q-172 0 -276.5 -128.5t-104.5 -321.5q0 -100 59 -171t152 -71q134 0 315 114l-30 -261q-153 -64 -315 -64q-203 0 -321.5 112.5t-118.5 309.5z" />
<glyph unicode="d" horiz-adv-x="1215" d="M64 391q0 307 171 503.5t455 196.5q54 0 121 -21t97 -46l92 486h242l-273 -1510h-249l19 100q-83 -120 -275 -120q-188 0 -294 110.5t-106 300.5zM329 430q0 -244 202 -244q218 0 283 348l48 256q-48 90 -155 90q-173 0 -275.5 -127t-102.5 -323z" />
<glyph unicode="e" horiz-adv-x="1130" d="M83 448q0 276 177.5 459.5t464.5 183.5q169 0 274 -71.5t105 -204.5q0 -181 -156.5 -284t-385.5 -103q-112 0 -219 37q-2 -26 -2 -45q0 -112 66.5 -172t184.5 -60q63 0 145 34.5t129 77.5l-29 -263q-127 -57 -310 -57q-198 0 -321 125t-123 343zM391 654q65 -19 141 -19 q136 0 230 41.5t94 119.5q0 87 -190 87q-75 0 -153 -65.5t-122 -163.5z" />
<glyph unicode="f" horiz-adv-x="840" d="M-62 -254q71 16 128 71t70 125l167 928h-151l33 201h148q103 439 469 439q104 0 177 -43l-50 -196q-81 36 -139 36q-144 0 -198 -236h246l-25 -201h-252l-160 -938q-26 -153 -141 -252t-269 -100z" />
<glyph unicode="g" horiz-adv-x="1096" d="M0 -288l109 189q143 -102 297 -102q278 0 278 150q0 32 -28.5 53t-86.5 32l-191 34q-107 33 -107 124q0 53 88 107q-108 31 -176.5 116.5t-68.5 190.5q0 216 143 350.5t367 134.5q138 0 233 -59l94 102l147 -146l-103 -103q22 -50 22 -120q0 -156 -67.5 -270t-222.5 -185 t-170 -96q68 13 106 13q112 0 191 -68.5t79 -174.5q0 -194 -136.5 -299t-395.5 -105q-97 0 -212.5 38t-188.5 94zM368 628q0 -80 36 -131t99 -51q110 0 182 87.5t72 212.5q0 141 -147 141q-111 0 -176.5 -72.5t-65.5 -186.5z" />
<glyph unicode="h" horiz-adv-x="1151" d="M42 0l272 1510h249l-82 -504q133 85 281 85q154 0 241.5 -86t87.5 -240q0 -51 -11 -110l-123 -655h-257l126 665q6 32 6 65q0 150 -150 150q-135 0 -243 -114l-142 -766h-255z" />
<glyph unicode="i" horiz-adv-x="669" d="M143 0l162 870h-137l42 201h387l-200 -1071h-254zM323 1415q0 67 47.5 111.5t115.5 44.5q67 0 115 -44.5t48 -111.5q0 -66 -48 -111t-115 -45t-115 44.5t-48 111.5z" />
<glyph unicode="j" horiz-adv-x="794" d="M-145 -420l11 221q140 0 216 19t121.5 69t60.5 132l152 849h-144l47 201h389l-196 -1056q-41 -222 -191 -328.5t-466 -106.5zM444 1413q0 67 47.5 112.5t115.5 45.5t115.5 -45.5t47.5 -112.5t-48 -112t-115 -45t-115 45t-48 112z" />
<glyph unicode="k" horiz-adv-x="1105" d="M60 0l262 1510h246l-129 -795l189 164q193 168 256 256l175 -151q-44 -54 -442 -405l442 -579h-296l-339 441l-42 -35l-71 -406h-251z" />
<glyph unicode="l" horiz-adv-x="655" d="M104 202q0 122 48 351l201 957h248l-206 -997q-44 -213 -44 -304q0 -58 36 -91.5t90 -33.5q-59 -94 -179 -94q-90 0 -142 59t-52 153z" />
<glyph unicode="m" horiz-adv-x="1700" d="M28 0l145 774q5 27 5 84q0 99 -28 193l245 43q13 -51 22 -97q121 94 302 94q212 0 300 -115q127 115 320 115q321 0 321 -292q0 -43 -10 -97l-131 -702h-256l127 676q6 32 6 68q0 139 -147 139q-52 0 -113 -36t-91 -78l-143 -769h-256l142 755q2 11 2 24q0 104 -159 104 q-48 0 -108.5 -35.5t-96.5 -81.5l-143 -766h-255z" />
<glyph unicode="n" horiz-adv-x="1151" d="M27 0l151 803q4 21 4 58q0 89 -29 190l245 45l23 -120q132 115 331 115q330 0 330 -309q0 -55 -14 -130l-121 -652h-259l117 624q14 75 14 126q0 133 -157 133q-134 0 -241 -113l-143 -770h-251z" />
<glyph unicode="o" horiz-adv-x="1167" d="M72 401q0 290 177 490t448 200q207 0 319 -107.5t112 -305.5q0 -296 -175 -497t-452 -201q-203 0 -316 108.5t-113 312.5zM332 413q0 -229 197 -229q156 0 247 144.5t91 342.5q0 216 -197 216q-153 0 -245.5 -142.5t-92.5 -331.5z" />
<glyph unicode="p" horiz-adv-x="1226" d="M-25 -420l216 1160q12 64 12 129q0 88 -18 177l244 44q14 -38 23 -102q139 103 276 103q429 0 429 -416q0 -305 -176 -500t-465 -195q-115 0 -211 49l-80 -449h-250zM344 242q49 -51 145 -51q197 0 301.5 119.5t104.5 339.5q0 102 -63 163.5t-173 61.5 q-49 0 -115.5 -32.5t-99.5 -71.5z" />
<glyph unicode="q" horiz-adv-x="1226" d="M49 389q0 300 182 501t469 201q62 0 140.5 -27.5t114.5 -65.5q22 34 53 51t60.5 20t122.5 3q-55 -138 -92 -339l-213 -1153h-251l86 474q-108 -74 -257 -74q-193 0 -304 108t-111 301zM313 434q0 -115 65 -179t180 -64q118 0 198 54l107 576q-60 59 -159 59 q-176 0 -283.5 -127.5t-107.5 -318.5z" />
<glyph unicode="r" horiz-adv-x="915" d="M69 0l200 1071h251l-17 -93q133 113 294 113q41 0 147 -19l-75 -255q-89 66 -157 66q-97 0 -177.5 -84.5t-101.5 -193.5l-113 -605h-251z" />
<glyph unicode="s" horiz-adv-x="940" d="M10 79l132 227q125 -118 245 -118q76 0 125.5 38t49.5 103q0 54 -94 103t-166 89.5t-109.5 99t-37.5 129.5q0 156 124.5 248.5t305.5 92.5q124 0 322 -84l-116 -229q-120 105 -220 105q-62 0 -107.5 -28.5t-45.5 -76.5q0 -59 108.5 -114t166.5 -87.5t95 -88t37 -127.5 q0 -177 -132.5 -279t-338.5 -102q-176 0 -344 99z" />
<glyph unicode="t" horiz-adv-x="897" d="M165 254q0 40 9 79l121 537h-124l43 201h124l42 219l286 104l-75 -323h293l-43 -201h-295l-108 -475q-13 -57 -13 -95q0 -110 124 -110q55 0 180 52v-225q-108 -37 -294 -37q-122 0 -196 76t-74 198z" />
<glyph unicode="u" horiz-adv-x="1141" d="M62 278q0 44 11 103l129 690h254l-127 -680q-8 -43 -8 -73q0 -130 146 -130q119 0 199.5 77.5t100.5 186.5l110 619h251l-200 -1072h-250l15 78q-134 -97 -336 -97q-138 0 -216.5 79t-78.5 219z" />
<glyph unicode="v" horiz-adv-x="1131" d="M93 1071h261l180 -649l377 649h290l-690 -1091h-90z" />
<glyph unicode="w" horiz-adv-x="1584" d="M83 1071h254l107 -590l367 590h90l177 -597l309 597h265l-588 -1091h-90l-187 619l-401 -619h-92z" />
<glyph unicode="x" horiz-adv-x="1179" d="M-8 0l466 559l-284 512h292l169 -325l258 325h315l-453 -533l311 -538h-305l-176 333l-285 -333h-308z" />
<glyph unicode="y" horiz-adv-x="1155" d="M42 -179q283 1 363 183l52 120q-137 39 -185 288l-127 659h263q117 -704 149 -735l344 735h283l-564 -1178q-149 -311 -578 -313v241z" />
<glyph unicode="z" horiz-adv-x="1091" d="M28 0v85l626 769h-525l41 217h892v-89l-615 -765h508l-41 -217h-886z" />
<glyph unicode="{" horiz-adv-x="994" d="M128 493l26 143q250 18 250 262q0 39 -9 115t-9 115q0 171 137 272.5t339 101.5h190l-36 -196l-151 3q-131 0 -175.5 -52.5t-44.5 -161.5q0 -32 8 -94t8 -94q0 -201 -242 -340q144 -83 144 -216q0 -74 -68 -217.5t-68 -219.5q0 -132 222 -132h47l42 1l-36 -203h-169 q-164 0 -273 72.5t-109 201.5q0 90 79.5 257.5t79.5 253.5q0 116 -182 128z" />
<glyph unicode="|" d="M505 -420v1930h206v-1930h-206z" />
<glyph unicode="}" horiz-adv-x="994" d="M-35 -420l36 203q149 0 228 21.5t116.5 84.5t37.5 166q0 32 -6 97t-6 97q0 213 240 324q-142 107 -142 230q0 72 65 205.5t65 205.5q0 92 -102 92h-217l36 196h177q159 0 267 -71.5t108 -195.5q0 -80 -75 -230t-75 -229q0 -127 180 -141l-26 -143q-250 -16 -250 -268 q0 -39 7 -116.5t7 -116.5q0 -192 -135.5 -301.5t-354.5 -109.5h-181z" />
<glyph unicode="~" d="M180 479q21 120 78.5 193.5t141.5 73.5q48 0 96 -10t197 -56q41 -11 73 -11q60 0 87 77h148q-38 -148 -92 -207.5t-139 -59.5q-47 0 -96 10t-144.5 38.5t-114.5 28.5q-52 0 -89 -77h-146z" />
<glyph unicode="&#xa1;" horiz-adv-x="752" d="M51 -420l57 330q13 77 103 348l129 389h132l-10 -279q-4 -109 -13.5 -202.5t-22.5 -165.5l-78 -420h-297zM285 930q0 68 49 114.5t118 46.5t118 -46.5t49 -114.5t-49.5 -114.5t-117.5 -46.5t-117.5 46.5t-49.5 114.5z" />
<glyph unicode="&#xa2;" d="M192 417q0 256 146.5 430.5t386.5 187.5l57 182h145l-58 -191q78 -14 145 -52l-48 -205q-80 60 -153 69l-183 -605q117 4 278 105l-28 -244q-140 -58 -309 -58l-56 -188h-159l67 215q-231 83 -231 354zM434 444q0 -95 59 -157l166 534q-106 -37 -165.5 -141t-59.5 -236z " />
<glyph unicode="&#xa3;" d="M-10 154q38 13 84 32q92 38 107.5 49.5t36 37t38 59.5t36 87t31 117t12.5 125h-184l36 209h147q4 609 565 609q152 0 262 -85l-136 -205q-93 62 -179 62q-242 0 -242 -381h219l-39 -209h-179q-2 -116 -38.5 -258t-86.5 -207q91 -41 224 -41q154 0 254 151l163 -171 q-51 -97 -170.5 -158t-250.5 -61q-74 0 -218.5 28t-217.5 28q-77 0 -212 -18z" />
<glyph unicode="&#xa4;" d="M68 335l147 144q-73 122 -73 247q0 124 73 246l-147 144l126 132l148 -148q118 75 249 75t249 -74l147 147l127 -132l-147 -144q74 -122 74 -246q0 -125 -74 -247l147 -144l-127 -132l-147 148q-118 -75 -249 -75t-250 75l-147 -148zM321 726q0 -113 78 -191.5t191 -78.5 q111 0 190 79t79 191t-78.5 190.5t-190.5 78.5q-113 0 -191 -78.5t-78 -190.5z" />
<glyph unicode="&#xa5;" d="M143 1465h271l236 -573l439 573h298l-643 -817l-15 -80h255l-37 -182h-251l-71 -386h-258l71 386h-259l37 182h256l16 88z" />
<glyph unicode="&#xa6;" d="M504 417h206v-837h-206v837zM504 673v837h206v-837h-206z" />
<glyph unicode="&#xa7;" d="M102 82l122 222q102 -101 272 -101q193 0 193 132q0 89 -182 131q-121 28 -201 92.5t-80 149.5q0 130 112 220q-64 62 -64 163q0 185 134 292t351 107q178 0 302 -113l-119 -215q-105 100 -220 100q-175 0 -175 -109q0 -52 73 -83q176 -54 234.5 -81t97 -79.5 t38.5 -121.5q0 -130 -104 -233q77 -71 77 -168q0 -184 -144.5 -297t-352.5 -113q-227 0 -364 105zM477 776q0 -37 35 -70t201 -68q19 46 19 87q0 27 -12 48.5t-33.5 35.5t-38.5 18l-120 29q-51 -33 -51 -80z" />
<glyph unicode="&#xa8;" d="M342 1401q0 49 45 80.5t103 31.5q57 0 102 -30.5t45 -81.5q0 -50 -45 -81.5t-102 -31.5q-59 0 -103.5 31t-44.5 82zM815 1401q0 51 45 81.5t102 30.5q58 0 103 -31.5t45 -80.5q0 -51 -44.5 -82t-103.5 -31q-58 0 -102.5 31t-44.5 82z" />
<glyph unicode="&#xa9;" horiz-adv-x="1460" d="M75 661q0 292 206.5 498t498.5 206t498 -206t206 -498t-206 -498.5t-498 -206.5t-498.5 206.5t-206.5 498.5zM245 661q0 -221 157 -378t378 -157t377.5 156.5t156.5 378.5q0 221 -156.5 377.5t-377.5 156.5q-222 0 -378.5 -156.5t-156.5 -377.5zM437 663 q0 178 97.5 297.5t252.5 119.5q131 0 225 -55l-56 -142q-69 51 -167 51q-86 0 -138.5 -76.5t-52.5 -199.5q0 -119 55 -189.5t138 -70.5q91 0 162 92l92 -126q-115 -113 -265 -113q-159 0 -251 114t-92 298z" />
<glyph unicode="&#xaa;" horiz-adv-x="876" d="M183 975q0 206 116 361t297 155q170 0 239 -36l-75 -458q-5 -31 -5 -57q0 -77 53 -212h-75q-85 0 -118 71q-73 -85 -190 -85q-115 0 -178.5 70t-63.5 191zM345 979q0 -117 119 -117q35 0 64.5 25t55.5 84t34 101l42 258q-38 13 -77 13q-108 0 -173 -111.5t-65 -252.5z " />
<glyph unicode="&#xab;" horiz-adv-x="1074" d="M99 519v96l415 285v-197l-189 -140l189 -124v-197zM551 519v96l415 285v-197l-189 -140l189 -124v-197z" />
<glyph unicode="&#xac;" d="M164 765v201h898v-556h-201v355h-697z" />
<glyph unicode="&#xad;" horiz-adv-x="752" d="M88 476l42 235h529l-42 -235h-529z" />
<glyph unicode="&#xae;" horiz-adv-x="1460" d="M75 661q0 292 206.5 498t498.5 206t498 -206t206 -498t-206 -498.5t-498 -206.5t-498.5 206.5t-206.5 498.5zM245 661q0 -221 157 -378t378 -157t377.5 156.5t156.5 378.5q0 221 -156.5 377.5t-377.5 156.5q-222 0 -378.5 -156.5t-156.5 -377.5zM522 267v805h220 q297 0 297 -235q0 -145 -133 -216l214 -354h-180l-190 323h-66v-323h-162zM684 729q94 0 127.5 5t49.5 27.5t16 68.5q0 96 -135 96h-58v-197z" />
<glyph unicode="&#xaf;" d="M-8 1466v209h1215v-209h-1215z" />
<glyph unicode="&#xb0;" d="M317 1282q0 91 73 150t174 59q100 0 173 -59t73 -150t-73.5 -150.5t-172.5 -59.5q-102 0 -174.5 59.5t-72.5 150.5zM460 1282q0 -38 31 -63.5t73 -25.5q40 0 72 25t32 64t-32 64t-72 25q-42 0 -73 -25.5t-31 -63.5z" />
<glyph unicode="&#xb1;" d="M164 0v201h348v334h-348v201h348v343h201v-343h349v-201h-349v-334h349v-201h-898z" />
<glyph unicode="&#xb2;" horiz-adv-x="952" d="M284 566v63l303 384q119 151 119 219q0 47 -36.5 73t-88.5 26q-57 0 -113 -89l-118 84q29 73 100.5 119t152.5 46q120 0 196.5 -68t76.5 -185q0 -62 -49.5 -160t-259.5 -347h270l-27 -165h-526z" />
<glyph unicode="&#xb3;" horiz-adv-x="949" d="M245 653l80 157q67 -99 157 -99q166 0 166 151q0 105 -184 105l26 144q85 0 139.5 38t54.5 102q0 38 -31.5 59.5t-74.5 21.5q-59 0 -119 -55l-81 115q86 99 224 99q100 0 177.5 -65t77.5 -158q0 -148 -120 -228q79 -57 79 -164q0 -324 -351 -324q-138 0 -220 101z" />
<glyph unicode="&#xb4;" d="M494 1285l205 333h284l-273 -333h-216z" />
<glyph unicode="&#xb5;" horiz-adv-x="1141" d="M-73 -420l275 1491h254l-127 -679q-8 -43 -8 -72q0 -130 146 -130q119 0 199.5 77.5t100.5 185.5l110 618h251l-202 -1071h-250l17 80q-134 -97 -336 -97q-52 0 -103 13l-76 -416h-251z" />
<glyph unicode="&#xb6;" d="M169 923q0 232 117.5 399t310.5 167h579l-319 -1739h-205l285 1553h-137l-285 -1553h-225l158 860q-279 21 -279 313z" />
<glyph unicode="&#xb7;" horiz-adv-x="752" d="M220 689q0 66 46.5 112.5t112.5 46.5t112.5 -46.5t46.5 -112.5t-46.5 -112.5t-112.5 -46.5t-112.5 46.5t-46.5 112.5z" />
<glyph unicode="&#xb8;" d="M338 -327q18 -5 39 -5q58 0 108 25q63 31 63 83q0 35 -29 64.5t-64 30.5l62 86q230 -15 230 -186q0 -115 -109 -176q-89 -50 -213 -50q-15 0 -87 5v123z" />
<glyph unicode="&#xb9;" horiz-adv-x="980" d="M466 1092l24 186q192 97 263 200h81l-147 -913h-166l100 613z" />
<glyph unicode="&#xba;" horiz-adv-x="888" d="M231 1009q0 192 113 337t285 145q126 0 194 -76t68 -213q0 -202 -108 -345t-281 -143q-128 0 -199.5 79t-71.5 216zM393 1017q0 -155 125 -155q96 0 153 103.5t57 230.5q0 147 -115 147q-95 0 -157.5 -103t-62.5 -223z" />
<glyph unicode="&#xbb;" horiz-adv-x="1074" d="M189 242v197l189 124l-189 140v197l415 -285v-96zM591 242v197l189 124l-189 140v197l415 -285v-96z" />
<glyph unicode="&#xbc;" horiz-adv-x="1796" d="M230 1092l24 186q192 97 263 200h81l-147 -913h-166l100 613zM343 -35l884 1526h186l-882 -1526h-188zM976 231l18 110l560 572h83l-87 -532h97l-23 -150h-97l-37 -231h-166l37 231h-385zM1201 381h185l37 214z" />
<glyph unicode="&#xbd;" horiz-adv-x="1796" d="M213 1092l24 186q192 97 263 200h81l-147 -913h-166l100 613zM316 -35l884 1526h186l-882 -1526h-188zM1041 0v63l303 384q119 151 119 219q0 47 -36.5 73t-88.5 26q-57 0 -113 -89l-118 84q29 73 100.5 119t152.5 46q120 0 196.5 -68t76.5 -185q0 -62 -49.5 -160 t-259.5 -347h270l-27 -165h-526z" />
<glyph unicode="&#xbe;" horiz-adv-x="1796" d="M132 653l80 157q67 -99 157 -99q166 0 166 151q0 105 -184 105l26 144q85 0 139.5 38t54.5 102q0 38 -31.5 59.5t-74.5 21.5q-59 0 -119 -55l-81 115q86 99 224 99q100 0 177.5 -65t77.5 -158q0 -148 -120 -228q79 -57 79 -164q0 -324 -351 -324q-138 0 -220 101z M406 -35l884 1526h186l-882 -1526h-188zM977 231l18 110l560 572h83l-87 -532h97l-23 -150h-97l-37 -231h-166l37 231h-385zM1202 381h185l37 214z" />
<glyph unicode="&#xbf;" horiz-adv-x="752" d="M-74 -122q0 170 128 307l228 196q74 65 107 124t33 117v34h146q1 -15 8.5 -56t7.5 -64q0 -132 -108 -253l-165 -156q-68 -64 -93.5 -101t-38 -71.5t-12.5 -68.5q0 -109 141 -109q111 0 204 71l85 -169q-113 -99 -346 -99q-148 0 -236.5 80t-88.5 218zM335 930 q0 68 49 114.5t118 46.5q68 0 117.5 -46.5t49.5 -114.5t-49.5 -114.5t-117.5 -46.5t-117.5 46.5t-49.5 114.5z" />
<glyph unicode="&#xc0;" horiz-adv-x="1257" d="M-95 0l890 1485h93l301 -1485h-271l-46 298h-524l-172 -298h-271zM459 493h384l-83 547zM583 1918h280l35 -333h-162z" />
<glyph unicode="&#xc1;" horiz-adv-x="1257" d="M-95 0l890 1485h93l301 -1485h-271l-46 298h-524l-172 -298h-271zM459 493h384l-83 547zM643 1585l205 333h284l-273 -333h-216z" />
<glyph unicode="&#xc2;" horiz-adv-x="1257" d="M-95 0l890 1485h93l301 -1485h-271l-46 298h-524l-172 -298h-271zM362 1565l432 358h139l290 -355h-281l-118 143l-191 -146h-271zM459 493h384l-83 547z" />
<glyph unicode="&#xc3;" horiz-adv-x="1257" d="M-95 0l890 1485h93l301 -1485h-271l-46 298h-524l-172 -298h-271zM428 1655q23 105 90 179t153 74q49 0 150.5 -43t124.5 -43q33 0 62 26t34 60h162q-19 -87 -90 -170t-150 -83q-32 0 -144 46.5t-149 46.5q-56 0 -83 -93h-160zM459 493h384l-83 547z" />
<glyph unicode="&#xc4;" horiz-adv-x="1257" d="M-95 0l890 1485h93l301 -1485h-271l-46 298h-524l-172 -298h-271zM459 493h384l-83 547zM471 1771q0 49 45 80.5t103 31.5q57 0 102 -30.5t45 -81.5q0 -50 -45 -81.5t-102 -31.5q-59 0 -103.5 31t-44.5 82zM944 1771q0 51 45 81.5t102 30.5q58 0 103 -31.5t45 -80.5 q0 -51 -44.5 -82t-103.5 -31q-58 0 -102.5 31t-44.5 82z" />
<glyph unicode="&#xc5;" horiz-adv-x="1257" d="M-95 0l890 1485h93l301 -1485h-271l-46 298h-524l-172 -298h-271zM459 493h384l-83 547zM599 1714q0 90 74 149.5t173 59.5q100 0 173 -59t73 -150t-73.5 -150.5t-172.5 -59.5t-173 60t-74 150zM722 1710q0 -39 38 -65t89 -26t89 26t38 65q0 40 -38 66t-89 26t-89 -26 t-38 -66z" />
<glyph unicode="&#xc6;" horiz-adv-x="1965" d="M-34 0l969 1465h1070l-43 -228h-675l-61 -337h484l-41 -218h-484l-82 -454h664l-43 -228h-932l55 298h-391l-183 -298h-307zM554 493h329l140 750z" />
<glyph unicode="&#xc7;" horiz-adv-x="1255" d="M113 538q0 404 224.5 678t586.5 274q177 0 314 -58l-73 -249q-114 81 -253 81q-225 0 -377.5 -214.5t-152.5 -475.5q0 -169 83 -270t231 -101q230 0 361 125l-5 -229q-142 -124 -409 -124q-238 0 -384 156.5t-146 406.5zM338 -327q18 -5 39 -5q58 0 108 25q63 31 63 83 q0 35 -29 64.5t-64 30.5l62 86q230 -15 230 -186q0 -115 -109 -176q-89 -50 -213 -50q-15 0 -87 5v123z" />
<glyph unicode="&#xc8;" horiz-adv-x="1215" d="M42 0l270 1465h943l-43 -228h-675l-61 -337h484l-41 -218h-484l-82 -454h664l-43 -228h-932zM547 1918h280l35 -333h-162z" />
<glyph unicode="&#xc9;" horiz-adv-x="1215" d="M42 0l270 1465h943l-43 -228h-675l-61 -337h484l-41 -218h-484l-82 -454h664l-43 -228h-932zM627 1585l205 333h284l-273 -333h-216z" />
<glyph unicode="&#xca;" horiz-adv-x="1215" d="M42 0l270 1465h943l-43 -228h-675l-61 -337h484l-41 -218h-484l-82 -454h664l-43 -228h-932zM376 1565l432 358h139l290 -355h-281l-118 143l-191 -146h-271z" />
<glyph unicode="&#xcb;" horiz-adv-x="1215" d="M42 0l270 1465h943l-43 -228h-675l-61 -337h484l-41 -218h-484l-82 -454h664l-43 -228h-932zM415 1771q0 49 45 80.5t103 31.5q57 0 102 -30.5t45 -81.5q0 -50 -45 -81.5t-102 -31.5q-59 0 -103.5 31t-44.5 82zM888 1771q0 51 45 81.5t102 30.5q58 0 103 -31.5t45 -80.5 q0 -51 -44.5 -82t-103.5 -31q-58 0 -102.5 31t-44.5 82z" />
<glyph unicode="&#xcc;" horiz-adv-x="570" d="M68 0l269 1465h262l-270 -1465h-261zM246 1918h280l35 -333h-162z" />
<glyph unicode="&#xcd;" horiz-adv-x="570" d="M68 0l269 1465h262l-270 -1465h-261zM304 1585l205 333h284l-273 -333h-216z" />
<glyph unicode="&#xce;" horiz-adv-x="570" d="M43 1565l432 358h139l290 -355h-281l-118 143l-191 -146h-271zM68 0l269 1465h262l-270 -1465h-261z" />
<glyph unicode="&#xcf;" horiz-adv-x="570" d="M68 0l269 1465h262l-270 -1465h-261zM122 1771q0 49 45 80.5t103 31.5q57 0 102 -30.5t45 -81.5q0 -50 -45 -81.5t-102 -31.5q-59 0 -103.5 31t-44.5 82zM595 1771q0 51 45 81.5t102 30.5q58 0 103 -31.5t45 -80.5q0 -51 -44.5 -82t-103.5 -31q-58 0 -102.5 31t-44.5 82z " />
<glyph unicode="&#xd0;" horiz-adv-x="1340" d="M35 672l40 223h132l103 567q146 26 274 26q335 0 518 -153t183 -443q0 -407 -242 -649.5t-646 -242.5h-354l123 672h-131zM349 233q44 -4 80 -4q268 0 426 189t158 485q0 162 -109 260t-280 98q-48 0 -97 -10l-62 -356h273l-40 -223h-272z" />
<glyph unicode="&#xd1;" horiz-adv-x="1352" d="M52 0l269 1465h120l529 -908l159 908h257l-273 -1485h-101l-540 947l-162 -927h-258zM481 1655q23 105 90 179t153 74q49 0 150.5 -43t124.5 -43q33 0 62 26t34 60h162q-19 -87 -90 -170t-150 -83q-32 0 -144 46.5t-149 46.5q-56 0 -83 -93h-160z" />
<glyph unicode="&#xd2;" horiz-adv-x="1438" d="M99 545q0 391 213.5 668.5t555.5 277.5q263 0 405 -139.5t142 -403.5q0 -433 -218 -703t-597 -270q-232 0 -366.5 156.5t-134.5 413.5zM369 572q0 -169 67 -269t196 -100q238 0 376 214t138 511q0 336 -296 336q-208 0 -344.5 -220t-136.5 -472zM657 1918h280l35 -333 h-162z" />
<glyph unicode="&#xd3;" horiz-adv-x="1438" d="M99 545q0 391 213.5 668.5t555.5 277.5q263 0 405 -139.5t142 -403.5q0 -433 -218 -703t-597 -270q-232 0 -366.5 156.5t-134.5 413.5zM369 572q0 -169 67 -269t196 -100q238 0 376 214t138 511q0 336 -296 336q-208 0 -344.5 -220t-136.5 -472zM719 1585l205 333h284 l-273 -333h-216z" />
<glyph unicode="&#xd4;" horiz-adv-x="1438" d="M99 545q0 391 213.5 668.5t555.5 277.5q263 0 405 -139.5t142 -403.5q0 -433 -218 -703t-597 -270q-232 0 -366.5 156.5t-134.5 413.5zM369 572q0 -169 67 -269t196 -100q238 0 376 214t138 511q0 336 -296 336q-208 0 -344.5 -220t-136.5 -472zM446 1565l432 358h139 l290 -355h-281l-118 143l-191 -146h-271z" />
<glyph unicode="&#xd5;" horiz-adv-x="1438" d="M99 545q0 391 213.5 668.5t555.5 277.5q263 0 405 -139.5t142 -403.5q0 -433 -218 -703t-597 -270q-232 0 -366.5 156.5t-134.5 413.5zM369 572q0 -169 67 -269t196 -100q238 0 376 214t138 511q0 336 -296 336q-208 0 -344.5 -220t-136.5 -472zM452 1655q23 105 90 179 t153 74q49 0 150.5 -43t124.5 -43q33 0 62 26t34 60h162q-19 -87 -90 -170t-150 -83q-32 0 -144 46.5t-149 46.5q-56 0 -83 -93h-160z" />
<glyph unicode="&#xd6;" horiz-adv-x="1438" d="M99 545q0 391 213.5 668.5t555.5 277.5q263 0 405 -139.5t142 -403.5q0 -433 -218 -703t-597 -270q-232 0 -366.5 156.5t-134.5 413.5zM369 572q0 -169 67 -269t196 -100q238 0 376 214t138 511q0 336 -296 336q-208 0 -344.5 -220t-136.5 -472zM515 1771q0 49 45 80.5 t103 31.5q57 0 102 -30.5t45 -81.5q0 -50 -45 -81.5t-102 -31.5q-59 0 -103.5 31t-44.5 82zM988 1771q0 51 45 81.5t102 30.5q58 0 103 -31.5t45 -80.5q0 -51 -44.5 -82t-103.5 -31q-58 0 -102.5 31t-44.5 82z" />
<glyph unicode="&#xd7;" d="M153 949l142 142l321 -321l317 317l143 -141l-317 -317l314 -315l-143 -142l-314 315l-317 -317l-142 141l317 317z" />
<glyph unicode="&#xd8;" horiz-adv-x="1438" d="M48 -35l156 205q-105 150 -105 375q0 391 213.5 668.5t555.5 277.5q174 0 296 -62l48 62h256l-149 -194q96 -134 96 -349q0 -433 -218 -703t-597 -270q-142 0 -250 61l-54 -71h-248zM369 572q0 -88 19 -160l623 816q-65 36 -161 36q-208 0 -344.5 -220t-136.5 -472z M504 236q54 -33 128 -33q238 0 376 214t138 511q0 71 -13 127z" />
<glyph unicode="&#xd9;" horiz-adv-x="1355" d="M123 349q0 53 11 113l184 1003h268l-187 -998q-5 -27 -5 -57q0 -99 61 -153t166 -54q134 0 223 73t113 205l183 984h264l-187 -1014q-42 -226 -210 -351t-416 -125q-207 0 -337.5 99.5t-130.5 274.5zM648 1918h280l35 -333h-162z" />
<glyph unicode="&#xda;" horiz-adv-x="1355" d="M123 349q0 53 11 113l184 1003h268l-187 -998q-5 -27 -5 -57q0 -99 61 -153t166 -54q134 0 223 73t113 205l183 984h264l-187 -1014q-42 -226 -210 -351t-416 -125q-207 0 -337.5 99.5t-130.5 274.5zM738 1585l205 333h284l-273 -333h-216z" />
<glyph unicode="&#xdb;" horiz-adv-x="1355" d="M123 349q0 53 11 113l184 1003h268l-187 -998q-5 -27 -5 -57q0 -99 61 -153t166 -54q134 0 223 73t113 205l183 984h264l-187 -1014q-42 -226 -210 -351t-416 -125q-207 0 -337.5 99.5t-130.5 274.5zM457 1565l432 358h139l290 -355h-281l-118 143l-191 -146h-271z" />
<glyph unicode="&#xdc;" horiz-adv-x="1355" d="M123 349q0 53 11 113l184 1003h268l-187 -998q-5 -27 -5 -57q0 -99 61 -153t166 -54q134 0 223 73t113 205l183 984h264l-187 -1014q-42 -226 -210 -351t-416 -125q-207 0 -337.5 99.5t-130.5 274.5zM516 1771q0 49 45 80.5t103 31.5q57 0 102 -30.5t45 -81.5 q0 -50 -45 -81.5t-102 -31.5q-59 0 -103.5 31t-44.5 82zM989 1771q0 51 45 81.5t102 30.5q58 0 103 -31.5t45 -80.5q0 -51 -44.5 -82t-103.5 -31q-58 0 -102.5 31t-44.5 82z" />
<glyph unicode="&#xdd;" horiz-adv-x="1400" d="M247 1465h271l236 -573l439 573h297l-642 -817l-119 -648h-258l121 656zM704 1585l205 333h284l-273 -333h-216z" />
<glyph unicode="&#xde;" horiz-adv-x="1150" d="M49 0l268 1465h259l-32 -178q64 9 120 9q238 0 377 -111t139 -316q0 -280 -163 -435t-462 -155q-92 0 -193 19l-54 -298h-259zM404 521q79 -21 155 -21q167 0 259.5 90t92.5 254q0 118 -61 174.5t-205 56.5q-66 0 -144 -16z" />
<glyph unicode="&#xdf;" horiz-adv-x="1182" d="M-152 -249q167 34 210 271l192 1070q33 185 155 301.5t293 116.5q164 0 260.5 -64t96.5 -186q0 -63 -28 -131.5t-158 -206.5q247 -143 247 -371q0 -243 -138 -407t-361 -164q-112 0 -176 23l84 209q51 -12 73 -12q118 0 184.5 85t66.5 220q0 48 -19.5 89t-47 67 t-114.5 104q-63 62 -63 130q0 49 53 96l86 74q33 29 49 65.5t16 76.5q0 78 -115 78q-71 0 -120 -59t-80 -229l-190 -1048q-31 -169 -148 -268.5t-289 -100.5z" />
<glyph unicode="&#xe0;" horiz-adv-x="1214" d="M71 351q0 305 184.5 522.5t465.5 217.5q271 0 391 -50l-124 -657q-7 -37 -7 -82q0 -220 34 -302h-156q-70 0 -104 107q-128 -127 -319 -127q-174 0 -269.5 98t-95.5 273zM331 357q0 -173 170 -173q108 0 188.5 133t143.5 550q-71 20 -134 20q-168 0 -268 -160.5 t-100 -369.5zM509 1618h280l35 -333h-162z" />
<glyph unicode="&#xe1;" horiz-adv-x="1214" d="M71 351q0 305 184.5 522.5t465.5 217.5q271 0 391 -50l-124 -657q-7 -37 -7 -82q0 -220 34 -302h-156q-70 0 -104 107q-128 -127 -319 -127q-174 0 -269.5 98t-95.5 273zM331 357q0 -173 170 -173q108 0 188.5 133t143.5 550q-71 20 -134 20q-168 0 -268 -160.5 t-100 -369.5zM559 1285l205 333h284l-273 -333h-216z" />
<glyph unicode="&#xe2;" horiz-adv-x="1214" d="M71 351q0 305 184.5 522.5t465.5 217.5q271 0 391 -50l-124 -657q-7 -37 -7 -82q0 -220 34 -302h-156q-70 0 -104 107q-128 -127 -319 -127q-174 0 -269.5 98t-95.5 273zM298 1282l432 358h139l290 -355h-281l-118 143l-191 -146h-271zM331 357q0 -173 170 -173 q108 0 188.5 133t143.5 550q-71 20 -134 20q-168 0 -268 -160.5t-100 -369.5z" />
<glyph unicode="&#xe3;" horiz-adv-x="1214" d="M71 351q0 305 184.5 522.5t465.5 217.5q271 0 391 -50l-124 -657q-7 -37 -7 -82q0 -220 34 -302h-156q-70 0 -104 107q-128 -127 -319 -127q-174 0 -269.5 98t-95.5 273zM324 1285q23 105 90 179t153 74q49 0 150.5 -43t124.5 -43q33 0 62 26t34 60h162q-19 -87 -90 -170 t-150 -83q-32 0 -144 46.5t-149 46.5q-56 0 -83 -93h-160zM331 357q0 -173 170 -173q108 0 188.5 133t143.5 550q-71 20 -134 20q-168 0 -268 -160.5t-100 -369.5z" />
<glyph unicode="&#xe4;" horiz-adv-x="1214" d="M71 351q0 305 184.5 522.5t465.5 217.5q271 0 391 -50l-124 -657q-7 -37 -7 -82q0 -220 34 -302h-156q-70 0 -104 107q-128 -127 -319 -127q-174 0 -269.5 98t-95.5 273zM331 357q0 -173 170 -173q108 0 188.5 133t143.5 550q-71 20 -134 20q-168 0 -268 -160.5 t-100 -369.5zM357 1401q0 49 45 80.5t103 31.5q57 0 102 -30.5t45 -81.5q0 -50 -45 -81.5t-102 -31.5q-59 0 -103.5 31t-44.5 82zM830 1401q0 51 45 81.5t102 30.5q58 0 103 -31.5t45 -80.5q0 -51 -44.5 -82t-103.5 -31q-58 0 -102.5 31t-44.5 82z" />
<glyph unicode="&#xe5;" horiz-adv-x="1214" d="M71 351q0 305 184.5 522.5t465.5 217.5q271 0 391 -50l-124 -657q-7 -37 -7 -82q0 -220 34 -302h-156q-70 0 -104 107q-128 -127 -319 -127q-174 0 -269.5 98t-95.5 273zM331 357q0 -173 170 -173q108 0 188.5 133t143.5 550q-71 20 -134 20q-168 0 -268 -160.5 t-100 -369.5zM524 1495q0 90 74 149.5t173 59.5q100 0 173 -59t73 -150t-73.5 -150.5t-172.5 -59.5t-173 60t-74 150zM647 1491q0 -39 38 -65t89 -26t89 26t38 65q0 40 -38 66t-89 26t-89 -26t-38 -66z" />
<glyph unicode="&#xe6;" horiz-adv-x="1830" d="M66 353q0 294 185 512q192 226 470 226q157 0 299 -61l-23 -109q163 170 428 170q157 0 258 -60q126 -73 126 -219q0 -196 -185 -301q-151 -87 -362 -87q-113 0 -214 35q-2 -19 -2 -38q0 -117 57 -171t189 -54q67 0 155 39q82 36 126 80l-31 -277q-128 -58 -315 -58 q-141 0 -220 37q-79 38 -135 131q-2 -23 17 -148h-93q-68 0 -101 151q-108 -171 -279 -171q-165 0 -260 108q-90 102 -90 265zM337 385q0 -193 120 -193q144 0 282 295q40 107 60 202l28 148q-34 42 -98 42q-170 0 -283 -151q-109 -144 -109 -343zM1098 656q59 -17 134 -17 q319 0 319 145q0 91 -145 91q-91 0 -177 -60.5t-131 -158.5z" />
<glyph unicode="&#xe7;" horiz-adv-x="1009" d="M75 402q0 299 173 494t453 195q160 0 277 -66l-51 -219q-105 77 -212 77q-172 0 -276.5 -128.5t-104.5 -321.5q0 -100 59 -171t152 -71q134 0 315 114l-30 -261q-153 -64 -315 -64q-203 0 -321.5 112.5t-118.5 309.5zM243 -327q18 -5 39 -5q58 0 108 25q63 31 63 83 q0 35 -29 64.5t-64 30.5l62 86q230 -15 230 -186q0 -115 -109 -176q-89 -50 -213 -50q-15 0 -87 5v123z" />
<glyph unicode="&#xe8;" horiz-adv-x="1130" d="M83 448q0 276 177.5 459.5t464.5 183.5q169 0 274 -71.5t105 -204.5q0 -181 -156.5 -284t-385.5 -103q-112 0 -219 37q-2 -26 -2 -45q0 -112 66.5 -172t184.5 -60q63 0 145 34.5t129 77.5l-29 -263q-127 -57 -310 -57q-198 0 -321 125t-123 343zM391 654q65 -19 141 -19 q136 0 230 41.5t94 119.5q0 87 -190 87q-75 0 -153 -65.5t-122 -163.5zM524 1618h280l35 -333h-162z" />
<glyph unicode="&#xe9;" horiz-adv-x="1130" d="M83 448q0 276 177.5 459.5t464.5 183.5q169 0 274 -71.5t105 -204.5q0 -181 -156.5 -284t-385.5 -103q-112 0 -219 37q-2 -26 -2 -45q0 -112 66.5 -172t184.5 -60q63 0 145 34.5t129 77.5l-29 -263q-127 -57 -310 -57q-198 0 -321 125t-123 343zM391 654q65 -19 141 -19 q136 0 230 41.5t94 119.5q0 87 -190 87q-75 0 -153 -65.5t-122 -163.5zM539 1285l205 333h284l-273 -333h-216z" />
<glyph unicode="&#xea;" horiz-adv-x="1130" d="M83 448q0 276 177.5 459.5t464.5 183.5q169 0 274 -71.5t105 -204.5q0 -181 -156.5 -284t-385.5 -103q-112 0 -219 37q-2 -26 -2 -45q0 -112 66.5 -172t184.5 -60q63 0 145 34.5t129 77.5l-29 -263q-127 -57 -310 -57q-198 0 -321 125t-123 343zM313 1282l432 358h139 l290 -355h-281l-118 143l-191 -146h-271zM391 654q65 -19 141 -19q136 0 230 41.5t94 119.5q0 87 -190 87q-75 0 -153 -65.5t-122 -163.5z" />
<glyph unicode="&#xeb;" horiz-adv-x="1130" d="M83 448q0 276 177.5 459.5t464.5 183.5q169 0 274 -71.5t105 -204.5q0 -181 -156.5 -284t-385.5 -103q-112 0 -219 37q-2 -26 -2 -45q0 -112 66.5 -172t184.5 -60q63 0 145 34.5t129 77.5l-29 -263q-127 -57 -310 -57q-198 0 -321 125t-123 343zM317 1401q0 49 45 80.5 t103 31.5q57 0 102 -30.5t45 -81.5q0 -50 -45 -81.5t-102 -31.5q-59 0 -103.5 31t-44.5 82zM391 654q65 -19 141 -19q136 0 230 41.5t94 119.5q0 87 -190 87q-75 0 -153 -65.5t-122 -163.5zM790 1401q0 51 45 81.5t102 30.5q58 0 103 -31.5t45 -80.5q0 -51 -44.5 -82 t-103.5 -31q-58 0 -102.5 31t-44.5 82z" />
<glyph unicode="&#xec;" horiz-adv-x="669" d="M143 0l162 870h-137l42 201h387l-200 -1071h-254zM205 1618h280l35 -333h-162z" />
<glyph unicode="&#xed;" horiz-adv-x="669" d="M143 0l162 870h-137l42 201h387l-200 -1071h-254zM308 1285l205 333h284l-273 -333h-216z" />
<glyph unicode="&#xee;" horiz-adv-x="669" d="M23 1282l432 358h139l290 -355h-281l-118 143l-191 -146h-271zM143 0l162 870h-137l42 201h387l-200 -1071h-254z" />
<glyph unicode="&#xef;" horiz-adv-x="669" d="M72 1401q0 49 45 80.5t103 31.5q57 0 102 -30.5t45 -81.5q0 -50 -45 -81.5t-102 -31.5q-59 0 -103.5 31t-44.5 82zM143 0l162 870h-137l42 201h387l-200 -1071h-254zM545 1401q0 51 45 81.5t102 30.5q58 0 103 -31.5t45 -80.5q0 -51 -44.5 -82t-103.5 -31 q-58 0 -102.5 31t-44.5 82z" />
<glyph unicode="&#xf0;" horiz-adv-x="1167" d="M72 400q0 289 176.5 488.5t448.5 199.5q54 0 110 -9q-52 120 -82 150l-179 -84l-50 103l169 79q-45 57 -147 177l272 49q44 -52 99 -122l174 84l59 -110l-170 -80q80 -127 127.5 -316.5t47.5 -368.5q0 -279 -178 -469.5t-448 -190.5q-203 0 -316 108.5t-113 311.5z M332 412q0 -229 197 -229q155 0 246.5 145t91.5 341q0 216 -197 216q-153 0 -245.5 -142t-92.5 -331z" />
<glyph unicode="&#xf1;" horiz-adv-x="1151" d="M27 0l151 803q4 21 4 58q0 89 -29 190l245 45l23 -120q132 115 331 115q330 0 330 -309q0 -55 -14 -130l-121 -652h-259l117 624q14 75 14 126q0 133 -157 133q-134 0 -241 -113l-143 -770h-251zM283 1285q23 105 90 179t153 74q49 0 150.5 -43t124.5 -43q33 0 62 26 t34 60h162q-19 -87 -90 -170t-150 -83q-32 0 -144 46.5t-149 46.5q-56 0 -83 -93h-160z" />
<glyph unicode="&#xf2;" horiz-adv-x="1167" d="M72 401q0 290 177 490t448 200q207 0 319 -107.5t112 -305.5q0 -296 -175 -497t-452 -201q-203 0 -316 108.5t-113 312.5zM332 413q0 -229 197 -229q156 0 247 144.5t91 342.5q0 216 -197 216q-153 0 -245.5 -142.5t-92.5 -331.5zM484 1618h280l35 -333h-162z" />
<glyph unicode="&#xf3;" horiz-adv-x="1167" d="M72 401q0 290 177 490t448 200q207 0 319 -107.5t112 -305.5q0 -296 -175 -497t-452 -201q-203 0 -316 108.5t-113 312.5zM332 413q0 -229 197 -229q156 0 247 144.5t91 342.5q0 216 -197 216q-153 0 -245.5 -142.5t-92.5 -331.5zM509 1285l205 333h284l-273 -333h-216z " />
<glyph unicode="&#xf4;" horiz-adv-x="1167" d="M72 401q0 290 177 490t448 200q207 0 319 -107.5t112 -305.5q0 -296 -175 -497t-452 -201q-203 0 -316 108.5t-113 312.5zM263 1282l432 358h139l290 -355h-281l-118 143l-191 -146h-271zM332 413q0 -229 197 -229q156 0 247 144.5t91 342.5q0 216 -197 216 q-153 0 -245.5 -142.5t-92.5 -331.5z" />
<glyph unicode="&#xf5;" horiz-adv-x="1167" d="M72 401q0 290 177 490t448 200q207 0 319 -107.5t112 -305.5q0 -296 -175 -497t-452 -201q-203 0 -316 108.5t-113 312.5zM309 1285q23 105 90 179t153 74q49 0 150.5 -43t124.5 -43q33 0 62 26t34 60h162q-19 -87 -90 -170t-150 -83q-32 0 -144 46.5t-149 46.5 q-56 0 -83 -93h-160zM332 413q0 -229 197 -229q156 0 247 144.5t91 342.5q0 216 -197 216q-153 0 -245.5 -142.5t-92.5 -331.5z" />
<glyph unicode="&#xf6;" horiz-adv-x="1167" d="M72 401q0 290 177 490t448 200q207 0 319 -107.5t112 -305.5q0 -296 -175 -497t-452 -201q-203 0 -316 108.5t-113 312.5zM317 1401q0 49 45 80.5t103 31.5q57 0 102 -30.5t45 -81.5q0 -50 -45 -81.5t-102 -31.5q-59 0 -103.5 31t-44.5 82zM332 413q0 -229 197 -229 q156 0 247 144.5t91 342.5q0 216 -197 216q-153 0 -245.5 -142.5t-92.5 -331.5zM790 1401q0 51 45 81.5t102 30.5q58 0 103 -31.5t45 -80.5q0 -51 -44.5 -82t-103.5 -31q-58 0 -102.5 31t-44.5 82z" />
<glyph unicode="&#xf7;" d="M164 535v201h898v-201h-898zM463 230q0 62 44 106t106 44t106 -44t44 -106t-44 -106.5t-106 -44.5t-106 44.5t-44 106.5zM463 1020q0 62 44 106t106 44t106 -44t44 -106t-44 -106.5t-106 -44.5t-106 44.5t-44 106.5z" />
<glyph unicode="&#xf8;" horiz-adv-x="1167" d="M-2 -35l148 170q-74 104 -74 266q0 290 177 490t448 200q140 0 238 -50l44 50h206l-131 -151q74 -102 74 -262q0 -296 -175 -497t-452 -201q-139 0 -237 52l-58 -67h-208zM332 413q0 -32 4 -60l444 510q-44 24 -110 24q-153 0 -245.5 -142.5t-92.5 -331.5zM419 210 q44 -26 110 -26q156 0 247 144.5t91 342.5q0 27 -3 51z" />
<glyph unicode="&#xf9;" horiz-adv-x="1141" d="M62 278q0 44 11 103l129 690h254l-127 -680q-8 -43 -8 -73q0 -130 146 -130q119 0 199.5 77.5t100.5 186.5l110 619h251l-200 -1072h-250l15 78q-134 -97 -336 -97q-138 0 -216.5 79t-78.5 219zM459 1618h280l35 -333h-162z" />
<glyph unicode="&#xfa;" horiz-adv-x="1141" d="M62 278q0 44 11 103l129 690h254l-127 -680q-8 -43 -8 -73q0 -130 146 -130q119 0 199.5 77.5t100.5 186.5l110 619h251l-200 -1072h-250l15 78q-134 -97 -336 -97q-138 0 -216.5 79t-78.5 219zM519 1285l205 333h284l-273 -333h-216z" />
<glyph unicode="&#xfb;" horiz-adv-x="1141" d="M62 278q0 44 11 103l129 690h254l-127 -680q-8 -43 -8 -73q0 -130 146 -130q119 0 199.5 77.5t100.5 186.5l110 619h251l-200 -1072h-250l15 78q-134 -97 -336 -97q-138 0 -216.5 79t-78.5 219zM263 1282l432 358h139l290 -355h-281l-118 143l-191 -146h-271z" />
<glyph unicode="&#xfc;" horiz-adv-x="1141" d="M62 278q0 44 11 103l129 690h254l-127 -680q-8 -43 -8 -73q0 -130 146 -130q119 0 199.5 77.5t100.5 186.5l110 619h251l-200 -1072h-250l15 78q-134 -97 -336 -97q-138 0 -216.5 79t-78.5 219zM277 1401q0 49 45 80.5t103 31.5q57 0 102 -30.5t45 -81.5q0 -50 -45 -81.5 t-102 -31.5q-59 0 -103.5 31t-44.5 82zM750 1401q0 51 45 81.5t102 30.5q58 0 103 -31.5t45 -80.5q0 -51 -44.5 -82t-103.5 -31q-58 0 -102.5 31t-44.5 82z" />
<glyph unicode="&#xfd;" horiz-adv-x="1155" d="M42 -179q283 1 363 183l52 120q-137 39 -185 288l-127 659h263q117 -704 149 -735l344 735h283l-564 -1178q-149 -311 -578 -313v241zM494 1285l205 333h284l-273 -333h-216z" />
<glyph unicode="&#xfe;" horiz-adv-x="1226" d="M-25 -420l329 1931h259l-95 -518q131 98 260 98q429 0 429 -416q0 -305 -176 -500t-465 -195q-115 0 -211 49l-80 -449h-250zM344 242q49 -51 145 -51q197 0 301.5 119.5t104.5 339.5q0 102 -63 163.5t-173 61.5q-50 0 -119 -32.5t-102 -71.5z" />
<glyph unicode="&#xff;" horiz-adv-x="1155" d="M42 -179q283 1 363 183l52 120q-137 39 -185 288l-127 659h263q117 -704 149 -735l344 735h283l-564 -1178q-149 -311 -578 -313v241zM342 1401q0 49 45 80.5t103 31.5q57 0 102 -30.5t45 -81.5q0 -50 -45 -81.5t-102 -31.5q-59 0 -103.5 31t-44.5 82zM815 1401 q0 51 45 81.5t102 30.5q58 0 103 -31.5t45 -80.5q0 -51 -44.5 -82t-103.5 -31q-58 0 -102.5 31t-44.5 82z" />
<glyph unicode="&#x152;" horiz-adv-x="2167" d="M99 545q0 392 213 669t556 277q233 0 379 -117l17 91h943l-43 -228h-675l-61 -337h484l-41 -218h-481l-85 -454h664l-43 -228h-932l15 81q-184 -106 -409 -106q-233 0 -367 156t-134 414zM369 572q0 -173 67.5 -271t195.5 -98q238 0 376 214t138 511q0 336 -296 336 q-208 0 -344.5 -219t-136.5 -473z" />
<glyph unicode="&#x153;" horiz-adv-x="1900" d="M72 401q0 289 176.5 489.5t448.5 200.5q248 0 361 -157q178 157 437 157q172 0 275.5 -72t103.5 -204q0 -181 -157 -284t-385 -103q-110 0 -219 37q-2 -25 -2 -45q0 -122 59.5 -177t191.5 -55q63 0 142.5 33t131.5 79l-29 -263q-128 -57 -310 -57q-271 0 -377 167 q-174 -167 -419 -167q-203 0 -316 109t-113 312zM332 413q0 -229 197 -229q155 0 246.5 145.5t91.5 341.5q0 216 -197 216q-153 0 -245.5 -142.5t-92.5 -331.5zM1161 654q65 -19 141 -19q137 0 230.5 41.5t93.5 119.5q0 87 -190 87q-71 0 -155 -74.5t-120 -154.5z" />
<glyph unicode="&#x178;" horiz-adv-x="1400" d="M247 1465h271l236 -573l439 573h297l-642 -817l-119 -648h-258l121 656zM492 1771q0 49 45 80.5t103 31.5q57 0 102 -30.5t45 -81.5q0 -50 -45 -81.5t-102 -31.5q-59 0 -103.5 31t-44.5 82zM965 1771q0 51 45 81.5t102 30.5q58 0 103 -31.5t45 -80.5q0 -51 -44.5 -82 t-103.5 -31q-58 0 -102.5 31t-44.5 82z" />
<glyph unicode="&#x2c6;" d="M263 1282l432 358h139l290 -355h-281l-118 143l-191 -146h-271z" />
<glyph unicode="&#x2dc;" d="M389 1285q23 105 90 179t153 74q49 0 150.5 -43t124.5 -43q33 0 62 26t34 60h162q-19 -87 -90 -170t-150 -83q-32 0 -144 46.5t-149 46.5q-56 0 -83 -93h-160z" />
<glyph unicode="&#x2000;" horiz-adv-x="961" />
<glyph unicode="&#x2001;" horiz-adv-x="1923" />
<glyph unicode="&#x2002;" horiz-adv-x="961" />
<glyph unicode="&#x2003;" horiz-adv-x="1923" />
<glyph unicode="&#x2004;" horiz-adv-x="641" />
<glyph unicode="&#x2005;" horiz-adv-x="480" />
<glyph unicode="&#x2006;" horiz-adv-x="320" />
<glyph unicode="&#x2007;" horiz-adv-x="320" />
<glyph unicode="&#x2008;" horiz-adv-x="240" />
<glyph unicode="&#x2009;" horiz-adv-x="384" />
<glyph unicode="&#x200a;" horiz-adv-x="106" />
<glyph unicode="&#x2010;" horiz-adv-x="752" d="M88 476l42 235h529l-42 -235h-529z" />
<glyph unicode="&#x2011;" horiz-adv-x="752" d="M88 476l42 235h529l-42 -235h-529z" />
<glyph unicode="&#x2012;" horiz-adv-x="752" d="M88 476l42 235h529l-42 -235h-529z" />
<glyph unicode="&#x2013;" horiz-adv-x="752" d="M63 502v201h581v-201h-581z" />
<glyph unicode="&#x2014;" horiz-adv-x="1504" d="M63 502v201h1369v-201h-1369z" />
<glyph unicode="&#x2018;" horiz-adv-x="752" d="M280 1030q0 14 2 28q24 276 323 452l73 -111q-73 -53 -95 -74q-50 -49 -55 -103q-3 -34 41 -89t40 -105q-14 -162 -174 -162q-155 0 -155 164z" />
<glyph unicode="&#x2019;" horiz-adv-x="752" d="M280 977q73 53 95 74q50 49 55 103q3 34 -41 89t-40 105q14 162 174 162q155 0 155 -164q0 -14 -2 -28q-24 -276 -323 -452z" />
<glyph unicode="&#x201a;" horiz-adv-x="752" d="M90 -256q73 53 95 74q50 49 55 103q3 34 -41 89t-40 105q14 162 174 162q155 0 155 -164q0 -14 -2 -28q-24 -276 -323 -452z" />
<glyph unicode="&#x201c;" d="M280 1030q0 14 2 28q24 276 323 452l73 -111q-73 -53 -95 -74q-50 -49 -55 -103q-3 -34 41 -89t40 -105q-14 -162 -174 -162q-155 0 -155 164zM740 1030q0 14 2 28q24 276 323 452l73 -111q-73 -53 -95 -74q-50 -49 -55 -103q-3 -34 41 -89t40 -105q-14 -162 -174 -162 q-155 0 -155 164z" />
<glyph unicode="&#x201d;" d="M280 977q73 53 95 74q50 49 55 103q3 34 -41 89t-40 105q14 162 174 162q155 0 155 -164q0 -14 -2 -28q-24 -276 -323 -452zM740 977q73 53 95 74q50 49 55 103q3 34 -41 89t-40 105q14 162 174 162q155 0 155 -164q0 -14 -2 -28q-24 -276 -323 -452z" />
<glyph unicode="&#x201e;" d="M111 -256q73 53 95 74q50 49 55 103q3 34 -41 89t-40 105q14 162 174 162q155 0 155 -164q0 -14 -2 -28q-24 -276 -323 -452zM571 -256q73 53 95 74q50 49 55 103q3 34 -41 89t-40 105q14 162 174 162q155 0 155 -164q0 -14 -2 -28q-24 -276 -323 -452z" />
<glyph unicode="&#x2022;" horiz-adv-x="1074" d="M253 574q0 122 83.5 205.5t205.5 83.5t205.5 -83.5t83.5 -205.5t-83.5 -205.5t-205.5 -83.5t-205.5 83.5t-83.5 205.5z" />
<glyph unicode="&#x2026;" horiz-adv-x="1504" d="M100 131q0 62 44 106t106 44t106 -44t44 -106t-44 -106.5t-106 -44.5t-106 44.5t-44 106.5zM602 131q0 62 44 106t106 44t106 -44t44 -106t-44 -106.5t-106 -44.5t-106 44.5t-44 106.5zM1104 131q0 62 44 106t106 44t106 -44t44 -106t-44 -106.5t-106 -44.5t-106 44.5 t-44 106.5z" />
<glyph unicode="&#x202f;" horiz-adv-x="384" />
<glyph unicode="&#x2039;" horiz-adv-x="752" d="M141 519v96l415 285v-197l-189 -140l189 -124v-197z" />
<glyph unicode="&#x203a;" horiz-adv-x="752" d="M181 242v197l189 124l-189 140v197l415 -285v-96z" />
<glyph unicode="&#x205f;" horiz-adv-x="480" />
<glyph unicode="&#x20ac;" d="M39 519v151h116q8 81 25 159h-141v151h186q87 231 251 365q178 145 417 145q162 0 288 -58l-87 -231q-91 63 -212 63q-244 0 -389 -284h514l-50 -151h-524q-23 -79 -32 -159h496l-60 -151h-440q13 -140 81 -224q75 -92 205 -92q207 0 327 125v-249q-109 -104 -375 -104 q-219 0 -353 155q-128 150 -134 389h-109z" />
<glyph unicode="&#x2122;" horiz-adv-x="1319" d="M121 1332v139h726l147 -454l145 454h123l122 -732h-155l-66 364l-117 -369h-103l-123 374l-61 -369h-156l98 593h-202v-594h-160v594h-218z" />
<glyph unicode="&#x25fc;" horiz-adv-x="1070" d="M0 0v1070h1070v-1070h-1070z" />
<glyph unicode="&#xfb01;" horiz-adv-x="1370" d="M-62 -254q71 16 128 71t70 125l167 928h-151l33 201h148q103 439 469 439q104 0 177 -43l-50 -196q-81 36 -139 36q-144 0 -198 -236h705l-200 -1071h-254l162 870h-444l-160 -938q-26 -152 -141 -251.5t-269 -100.5zM1023 1415q0 67 47.5 111.5t115.5 44.5 q67 0 115 -44.5t48 -111.5q0 -66 -48 -111t-115 -45t-115 44.5t-48 111.5z" />
<glyph unicode="&#xfb02;" horiz-adv-x="1320" d="M-62 -254q71 16 128 71t70 125l167 928h-151l33 201h148q103 439 469 439q74 0 157 -25t116 -54h1l17 79h248l-206 -997q-44 -213 -44 -304q0 -58 36 -91.5t90 -33.5q-59 -94 -179 -94q-90 0 -142 59t-52 153q0 122 48 351l139 669q-101 85 -241 85q-144 0 -198 -236h246 l-25 -201h-252l-160 -938q-26 -152 -141 -251.5t-269 -100.5z" />
</font>
</defs>
</svg>
