<?xml version="1.0" standalone="no"?>
<!DOCTYPE svg PUBLIC "-//W3C//DTD SVG 1.1//EN" "http://www.w3.org/Graphics/SVG/1.1/DTD/svg11.dtd" >
<svg xmlns="http://www.w3.org/2000/svg">
<metadata></metadata>
<defs>
<font id="trebuchet_msitalic" horiz-adv-x="1074" >
<font-face units-per-em="2048" ascent="1638" descent="-410" />
<missing-glyph horiz-adv-x="617" />
<glyph horiz-adv-x="0" />
<glyph horiz-adv-x="682" />
<glyph unicode=" "  horiz-adv-x="617" />
<glyph unicode="&#x09;" horiz-adv-x="617" />
<glyph unicode="&#xa0;" horiz-adv-x="617" />
<glyph unicode="!" horiz-adv-x="752" d="M132 121q0 59 41.5 100.5t100.5 41.5t100.5 -41.5t41.5 -100.5t-41.5 -100t-100.5 -41t-100.5 41t-41.5 100zM280 382q6 364 18 490t27 209l73 410h226l-71 -409q-33 -192 -202 -700h-71z" />
<glyph unicode="&#x22;" horiz-adv-x="665" d="M193 1086l43 381h184l-94 -381h-133zM523 1086l43 381h184l-94 -381h-133z" />
<glyph unicode="#" d="M95 426v128h188l99 393h-172v128h205l102 412h131l-103 -412h297l103 412h127l-103 -412h175v-128h-207l-99 -393h161v-128h-194l-124 -446h-127l124 446h-297l-124 -446h-130l123 446h-155zM414 554h297l99 393h-297z" />
<glyph unicode="$" horiz-adv-x="985" d="M116 47l60 192q43 -34 128.5 -58t164.5 -24q119 0 191 58t72 160q0 85 -54.5 150t-186.5 160.5t-191.5 177t-59.5 204.5q0 173 98 283t266 134l36 202h156l-35 -198q179 -11 228 -37l-57 -194q-28 23 -94 43t-123 20q-128 0 -202 -58t-74 -167q0 -46 23.5 -89t63.5 -77.5 t164.5 -127.5t183 -189.5t58.5 -224.5q0 -179 -109.5 -284.5t-305.5 -124.5l-28 -159h-156l28 162q-153 20 -245 66z" />
<glyph unicode="%" horiz-adv-x="1229" d="M16 -20l1149 1511h126l-1148 -1511h-127zM123 1047q0 176 84 310t272 134q218 0 218 -245q0 -181 -92 -311.5t-256 -130.5q-226 0 -226 243zM250 1064q0 -158 108 -158q114 0 164.5 113t50.5 227q0 143 -115 143q-92 0 -150 -97t-58 -228zM651 225q0 178 84 311.5 t272 133.5q219 0 219 -245q0 -176 -90.5 -309t-258.5 -133q-226 0 -226 242zM778 243q0 -158 108 -158q114 0 164.5 113t50.5 227q0 143 -115 143q-94 0 -151 -100.5t-57 -224.5z" />
<glyph unicode="&#x26;" horiz-adv-x="1446" d="M142 328q0 301 240 502q-96 114 -96 227q0 203 135.5 318.5t360.5 115.5q174 0 250 -48l-54 -186q-89 84 -191 84q-146 0 -229.5 -75.5t-83.5 -211.5q0 -101 82 -173h372l32 183l197 29l-40 -215h249l-28 -160h-249l-39 -189q-16 -77 -23.5 -139t-7.5 -111 q0 -129 115 -129q79 0 148 52v-182q-78 -40 -224 -40q-115 0 -188 71q-158 -71 -342 -71q-175 0 -280.5 93.5t-105.5 254.5zM347 371q0 -105 70.5 -163t188.5 -58q136 0 212 49v20q0 42 10 95l71 404h-398q-154 -160 -154 -347z" />
<glyph unicode="'" horiz-adv-x="327" d="M192 1086l43 381h184l-94 -381h-133z" />
<glyph unicode="(" horiz-adv-x="752" d="M174 277q0 335 176 700.5t421 497.5v-83q-192 -211 -292 -554t-100 -751q0 -247 81 -410v-105q-126 97 -206 290t-80 415z" />
<glyph unicode=")" horiz-adv-x="752" d="M25 -323q177 139 293.5 536.5t116.5 736.5q0 269 -89 442v83q137 -60 216 -272.5t79 -442.5q0 -337 -174 -679t-442 -509v105z" />
<glyph unicode="*" horiz-adv-x="752" d="M165 1168l72 150l96 -37l125 -95l-63 205v79l176 -1v-75l-60 -211l158 107l74 27l57 -161l-86 -29l-173 -3l158 -105l47 -62l-122 -104l-54 70l-82 159l-91 -162l-43 -64l-131 101l50 69l158 83l-176 27z" />
<glyph unicode="+" d="M122 565v141h348v343h141v-343h349v-141h-349v-345h-141v345h-348z" />
<glyph unicode="," horiz-adv-x="752" d="M138 -259q193 132 193 239q0 35 -23 75q-76 45 -76 116q0 53 39.5 86t98.5 33q62 0 103.5 -47.5t41.5 -110.5q0 -133 -73 -242t-260 -225z" />
<glyph unicode="-" horiz-adv-x="752" d="M144 506l30 175h428l-30 -175h-428z" />
<glyph unicode="." horiz-adv-x="752" d="M165 131q0 62 44 106t106 44t106 -44t44 -106t-44 -106.5t-106 -44.5t-106 44.5t-44 106.5z" />
<glyph unicode="/" d="M189 0l531 1471h159l-529 -1471h-161z" />
<glyph unicode="0" d="M68 416q0 481 171.5 778t483.5 297q368 0 368 -420q0 -511 -167 -801t-481 -290q-180 0 -277.5 115t-97.5 321zM268 453q0 -303 191 -303q206 0 318.5 260.5t112.5 641.5q0 269 -201 269q-190 0 -305.5 -276.5t-115.5 -591.5z" />
<glyph unicode="1" d="M343 950l28 192q348 161 472 329h60l-259 -1471h-200l195 1101z" />
<glyph unicode="2" d="M63 0v90l483 618q143 184 192 273t49 173q0 77 -64 120.5t-159 43.5q-138 0 -228 -133l-140 92q95 214 392 214q194 0 301.5 -87.5t107.5 -237.5q0 -99 -55.5 -208t-214.5 -314l-358 -464h544l-32 -180h-818z" />
<glyph unicode="3" d="M47 107l91 166q38 -51 111 -87t144 -36q148 0 239.5 90t91.5 238q0 223 -268 223l28 162q309 0 309 269q0 90 -54 139.5t-150 49.5q-115 0 -197 -69l-90 118q114 121 332 121q165 0 270 -89t105 -243q0 -124 -83 -228.5t-209 -146.5q216 -74 216 -299q0 -257 -138.5 -381 t-434.5 -124q-200 0 -313 127z" />
<glyph unicode="4" d="M25 399l20 114l956 958h70l-162 -918h148l-27 -154h-148l-70 -399h-200l70 399h-657zM289 553h420l90 512z" />
<glyph unicode="5" d="M80 84l82 177q117 -111 243 -111q170 0 262.5 118.5t92.5 315.5q0 109 -65 177.5t-167 68.5q-136 0 -217 -74h-103l125 715h729l-30 -170h-539l-63 -356q81 55 197 55q153 0 251 -98t98 -250q0 -672 -600 -672q-192 0 -296 104z" />
<glyph unicode="6" d="M114 392q0 224 84.5 420.5t279.5 411.5t400 267l79 -107q-105 -41 -302 -241.5t-234 -305.5q97 80 245 80q166 0 261.5 -93t95.5 -258q0 -238 -149 -414.5t-369 -176.5q-391 0 -391 417zM309 363q0 -218 211 -218q129 0 211 113.5t82 266.5q0 101 -50.5 161.5 t-139.5 60.5q-148 0 -231 -106t-83 -278z" />
<glyph unicode="7" d="M100 0q183 377 785 1281h-701l33 190h957v-78q-518 -729 -832 -1393h-242z" />
<glyph unicode="8" d="M84 329q0 168 90 293.5t256 192.5q-70 41 -114.5 124t-44.5 168q0 173 122 278.5t321 105.5q151 0 256.5 -83t105.5 -215q0 -127 -80.5 -242.5t-196.5 -155.5q92 -52 147 -142t55 -194q0 -246 -123.5 -362.5t-394.5 -116.5q-174 0 -286.5 97t-112.5 252zM289 364 q0 -95 63 -154.5t151 -59.5q296 0 296 292q0 85 -57.5 161t-147.5 122q-109 -25 -207 -133.5t-98 -227.5zM474 1109q0 -65 52.5 -124.5t128.5 -90.5q80 21 147 103t67 165q0 68 -55.5 113.5t-129.5 45.5q-97 0 -153.5 -62.5t-56.5 -149.5z" />
<glyph unicode="9" d="M176 920q0 257 139.5 414t378.5 157q181 0 286 -114.5t105 -302.5q0 -387 -265 -716t-500 -383l-78 107q105 41 302 241t233 305q-95 -79 -245 -79q-151 0 -253.5 105t-102.5 266zM386 941q0 -101 50.5 -161.5t138.5 -60.5q148 0 231 105.5t83 278.5q0 97 -55 157.5 t-155 60.5q-137 0 -215 -106t-78 -274z" />
<glyph unicode=":" horiz-adv-x="752" d="M204 131q0 62 44 106t106 44t106 -44t44 -106t-44 -106.5t-106 -44.5t-106 44.5t-44 106.5zM292 921q0 62 44 106t106 44t106 -44t44 -106t-44 -106.5t-106 -44.5t-106 44.5t-44 106.5z" />
<glyph unicode=";" horiz-adv-x="752" d="M138 -259q193 132 193 239q0 35 -23 75q-76 45 -76 116q0 53 39.5 86t98.5 33q62 0 103.5 -47.5t41.5 -110.5q0 -133 -73 -242t-260 -225zM292 921q0 62 44 106t106 44t106 -44t44 -106t-44 -106.5t-106 -44.5t-106 44.5t-44 106.5z" />
<glyph unicode="&#x3c;" d="M150 576v123l739 354v-161l-571 -255l571 -258v-161z" />
<glyph unicode="=" d="M122 395v141h838v-141h-838zM122 735v141h838v-141h-838z" />
<glyph unicode="&#x3e;" d="M254 218v161l571 258l-571 255v161l739 -354v-123z" />
<glyph unicode="?" horiz-adv-x="752" d="M146 121q0 58 41.5 100t100.5 42q58 0 100 -42t42 -100t-42 -99.5t-100 -41.5q-59 0 -100.5 41.5t-41.5 99.5zM224 1408q92 83 315 83q137 0 218.5 -75t81.5 -208q0 -177 -131 -316l-233 -203q-66 -58 -100.5 -123.5t-31.5 -136.5h-98q-1 12 -7.5 46t-6.5 53 q0 132 108 255l193 187q54 52 85 111.5t31 118.5q0 138 -166 138q-120 0 -195 -60z" />
<glyph unicode="@" horiz-adv-x="1578" d="M122 425q0 367 247 633.5t604 266.5q260 0 414.5 -138.5t154.5 -382.5q0 -217 -114 -383.5t-297 -166.5q-62 0 -122 27.5t-80 73.5q-26 -44 -94.5 -78t-130.5 -34q-108 0 -173.5 59.5t-65.5 167.5q0 184 129.5 327t308.5 143q62 0 99.5 -9.5t144.5 -55.5 q-82 -362 -82 -413q0 -102 82 -102q118 0 184 122t66 288q0 196 -124 314.5t-322 118.5q-289 0 -487 -226t-198 -530q0 -216 127 -337.5t344 -121.5q231 0 393 128l96 -72q-209 -178 -511 -178q-272 0 -432.5 149t-160.5 410zM625 481q0 -126 112 -126q72 0 130 51t73 124 l55 270q-41 45 -99 45q-113 0 -192 -118t-79 -246z" />
<glyph unicode="A" horiz-adv-x="1251" d="M-32 0l857 1485h53l290 -1485h-232l-46 309h-525l-173 -309h-224zM444 456h425l-90 626z" />
<glyph unicode="B" horiz-adv-x="1159" d="M87 0l259 1465q149 22 275 22q517 0 517 -345q0 -114 -81.5 -210.5t-192.5 -110.5q244 -45 244 -336q0 -248 -173.5 -372.5t-552.5 -124.5q-106 0 -295 12zM324 170q55 -10 121 -10q199 0 327.5 79.5t128.5 223.5q0 276 -351 276q-58 0 -126 -7zM458 899q87 -7 141 -7 q335 0 335 257q0 165 -260 165q-49 0 -150 -9z" />
<glyph unicode="C" horiz-adv-x="1225" d="M141 531q0 402 218.5 680.5t564.5 278.5q174 0 280 -47l-55 -195q-84 64 -237 64q-236 0 -397.5 -235.5t-161.5 -508.5q0 -413 343 -413q177 0 344 145l-16 -212q-123 -113 -381 -113q-240 0 -371 148t-131 408z" />
<glyph unicode="D" horiz-adv-x="1256" d="M67 0l258 1465q123 23 249 23q319 0 496 -149t177 -441q0 -426 -244 -662t-616 -236h-320zM306 189q58 -8 113 -8q277 0 445 205t168 523q0 182 -120.5 291t-297.5 109q-64 0 -122 -16z" />
<glyph unicode="E" horiz-adv-x="1097" d="M47 0l259 1465h885l-33 -180h-674l-72 -407h484l-30 -170h-484l-93 -528h664l-32 -180h-874z" />
<glyph unicode="F" horiz-adv-x="1075" d="M55 0l262 1465h911l-31 -180h-705l-72 -407h515l-30 -170h-515l-125 -708h-210z" />
<glyph unicode="G" horiz-adv-x="1385" d="M112 539q0 421 239 686t625 265q216 0 300 -84l-60 -191q-128 95 -278 95q-269 0 -441 -208t-172 -524q0 -423 399 -423q160 0 276 96l61 343h-203l30 170h403l-113 -638q-207 -151 -527 -151q-539 0 -539 564z" />
<glyph unicode="H" horiz-adv-x="1340" d="M67 0l259 1465h206l-104 -587h640l104 587h204l-259 -1465h-204l125 708h-640l-125 -708h-206z" />
<glyph unicode="I" horiz-adv-x="570" d="M75 0l259 1465h204l-259 -1465h-204z" />
<glyph unicode="J" horiz-adv-x="976" d="M-16 245q0 23 3 48h175q0 -133 135 -133q129 0 196 54.5t114 324.5l163 926h200l-161 -918q-55 -316 -166 -441.5t-376 -125.5q-130 0 -206.5 70.5t-76.5 194.5z" />
<glyph unicode="K" horiz-adv-x="1179" d="M69 0l258 1465h202l-132 -758l666 758h233l-550 -635l354 -830h-231l-284 674l-244 -277l-70 -397h-202z" />
<glyph unicode="L" horiz-adv-x="1037" d="M84 0l259 1465h204l-227 -1285h662l-32 -180h-866z" />
<glyph unicode="M" horiz-adv-x="1559" d="M4 0l522 1465h101l159 -1028l516 1028h105l41 -1465h-201l-20 906l-487 -926h-50l-158 934l-338 -914h-190z" />
<glyph unicode="N" horiz-adv-x="1307" d="M59 0l259 1465h80l560 -998l169 998h198l-262 -1485h-60l-572 1040l-172 -1020h-200z" />
<glyph unicode="O" horiz-adv-x="1380" d="M114 538q0 386 206 669.5t535 283.5q253 0 385.5 -138t132.5 -397q0 -427 -208.5 -704t-577.5 -277q-221 0 -347 156.5t-126 406.5zM327 566q0 -190 75.5 -300.5t216.5 -110.5q249 0 395.5 231t146.5 549q0 377 -324 377q-224 0 -367 -244.5t-143 -501.5z" />
<glyph unicode="P" horiz-adv-x="1113" d="M54 0l267 1465q186 20 294 20q552 0 552 -426q0 -245 -170 -382t-435 -137q-105 0 -200 24l-100 -564h-208zM394 744q55 -27 162 -27q178 0 288 83.5t110 238.5q0 269 -290 269q-82 0 -175 -23z" />
<glyph unicode="Q" horiz-adv-x="1380" d="M100 538q0 386 205.5 669.5t534.5 283.5q252 0 385.5 -138t133.5 -397q0 -301 -121 -567.5t-320 -344.5q32 -104 130.5 -160.5t233.5 -56.5q125 0 230 75l87 -151q-34 -45 -137.5 -84t-215.5 -39q-201 0 -338.5 99.5t-173.5 270.5q-77 -23 -161 -23q-229 0 -351 149.5 t-122 413.5zM313 566q0 -190 75.5 -300.5t216.5 -110.5q249 0 395.5 232.5t146.5 547.5q0 377 -324 377q-218 0 -364 -239.5t-146 -506.5z" />
<glyph unicode="R" horiz-adv-x="1192" d="M71 0l258 1465q41 1 161.5 8t197.5 7q232 0 357.5 -83t125.5 -238q0 -183 -108.5 -320.5t-272.5 -174.5l273 -664h-229l-230 629q-77 0 -211 10l-112 -639h-210zM423 809q74 -10 139 -10q178 0 286.5 74t108.5 203q0 119 -76 169t-254 50q-38 0 -120 -10z" />
<glyph unicode="S" horiz-adv-x="985" d="M87 47l60 192q43 -34 128.5 -58t164.5 -24q119 0 191 58t72 160q0 85 -54.5 150t-186 160t-191.5 177t-60 205q0 198 125.5 310.5t324.5 112.5q225 0 299 -39l-57 -194q-28 23 -94 43t-123 20q-128 0 -202 -58t-74 -167q0 -46 23.5 -89t63.5 -77.5t164.5 -127.5 t183 -189.5t58.5 -224.5q0 -199 -133.5 -305.5t-352.5 -106.5q-78 0 -176 22t-154 50z" />
<glyph unicode="T" horiz-adv-x="1189" d="M157 1285l32 180h1153l-32 -180h-482l-226 -1285h-205l226 1285h-466z" />
<glyph unicode="U" horiz-adv-x="1328" d="M134 335q0 53 10 112l180 1018h210l-180 -1003q-6 -33 -6 -63q0 -113 68.5 -178.5t186.5 -65.5q146 0 242 83t122 229l179 998h206l-180 -1019q-39 -222 -199.5 -346.5t-399.5 -124.5q-203 0 -321 99t-118 261z" />
<glyph unicode="V" horiz-adv-x="1203" d="M178 1465h220l186 -1069l544 1069h227l-792 -1485h-101z" />
<glyph unicode="W" horiz-adv-x="1745" d="M186 1465h208l119 -990l497 990h70l147 -985l460 985h218l-718 -1485h-63l-169 989l-506 -989h-63z" />
<glyph unicode="X" horiz-adv-x="1140" d="M-74 0l565 770l-271 696l207 -1l200 -536l418 536h231l-568 -720l334 -745h-224l-244 565l-416 -565h-232z" />
<glyph unicode="Y" horiz-adv-x="1168" d="M182 1465h209l249 -625l461 625h226l-613 -809l-116 -656h-200l116 656z" />
<glyph unicode="Z" horiz-adv-x="1127" d="M80 0v50l817 1235h-620l31 180h876v-50l-789 -1235h614l-32 -180h-897z" />
<glyph unicode="[" horiz-adv-x="752" d="M22 -420l340 1930h473l-30 -170h-263l-280 -1590h263l-30 -170h-473z" />
<glyph unicode="\" horiz-adv-x="728" d="M185 1471h142l306 -1471h-143z" />
<glyph unicode="]" horiz-adv-x="752" d="M-7 -420l30 170h263l280 1590h-263l30 170h473l-340 -1930h-473z" />
<glyph unicode="^" d="M292 903l318 568h107l316 -564h-127l-244 448l-248 -452h-122z" />
<glyph unicode="_" d="M-8 -125h1085v-129h-1085v129z" />
<glyph unicode="`" d="M505 1558h197l59 -333h-100z" />
<glyph unicode="a" horiz-adv-x="1076" d="M62 342q0 294 173.5 521.5t446.5 227.5q258 0 370 -87l-131 -623q-8 -38 -8 -92q0 -156 49 -289h-194q-16 32 -34 108q-47 -57 -140 -92.5t-197 -35.5q-158 0 -246.5 93.5t-88.5 268.5zM262 348q0 -213 190 -213q99 0 186 102.5t121 262.5l83 393q-27 43 -182 43 q-158 0 -278 -168t-120 -420z" />
<glyph unicode="b" horiz-adv-x="1141" d="M27 -20q65 187 110 435l192 1095h184l-89 -552q75 133 267 133q172 0 284.5 -127.5t112.5 -342.5q0 -253 -175 -447t-433 -194q-163 0 -227 123l-101 -123h-125zM297 263q-2 -11 22 -45t67.5 -58t87.5 -24q170 0 289 150t119 319q0 326 -288 326q-114 0 -197 -147z" />
<glyph unicode="c" horiz-adv-x="942" d="M90 395q0 306 168 501t428 195q154 0 242 -54l-35 -163q-72 57 -193 57q-184 0 -297.5 -145.5t-113.5 -357.5q0 -130 73.5 -207.5t167.5 -77.5q145 0 278 89l-21 -194q-131 -58 -287 -58q-198 0 -304 113.5t-106 301.5z" />
<glyph unicode="d" horiz-adv-x="1141" d="M82 377q0 313 168 512.5t430 199.5q152 0 233 -126l101 547h181l-261 -1510h-188l23 123q-116 -142 -317 -142q-174 0 -272 106.5t-98 289.5zM287 418q0 -283 233 -283q105 0 196 103.5t118 267.5l44 268q2 9 -26.5 55.5t-69 73t-85.5 26.5q-177 0 -293.5 -143.5 t-116.5 -367.5z" />
<glyph unicode="e" horiz-adv-x="1100" d="M104 444q0 273 174 460t438 187q159 0 254 -68t95 -194q0 -175 -148 -276t-363 -101q-144 0 -243 54q-9 -48 -9 -92q0 -132 74 -203t207 -71q118 0 238 87l-20 -194q-160 -53 -283 -53q-414 0 -414 464zM344 644q76 -34 179 -34q156 0 255 50.5t99 147.5q0 123 -170 123 q-259 0 -363 -287z" />
<glyph unicode="f" horiz-adv-x="822" d="M-42 -291q60 12 123 81t76 140l177 1010h-151l22 131h147q88 439 441 439q84 0 142 -30l-36 -148q-76 28 -118 28q-181 0 -231 -289h248l-16 -131h-251l-169 -1010q-24 -142 -130 -230.5t-257 -107.5z" />
<glyph unicode="g" horiz-adv-x="1028" d="M-13 -300l90 140q183 -92 303 -92q132 0 220 49t88 137q0 44 -29.5 72.5t-100.5 40.5l-176 30q-107 27 -107 109q0 66 171 133l-34 -1q-117 0 -205.5 87.5t-88.5 210.5q0 210 135 342.5t345 132.5q151 0 238 -72l90 102l105 -108l-99 -103q29 -41 29 -129 q0 -172 -87 -295t-227.5 -172.5t-140.5 -92.5q0 -35 38 -35q14 0 41.5 4.5t41.5 4.5q250 0 250 -226q0 -177 -157.5 -283t-374.5 -106q-220 0 -358 120zM312 638q0 -218 165 -218q112 0 198 109.5t86 232.5q0 81 -48 128.5t-129 47.5q-115 0 -193.5 -89.5t-78.5 -210.5z" />
<glyph unicode="h" horiz-adv-x="1141" d="M78 0l261 1510h189l-88 -557q49 59 140.5 98.5t181.5 39.5q142 0 220.5 -81t78.5 -228q0 -51 -10 -109l-119 -673h-196l119 673q7 40 7 73q0 185 -180 185q-69 0 -145.5 -40.5t-123.5 -94.5l-141 -796h-194z" />
<glyph unicode="i" horiz-adv-x="628" d="M138 0l162 911h-142l35 157h327l-189 -1068h-193zM312 1358q0 56 39 94.5t94 38.5t94 -38.5t39 -94.5q0 -55 -39 -93.5t-94 -38.5t-94 38.5t-39 93.5z" />
<glyph unicode="j" horiz-adv-x="751" d="M-139 -415l8 168q345 0 393 252l172 906h-141l34 160h329l-193 -1055q-42 -228 -186 -329.5t-416 -101.5zM448 1358q0 55 39 94t94 39t94 -39t39 -94t-39 -93.5t-94 -38.5t-94 38.5t-39 93.5z" />
<glyph unicode="k" horiz-adv-x="1033" d="M106 0l253 1510h185l-137 -878q376 352 463 474l128 -115q-161 -179 -409 -414l404 -577h-224l-328 473l-75 -65l-70 -408h-190z" />
<glyph unicode="l" horiz-adv-x="656" d="M146 218q0 72 50 321l192 971h198l-183 -912q-57 -284 -57 -356q0 -122 143 -122l-22 -140q-321 0 -321 238z" />
<glyph unicode="m" horiz-adv-x="1700" d="M64 0l138 781q6 34 6 94q0 111 -20 180l185 35q18 -77 21 -140q40 65 132.5 103t192.5 38q229 0 296 -143q44 62 138 102.5t186 40.5q291 0 291 -278q0 -46 -9 -97l-127 -716h-195l120 678q7 40 7 77q0 176 -177 176q-65 0 -131.5 -40.5t-100.5 -98.5l-140 -792h-195 l135 761q3 17 3 31q0 139 -189 139q-57 0 -127 -44t-106 -97l-140 -790h-194z" />
<glyph unicode="n" horiz-adv-x="1119" d="M78 0l144 812q5 28 5 66q0 102 -21 177l184 36q27 -146 26 -159q122 159 352 159q290 0 290 -296q0 -59 -13 -132l-115 -663h-202l112 623q15 83 15 138q0 170 -177 170q-68 0 -145.5 -40t-123.5 -95l-139 -796h-192z" />
<glyph unicode="o" horiz-adv-x="1099" d="M73 394q0 287 168 492t427 205q195 0 298 -105.5t103 -299.5q0 -154 -61.5 -320t-201 -276t-334.5 -110q-193 0 -296 108.5t-103 305.5zM273 406q0 -271 227 -271q169 0 268.5 164t99.5 379q0 258 -227 258q-115 0 -202.5 -82t-126.5 -210t-39 -238z" />
<glyph unicode="p" horiz-adv-x="1141" d="M-15 -425l210 1176q14 77 14 151q0 76 -15 148l191 36q5 -13 18 -137q47 58 135 97.5t164 39.5q200 0 299.5 -99t99.5 -298q0 -304 -168.5 -509t-442.5 -205q-59 0 -135.5 23t-95.5 56l-84 -479h-190zM287 211q18 -32 73 -54t103 -22q209 0 322.5 141.5t113.5 386.5 q0 132 -66.5 197.5t-199.5 65.5q-58 0 -134.5 -40.5t-108.5 -84.5z" />
<glyph unicode="q" horiz-adv-x="1141" d="M79 381q0 297 174.5 503.5t446.5 206.5q142 0 243 -101l51 81h158q-61 -199 -82 -318l-209 -1173h-190l85 483q-97 -83 -293 -83q-166 0 -275 119t-109 282zM283 427q0 -137 71.5 -212t202.5 -75q136 0 225 70l113 639q-67 82 -191 82q-187 0 -304 -147.5t-117 -356.5z " />
<glyph unicode="r" horiz-adv-x="853" d="M88 0l189 1071h190l-30 -171q138 191 343 191q35 0 109 -14l-54 -194q-60 48 -140 48q-101 0 -193 -93.5t-115 -223.5l-109 -614h-190z" />
<glyph unicode="s" horiz-adv-x="829" d="M9 64l99 180q39 -39 112 -71.5t125 -32.5q89 0 147 48t58 130q0 42 -30.5 75t-105.5 76l-141 78q-65 37 -97.5 93.5t-32.5 120.5q0 149 116 239.5t285 90.5q117 0 282 -74l-85 -176q-98 90 -211 90q-75 0 -129.5 -38.5t-54.5 -101.5q0 -46 31 -79t107 -74l140 -76 q65 -35 97 -90t32 -120q0 -172 -124.5 -272t-316.5 -100q-169 0 -303 84z" />
<glyph unicode="t" horiz-adv-x="860" d="M184 244q0 28 9 69l128 608h-124l32 150h124l44 224l217 82l-71 -306h294l-32 -150h-294l-112 -532q-13 -62 -13 -96q0 -153 152 -153q74 0 159 37l-7 -167q-82 -30 -265 -30q-114 0 -177.5 70.5t-63.5 193.5z" />
<glyph unicode="u" horiz-adv-x="1140" d="M97 264q0 48 10 104l124 703h200l-125 -683q-8 -44 -8 -81q0 -167 174 -167q107 0 205.5 80t118.5 191l122 660h200l-196 -1071h-200l28 151q-112 -171 -388 -171q-125 0 -195 74t-70 210z" />
<glyph unicode="v" horiz-adv-x="1003" d="M99 1074h198l192 -737l407 737h219l-655 -1094h-50z" />
<glyph unicode="w" horiz-adv-x="1524" d="M115 1074h193l117 -681l399 681h50l192 -686l336 686h197q-335 -656 -557 -1094h-50l-199 697l-428 -697h-50z" />
<glyph unicode="x" horiz-adv-x="1026" d="M-14 0l441 557l-270 514h224l177 -372l272 372h250l-427 -530l295 -541h-247l-188 376l-295 -376h-232z" />
<glyph unicode="y" horiz-adv-x="1010" d="M31 -229q186 0 264 56t112 168q-141 0 -187 278l-134 798h207l118 -777q17 -115 82 -115l386 892h216l-537 -1199q-68 -152 -181 -222t-346 -70v191z" />
<glyph unicode="z" horiz-adv-x="972" d="M8 0v50l657 851h-549l30 170h836v-54l-646 -847h533l-30 -170h-831z" />
<glyph unicode="{" horiz-adv-x="752" d="M35 523l15 84q118 8 186.5 91t68.5 213q0 40 -9 119t-9 119q0 160 128.5 256.5t312.5 96.5h148l-23 -133h-175q-97 0 -149.5 -68t-52.5 -186q0 -33 8 -97.5t8 -97.5q0 -105 -62 -188t-219 -165q183 -81 183 -223q0 -64 -68 -215.5t-68 -237.5q0 -64 30.5 -103t88.5 -53.5 t185 -14.5l-24 -140h-139q-148 0 -247.5 66t-99.5 183q0 92 79.5 265t79.5 265q0 152 -176 164z" />
<glyph unicode="|" d="M462 -276v1681h146v-1681h-146z" />
<glyph unicode="}" horiz-adv-x="752" d="M-131 -420l24 140q230 0 308.5 77t78.5 240q0 33 -6 100t-6 101q0 223 276 329q-178 115 -178 246q0 71 65 207.5t65 217.5q0 131 -137 131h-175l23 133h148q141 0 240.5 -64.5t99.5 -177.5q0 -75 -75 -233t-75 -242q0 -164 174 -178l-15 -84q-255 -17 -255 -311 q0 -41 7 -121t7 -120q0 -182 -125.5 -286.5t-329.5 -104.5h-139z" />
<glyph unicode="~" d="M128 556q17 94 88.5 160t158.5 66q113 0 212.5 -66.5t132.5 -66.5q57 0 94.5 17.5t83.5 85.5l49 -17q-25 -100 -92 -169t-151 -69q-95 0 -191 59.5t-151 59.5q-136 0 -194 -80z" />
<glyph unicode="&#xa1;" horiz-adv-x="752" d="M132 -420l71 409q33 192 203 700h71q-6 -356 -18 -482.5t-28 -216.5l-73 -410h-226zM340 950q0 59 41.5 100t100.5 41t100.5 -41t41.5 -100t-41.5 -100.5t-100.5 -41.5t-100.5 41.5t-41.5 100.5z" />
<glyph unicode="&#xa2;" d="M177 425q0 241 135.5 388t348.5 147l76 257h102l-77 -269q93 -28 158 -78l-36 -142q-70 63 -159 89l-168 -586q9 -1 19 -1q132 0 252 69l-19 -150q-119 -45 -260 -45q-14 0 -28 1l-74 -257h-115l83 279q-80 13 -159 108.5t-79 189.5zM358 450q0 -61 30.5 -117t66.5 -70 l165 556q-114 -8 -188 -114t-74 -255z" />
<glyph unicode="&#xa3;" horiz-adv-x="1084" d="M80 118q12 4 84.5 63.5t122.5 202t50 267.5q0 22 -2 43h-177l26 149h151q-4 348 120.5 492.5t390.5 144.5q74 0 142 -23t95 -55l-95 -152q-88 62 -194 62q-259 0 -259 -405q0 -31 2 -64h211l-26 -149h-185q3 -120 -39 -299t-107 -231q107 -68 279 -68q70 0 148 41t112 94 l115 -127q-34 -69 -152.5 -128.5t-226.5 -59.5q-114 0 -209 33t-177 33q-70 0 -172 -15z" />
<glyph unicode="&#xa4;" d="M107 334l143 140q-82 127 -82 252q0 124 82 251l-143 140l84 88l143 -143q122 83 253 83q132 0 253 -83l143 143l85 -88l-143 -140q82 -127 82 -251q0 -125 -82 -252l143 -140l-85 -88l-143 144q-121 -84 -253 -84q-131 0 -253 84l-143 -144zM287 726q0 -125 87 -212.5 t212 -87.5t212 88t87 212q0 125 -87 212t-212 87q-124 0 -211.5 -87t-87.5 -212z" />
<glyph unicode="&#xa5;" horiz-adv-x="1140" d="M182 1465h209l249 -625l461 625h226l-613 -809l-19 -110h251l-24 -131h-251l-73 -415h-200l73 415h-246l24 131h246l19 110z" />
<glyph unicode="&#xa6;" d="M501 -276v723h146v-723h-146zM501 694v723h146v-723h-146z" />
<glyph unicode="&#xa7;" horiz-adv-x="929" d="M42 69l91 176q42 -37 120 -63.5t142 -26.5q105 0 167.5 46.5t62.5 133.5q0 103 -200 149q-111 25 -186 88t-75 146q0 65 39.5 132.5t94.5 86.5q-82 52 -82 180q0 179 123.5 276t328.5 97q66 0 148 -29.5t124 -69.5l-89 -152q-60 71 -210 71q-211 0 -211 -152 q0 -25 13.5 -46.5t39 -38.5t100.5 -42l173 -60q114 -61 114 -186q0 -139 -119 -242q90 -67 90 -165q0 -180 -133.5 -290.5t-333.5 -110.5q-221 0 -332 92zM357 774q0 -56 46 -88.5t229 -73.5q37 53 37 115q0 45 -27 75t-70 41.5t-133 37.5q-82 -44 -82 -107z" />
<glyph unicode="&#xa8;" d="M377 1341q0 47 33 79.5t80 32.5t79.5 -32.5t32.5 -79.5t-33 -80t-79 -33q-47 0 -80 33t-33 80zM850 1341q0 47 32.5 79.5t79.5 32.5t80 -32.5t33 -79.5t-33 -80t-80 -33t-79.5 33t-32.5 80z" />
<glyph unicode="&#xa9;" horiz-adv-x="1460" d="M105 661q0 279 198 476.5t477 197.5t476.5 -197.5t197.5 -476.5t-197.5 -477t-476.5 -198t-477 198t-198 477zM215 661q0 -234 165.5 -399.5t399.5 -165.5t399 165.5t165 399.5t-165 399t-399 165t-399.5 -165t-165.5 -399zM434 663q0 187 100 309.5t258 122.5 q137 0 212 -44l-38 -97q-54 39 -172 39q-110 0 -175.5 -94t-65.5 -242q0 -142 68 -230t175 -88q117 0 179 82l63 -86q-100 -99 -254 -99q-162 0 -256 116.5t-94 310.5z" />
<glyph unicode="&#xaa;" horiz-adv-x="927" d="M220 967q0 202 128.5 363t321.5 161q180 0 259 -61l-92 -436q-6 -28 -6 -90q0 -103 62 -184h-133q-43 43 -53 83q-74 -90 -236 -90q-116 0 -183.5 67.5t-67.5 186.5zM380 981q0 -149 133 -149q148 0 207 243l64 267q-19 30 -127 30q-98 0 -187.5 -113t-89.5 -278z" />
<glyph unicode="&#xab;" d="M123 535l11 64l398 244l-22 -125l-240 -157l188 -138l-22 -125zM535 535l11 64l398 244l-22 -125l-240 -157l188 -138l-22 -125z" />
<glyph unicode="&#xac;" d="M122 745v141h838v-486h-141v345h-697z" />
<glyph unicode="&#xad;" horiz-adv-x="752" d="M144 506l30 175h428l-30 -175h-428z" />
<glyph unicode="&#xae;" horiz-adv-x="1460" d="M105 661q0 279 198 476.5t477 197.5t476.5 -197.5t197.5 -476.5t-197.5 -477t-476.5 -198t-477 198t-198 477zM215 661q0 -234 165.5 -399.5t399.5 -165.5t399 165.5t165 399.5t-165 399t-399 165t-399.5 -165t-165.5 -399zM540 254v831h213q300 0 300 -230 q0 -160 -161 -226l227 -375h-129l-211 357h-120v-357h-119zM659 707q15 -2 78 -2q116 0 156 29.5t40 112.5q0 137 -180 137h-47l-47 -1v-276z" />
<glyph unicode="&#xaf;" d="M-8 1546v129h1085v-129h-1085z" />
<glyph unicode="&#xb0;" d="M441 1282q0 87 62 148t150 61q87 0 149 -61t62 -148t-62 -148.5t-149 -61.5q-88 0 -150 61.5t-62 148.5zM514 1282q0 -57 40.5 -98t98.5 -41q57 0 98 41t41 98t-41 98t-98 41q-58 0 -98.5 -41t-40.5 -98z" />
<glyph unicode="&#xb1;" d="M151 -20v141h838v-141h-838zM151 565v141h348v343h141v-343h349v-141h-349v-345h-141v345h-348z" />
<glyph unicode="&#xb2;" horiz-adv-x="924" d="M235 595l4 24l339 414q128 156 128 250q0 95 -109 95q-106 0 -190 -124l-66 63q38 74 114 123.5t156 49.5q229 0 229 -175q0 -138 -144 -315l-234 -287h334l-21 -118h-540z" />
<glyph unicode="&#xb3;" horiz-adv-x="924" d="M205 657l77 102q39 -54 138 -54q85 0 138 46.5t53 129.5q0 129 -148 129h-10l18 102h6q79 0 127 45t48 122q0 91 -121 91q-85 0 -131 -44l-38 91q68 73 200 73q103 0 163.5 -50.5t60.5 -131.5t-51 -149t-123 -94q129 -45 129 -179q0 -121 -82 -211t-262 -90 q-129 0 -192 72z" />
<glyph unicode="&#xb4;" d="M551 1225l169 333h197l-226 -333h-140z" />
<glyph unicode="&#xb5;" horiz-adv-x="1140" d="M-37 -420l262 1491h190l-109 -623q-11 -63 -11 -107q0 -195 192 -195q116 0 186.5 64t75.5 85l136 776h190l-188 -1071h-190l26 148q-49 -78 -135.5 -123t-181.5 -45q-108 0 -176 38l-77 -438h-190z" />
<glyph unicode="&#xb6;" horiz-adv-x="1226" d="M166 666q0 284 211 472.5t543 223.5l13 103h174l-10 -86q91 5 139 5v-134h-154l-179 -946q58 0 158 35l25 -134q-115 -44 -211 -44q-64 -298 -158 -418t-234 -120q-220 0 -290 72l55 150q79 -52 195 -52q175 0 247 373q-195 -8 -359.5 130t-164.5 370zM526 693 q0 -281 203 -370l171 895q-155 -54 -264.5 -204.5t-109.5 -320.5z" />
<glyph unicode="&#xb7;" horiz-adv-x="752" d="M205 651q0 62 44 106t106 44t106 -44t44 -106t-44 -106.5t-106 -44.5t-106 44.5t-44 106.5z" />
<glyph unicode="&#xb8;" d="M293 -356q88 0 147 32t59 90t-79 58l21 120q87 0 133.5 -44t46.5 -117q0 -112 -91.5 -175t-228.5 -63z" />
<glyph unicode="&#xb9;" horiz-adv-x="924" d="M330 1157l20 113q214 99 319 208h36l-156 -883h-133l122 674z" />
<glyph unicode="&#xba;" horiz-adv-x="940" d="M253 1004q0 222 114.5 355t312.5 133q137 0 213.5 -74.5t76.5 -209.5q0 -226 -109.5 -360t-307.5 -134q-138 0 -219 78t-81 212zM403 1013q0 -80 47 -135t122 -55q116 0 182 113t66 267q0 180 -159 180q-123 0 -190.5 -103.5t-67.5 -266.5z" />
<glyph unicode="&#xbb;" d="M171 298l22 125l236 138l-184 157l22 125l312 -244l-11 -64zM573 298l22 125l236 138l-184 157l22 125l312 -244l-11 -64z" />
<glyph unicode="&#xbc;" horiz-adv-x="1668" d="M196 1157l20 113q214 99 319 208h36l-156 -883h-133l122 674zM251 -35l973 1526h126l-972 -1526h-127zM878 210l12 68l599 605h42l-101 -571h90l-19 -102h-89l-37 -210h-130l37 210h-404zM1048 312h252l58 310z" />
<glyph unicode="&#xbd;" horiz-adv-x="1668" d="M210 1157l20 113q214 99 319 208h36l-156 -883h-133l122 674zM266 -35l973 1526h126l-972 -1526h-127zM943 0l4 24l339 414q128 156 128 250q0 95 -109 95q-106 0 -190 -124l-66 63q38 74 114 123.5t156 49.5q229 0 229 -175q0 -138 -144 -315l-234 -287h334l-21 -118 h-540z" />
<glyph unicode="&#xbe;" horiz-adv-x="1668" d="M135 657l77 102q39 -54 138 -54q85 0 138 46.5t53 129.5q0 129 -148 129h-10l18 102h6q79 0 127 45t48 122q0 91 -121 91q-85 0 -131 -44l-38 91q68 73 200 73q103 0 163.5 -50.5t60.5 -131.5t-51 -149t-123 -94q129 -45 129 -179q0 -121 -82 -211t-262 -90 q-129 0 -192 72zM388 -35l973 1526h126l-972 -1526h-127zM942 210l12 68l599 605h42l-101 -571h90l-19 -102h-89l-37 -210h-130l37 210h-404zM1112 312h252l58 310z" />
<glyph unicode="&#xbf;" horiz-adv-x="752" d="M-34 -137q0 97 38 182.5t124 161.5l210 182q128 120 123 253h98q1 -12 7.5 -46t6.5 -53q0 -74 -32.5 -143.5t-90.5 -126.5l-186 -179q-107 -113 -107 -223q0 -138 165 -138q120 0 195 60l64 -130q-93 -83 -316 -83q-137 0 -218 75t-81 208zM374 950q0 58 42 99.5 t100 41.5q59 0 100.5 -41.5t41.5 -99.5t-41.5 -100t-100.5 -42q-58 0 -100 42t-42 100z" />
<glyph unicode="&#xc0;" horiz-adv-x="1251" d="M-32 0l857 1485h53l290 -1485h-232l-46 309h-525l-173 -309h-224zM444 456h425l-90 626zM655 1918h197l59 -333h-100z" />
<glyph unicode="&#xc1;" horiz-adv-x="1251" d="M-32 0l857 1485h53l290 -1485h-232l-46 309h-525l-173 -309h-224zM444 456h425l-90 626zM691 1585l169 333h197l-226 -333h-140z" />
<glyph unicode="&#xc2;" horiz-adv-x="1251" d="M-32 0l857 1485h53l290 -1485h-232l-46 309h-525l-173 -309h-224zM444 456h425l-90 626zM487 1582l361 341h107l242 -341h-197l-130 192l-211 -192h-172z" />
<glyph unicode="&#xc3;" horiz-adv-x="1251" d="M-32 0l857 1485h53l290 -1485h-232l-46 309h-525l-173 -309h-224zM444 456h425l-90 626zM519 1585q30 84 91.5 145.5t129.5 61.5q76 0 143 -38.5t99 -38.5q82 0 122 77h88q-90 -207 -229 -207q-60 0 -130 38.5t-101 38.5q-71 0 -122 -77h-91z" />
<glyph unicode="&#xc4;" horiz-adv-x="1251" d="M-32 0l857 1485h53l290 -1485h-232l-46 309h-525l-173 -309h-224zM444 456h425l-90 626zM507 1701q0 47 33 79.5t80 32.5t79.5 -32.5t32.5 -79.5t-33 -80t-79 -33q-47 0 -80 33t-33 80zM980 1701q0 47 32.5 79.5t79.5 32.5t80 -32.5t33 -79.5t-33 -80t-80 -33t-79.5 33 t-32.5 80z" />
<glyph unicode="&#xc5;" horiz-adv-x="1251" d="M-32 0l857 1485h53l290 -1485h-232l-46 309h-525l-173 -309h-224zM444 456h425l-90 626zM631 1746q0 71 68 124t154 53q92 0 157 -49.5t65 -127.5q0 -81 -61.5 -129.5t-160.5 -48.5q-100 0 -161 47t-61 131zM719 1746q0 -90 134 -90q56 0 95.5 24t39.5 66 q0 40 -40.5 64.5t-94.5 24.5q-53 0 -93.5 -25.5t-40.5 -63.5z" />
<glyph unicode="&#xc6;" horiz-adv-x="1775" d="M-83 0l963 1465h981l-33 -180h-666l-69 -407h474l-30 -170h-474l-94 -528h654l-31 -180h-864l54 307h-438l-193 -307h-234zM434 456h374l140 796z" />
<glyph unicode="&#xc7;" horiz-adv-x="1225" d="M141 531q0 402 218.5 680.5t564.5 278.5q174 0 280 -47l-55 -195q-84 64 -237 64q-236 0 -397.5 -235.5t-161.5 -508.5q0 -413 343 -413q177 0 344 145l-16 -212q-123 -113 -381 -113q-240 0 -371 148t-131 408zM505 -356q88 0 147 32t59 90t-79 58l21 120 q87 0 133.5 -44t46.5 -117q0 -112 -91.5 -175t-228.5 -63z" />
<glyph unicode="&#xc8;" horiz-adv-x="1097" d="M47 0l259 1465h885l-33 -180h-674l-72 -407h484l-30 -170h-484l-93 -528h664l-32 -180h-874zM618 1918h197l59 -333h-100z" />
<glyph unicode="&#xc9;" horiz-adv-x="1097" d="M47 0l259 1465h885l-33 -180h-674l-72 -407h484l-30 -170h-484l-93 -528h664l-32 -180h-874zM609 1585l169 333h197l-226 -333h-140z" />
<glyph unicode="&#xca;" horiz-adv-x="1097" d="M47 0l259 1465h885l-33 -180h-674l-72 -407h484l-30 -170h-484l-93 -528h664l-32 -180h-874zM403 1582l361 341h107l242 -341h-197l-130 192l-211 -192h-172z" />
<glyph unicode="&#xcb;" horiz-adv-x="1097" d="M47 0l259 1465h885l-33 -180h-674l-72 -407h484l-30 -170h-484l-93 -528h664l-32 -180h-874zM448 1701q0 47 33 79.5t80 32.5t79.5 -32.5t32.5 -79.5t-33 -80t-79 -33q-47 0 -80 33t-33 80zM921 1701q0 47 32.5 79.5t79.5 32.5t80 -32.5t33 -79.5t-33 -80t-80 -33 t-79.5 33t-32.5 80z" />
<glyph unicode="&#xcc;" horiz-adv-x="570" d="M75 0l259 1465h204l-259 -1465h-204zM275 1918h197l59 -333h-100z" />
<glyph unicode="&#xcd;" horiz-adv-x="570" d="M75 0l259 1465h204l-259 -1465h-204zM384 1585l169 333h197l-226 -333h-140z" />
<glyph unicode="&#xce;" horiz-adv-x="570" d="M75 0l259 1465h204l-259 -1465h-204zM103 1582l361 341h107l242 -341h-197l-130 192l-211 -192h-172z" />
<glyph unicode="&#xcf;" horiz-adv-x="570" d="M75 0l259 1465h204l-259 -1465h-204zM113 1701q0 47 33 79.5t80 32.5t79.5 -32.5t32.5 -79.5t-33 -80t-79 -33q-47 0 -80 33t-33 80zM586 1701q0 47 32.5 79.5t79.5 32.5t80 -32.5t33 -79.5t-33 -80t-80 -33t-79.5 33t-32.5 80z" />
<glyph unicode="&#xd0;" horiz-adv-x="1256" d="M32 704l28 163h159l106 598q123 23 249 23q319 0 496 -149t177 -441q0 -426 -244 -662t-616 -236h-320l124 704h-159zM306 189q58 -8 113 -8q277 0 445 205t168 523q0 182 -120.5 291t-297.5 109q-64 0 -122 -16l-72 -426h231l-28 -163h-230z" />
<glyph unicode="&#xd1;" horiz-adv-x="1307" d="M59 0l259 1465h80l560 -998l169 998h198l-262 -1485h-60l-572 1040l-172 -1020h-200zM449 1585q30 84 91.5 145.5t129.5 61.5q76 0 143 -38.5t99 -38.5q82 0 122 77h88q-90 -207 -229 -207q-60 0 -130 38.5t-101 38.5q-71 0 -122 -77h-91z" />
<glyph unicode="&#xd2;" horiz-adv-x="1380" d="M114 538q0 386 206 669.5t535 283.5q253 0 385.5 -138t132.5 -397q0 -427 -208.5 -704t-577.5 -277q-221 0 -347 156.5t-126 406.5zM327 566q0 -190 75.5 -300.5t216.5 -110.5q249 0 395.5 231t146.5 549q0 377 -324 377q-224 0 -367 -244.5t-143 -501.5zM767 1918h197 l59 -333h-100z" />
<glyph unicode="&#xd3;" horiz-adv-x="1380" d="M114 538q0 386 206 669.5t535 283.5q253 0 385.5 -138t132.5 -397q0 -427 -208.5 -704t-577.5 -277q-221 0 -347 156.5t-126 406.5zM327 566q0 -190 75.5 -300.5t216.5 -110.5q249 0 395.5 231t146.5 549q0 377 -324 377q-224 0 -367 -244.5t-143 -501.5zM776 1585 l169 333h197l-226 -333h-140z" />
<glyph unicode="&#xd4;" horiz-adv-x="1380" d="M114 538q0 386 206 669.5t535 283.5q253 0 385.5 -138t132.5 -397q0 -427 -208.5 -704t-577.5 -277q-221 0 -347 156.5t-126 406.5zM327 566q0 -190 75.5 -300.5t216.5 -110.5q249 0 395.5 231t146.5 549q0 377 -324 377q-224 0 -367 -244.5t-143 -501.5zM553 1582 l361 341h107l242 -341h-197l-130 192l-211 -192h-172z" />
<glyph unicode="&#xd5;" horiz-adv-x="1380" d="M114 538q0 386 206 669.5t535 283.5q253 0 385.5 -138t132.5 -397q0 -427 -208.5 -704t-577.5 -277q-221 0 -347 156.5t-126 406.5zM327 566q0 -190 75.5 -300.5t216.5 -110.5q249 0 395.5 231t146.5 549q0 377 -324 377q-224 0 -367 -244.5t-143 -501.5zM599 1585 q30 84 91.5 145.5t129.5 61.5q76 0 143 -38.5t99 -38.5q82 0 122 77h88q-90 -207 -229 -207q-60 0 -130 38.5t-101 38.5q-71 0 -122 -77h-91z" />
<glyph unicode="&#xd6;" horiz-adv-x="1380" d="M127 538q0 386 206 669.5t535 283.5q253 0 385.5 -138t132.5 -397q0 -427 -208.5 -704t-577.5 -277q-221 0 -347 156.5t-126 406.5zM340 566q0 -190 75.5 -300.5t216.5 -110.5q249 0 395.5 231t146.5 549q0 377 -324 377q-224 0 -367 -244.5t-143 -501.5zM538 1701 q0 47 33 79.5t80 32.5t79.5 -32.5t32.5 -79.5t-33 -80t-79 -33q-47 0 -80 33t-33 80zM1011 1701q0 47 32.5 79.5t79.5 32.5t80 -32.5t33 -79.5t-33 -80t-80 -33t-79.5 33t-32.5 80z" />
<glyph unicode="&#xd7;" d="M123 949l100 100l321 -321l317 317l100 -99l-317 -317l314 -315l-100 -100l-314 315l-317 -317l-100 99l317 317z" />
<glyph unicode="&#xd8;" horiz-adv-x="1380" d="M-2 -20l203 230q-74 140 -74 328q0 386 206 669.5t535 283.5q233 0 365 -118l104 118h200l-211 -241q60 -120 60 -294q0 -428 -209 -704.5t-577 -276.5q-180 0 -300 107l-89 -102h-213zM340 566q0 -97 21 -176l734 827q-81 95 -245 95q-224 0 -367 -244.5t-143 -501.5z M437 238q74 -83 195 -83q249 0 395.5 231t146.5 549q0 72 -11 130z" />
<glyph unicode="&#xd9;" horiz-adv-x="1328" d="M134 335q0 53 10 112l180 1018h210l-180 -1003q-6 -33 -6 -63q0 -113 68.5 -178.5t186.5 -65.5q146 0 242 83t122 229l179 998h206l-180 -1019q-39 -222 -199.5 -346.5t-399.5 -124.5q-203 0 -321 99t-118 261zM695 1918h197l59 -333h-100z" />
<glyph unicode="&#xda;" horiz-adv-x="1328" d="M134 335q0 53 10 112l180 1018h210l-180 -1003q-6 -33 -6 -63q0 -113 68.5 -178.5t186.5 -65.5q146 0 242 83t122 229l179 998h206l-180 -1019q-39 -222 -199.5 -346.5t-399.5 -124.5q-203 0 -321 99t-118 261zM751 1585l169 333h197l-226 -333h-140z" />
<glyph unicode="&#xdb;" horiz-adv-x="1328" d="M134 335q0 53 10 112l180 1018h210l-180 -1003q-6 -33 -6 -63q0 -113 68.5 -178.5t186.5 -65.5q146 0 242 83t122 229l179 998h206l-180 -1019q-39 -222 -199.5 -346.5t-399.5 -124.5q-203 0 -321 99t-118 261zM507 1582l361 341h107l242 -341h-197l-130 192l-211 -192 h-172z" />
<glyph unicode="&#xdc;" horiz-adv-x="1328" d="M134 335q0 53 10 112l180 1018h210l-180 -1003q-6 -33 -6 -63q0 -113 68.5 -178.5t186.5 -65.5q146 0 242 83t122 229l179 998h206l-180 -1019q-39 -222 -199.5 -346.5t-399.5 -124.5q-203 0 -321 99t-118 261zM477 1701q0 47 33 79.5t80 32.5t79.5 -32.5t32.5 -79.5 t-33 -80t-79 -33q-47 0 -80 33t-33 80zM950 1701q0 47 32.5 79.5t79.5 32.5t80 -32.5t33 -79.5t-33 -80t-80 -33t-79.5 33t-32.5 80z" />
<glyph unicode="&#xdd;" horiz-adv-x="1168" d="M182 1465h209l249 -625l461 625h226l-613 -809l-116 -656h-200l116 656zM646 1525l169 333h197l-226 -333h-140z" />
<glyph unicode="&#xde;" horiz-adv-x="1113" d="M50 0l258 1465h201l-33 -190q77 14 155 14q224 0 355.5 -108.5t131.5 -306.5q0 -584 -596 -584q-106 0 -216 24l-55 -314h-201zM338 494q92 -31 188 -31q180 0 280 102t100 283q0 268 -294 268q-79 0 -168 -21z" />
<glyph unicode="&#xdf;" horiz-adv-x="1119" d="M-125 -291q175 48 215 286l203 1164q28 115 90 195.5t139.5 118t169.5 37.5q152 0 239 -58.5t87 -168.5q0 -67 -28 -132.5t-92 -133t-64 -82.5q0 -21 79 -67q166 -96 166 -317q0 -235 -130.5 -403t-337.5 -168q-75 0 -136 23l62 151q45 -9 55 -9q129 0 205.5 102.5 t76.5 255.5q0 57 -20 104.5t-48 74t-113 104.5q-63 60 -63 121q0 42 52 84.5t83.5 70.5t50 71t18.5 95q0 112 -146 112q-81 0 -138 -62.5t-92 -261.5l-199 -1127q-22 -123 -127.5 -204.5t-243.5 -95.5z" />
<glyph unicode="&#xe0;" horiz-adv-x="1076" d="M62 342q0 294 173.5 521.5t446.5 227.5q258 0 370 -87l-131 -623q-8 -38 -8 -92q0 -156 49 -289h-194q-16 32 -34 108q-47 -57 -140 -92.5t-197 -35.5q-158 0 -246.5 93.5t-88.5 268.5zM262 348q0 -213 190 -213q99 0 186 102.5t121 262.5l83 393q-27 43 -182 43 q-158 0 -278 -168t-120 -420zM501 1558h197l59 -333h-100z" />
<glyph unicode="&#xe1;" horiz-adv-x="1076" d="M62 342q0 294 173.5 521.5t446.5 227.5q258 0 370 -87l-131 -623q-8 -38 -8 -92q0 -156 49 -289h-194q-16 32 -34 108q-47 -57 -140 -92.5t-197 -35.5q-158 0 -246.5 93.5t-88.5 268.5zM262 348q0 -213 190 -213q99 0 186 102.5t121 262.5l83 393q-27 43 -182 43 q-158 0 -278 -168t-120 -420zM642 1225l169 333h197l-226 -333h-140z" />
<glyph unicode="&#xe2;" horiz-adv-x="1076" d="M62 342q0 294 173.5 521.5t446.5 227.5q258 0 370 -87l-131 -623q-8 -38 -8 -92q0 -156 49 -289h-194q-16 32 -34 108q-47 -57 -140 -92.5t-197 -35.5q-158 0 -246.5 93.5t-88.5 268.5zM262 348q0 -213 190 -213q99 0 186 102.5t121 262.5l83 393q-27 43 -182 43 q-158 0 -278 -168t-120 -420zM355 1222l361 341h107l242 -341h-197l-130 192l-211 -192h-172z" />
<glyph unicode="&#xe3;" horiz-adv-x="1076" d="M62 342q0 294 173.5 521.5t446.5 227.5q258 0 370 -87l-131 -623q-8 -38 -8 -92q0 -156 49 -289h-194q-16 32 -34 108q-47 -57 -140 -92.5t-197 -35.5q-158 0 -246.5 93.5t-88.5 268.5zM262 348q0 -213 190 -213q99 0 186 102.5t121 262.5l83 393q-27 43 -182 43 q-158 0 -278 -168t-120 -420zM412 1225q30 84 91.5 145.5t129.5 61.5q76 0 143 -38.5t99 -38.5q82 0 122 77h88q-90 -207 -229 -207q-60 0 -130 38.5t-101 38.5q-71 0 -122 -77h-91z" />
<glyph unicode="&#xe4;" horiz-adv-x="1076" d="M62 342q0 294 173.5 521.5t446.5 227.5q258 0 370 -87l-131 -623q-8 -38 -8 -92q0 -156 49 -289h-194q-16 32 -34 108q-47 -57 -140 -92.5t-197 -35.5q-158 0 -246.5 93.5t-88.5 268.5zM262 348q0 -213 190 -213q99 0 186 102.5t121 262.5l83 393q-27 43 -182 43 q-158 0 -278 -168t-120 -420zM382 1341q0 47 33 79.5t80 32.5t79.5 -32.5t32.5 -79.5t-33 -80t-79 -33q-47 0 -80 33t-33 80zM855 1341q0 47 32.5 79.5t79.5 32.5t80 -32.5t33 -79.5t-33 -80t-80 -33t-79.5 33t-32.5 80z" />
<glyph unicode="&#xe5;" horiz-adv-x="1076" d="M62 342q0 294 173.5 521.5t446.5 227.5q258 0 370 -87l-131 -623q-8 -38 -8 -92q0 -156 49 -289h-194q-16 32 -34 108q-47 -57 -140 -92.5t-197 -35.5q-158 0 -246.5 93.5t-88.5 268.5zM262 348q0 -213 190 -213q99 0 186 102.5t121 262.5l83 393q-27 43 -182 43 q-158 0 -278 -168t-120 -420zM547 1400q0 71 68 124t154 53q92 0 157 -49.5t65 -127.5q0 -81 -61.5 -129.5t-160.5 -48.5q-100 0 -161 47t-61 131zM635 1400q0 -90 134 -90q56 0 95.5 24t39.5 66q0 40 -40.5 64.5t-94.5 24.5q-53 0 -93.5 -25.5t-40.5 -63.5z" />
<glyph unicode="&#xe6;" horiz-adv-x="1730" d="M62 342q0 294 173.5 521.5t446.5 227.5q209 0 340 -41l-11 -71q154 112 354 112q159 0 254 -68.5t95 -193.5q0 -175 -148 -276t-364 -101q-143 0 -243 54q-8 -48 -8 -92q0 -132 74 -203t207 -71q118 0 238 87l-21 -194q-160 -53 -282 -53q-165 0 -267 120q-4 -59 -9 -100 l-188 -1q2 40 21 154q-43 -77 -133 -125t-194 -48q-158 0 -246.5 93.5t-88.5 268.5zM262 348q0 -213 180 -213q217 -2 317 364l70 405q-88 32 -169 32q-171 0 -284.5 -172t-113.5 -416zM992 644q77 -34 179 -34q148 0 251 54.5t103 153.5q0 113 -210 113q-101 0 -190 -83.5 t-133 -203.5z" />
<glyph unicode="&#xe7;" horiz-adv-x="942" d="M90 395q0 306 168 501t428 195q154 0 242 -54l-35 -163q-72 57 -193 57q-184 0 -297.5 -145.5t-113.5 -357.5q0 -130 73.5 -207.5t167.5 -77.5q145 0 278 89l-21 -194q-131 -58 -287 -58q-198 0 -304 113.5t-106 301.5zM348 -356q88 0 147 32t59 90t-79 58l21 120 q87 0 133.5 -44t46.5 -117q0 -112 -91.5 -175t-228.5 -63z" />
<glyph unicode="&#xe8;" horiz-adv-x="1100" d="M104 444q0 273 174 460t438 187q159 0 254 -68t95 -194q0 -175 -148 -276t-363 -101q-144 0 -243 54q-9 -48 -9 -92q0 -132 74 -203t207 -71q118 0 238 87l-20 -194q-160 -53 -283 -53q-414 0 -414 464zM344 644q76 -34 179 -34q156 0 255 50.5t99 147.5q0 123 -170 123 q-259 0 -363 -287zM545 1558h197l59 -333h-100z" />
<glyph unicode="&#xe9;" horiz-adv-x="1100" d="M104 444q0 273 174 460t438 187q159 0 254 -68t95 -194q0 -175 -148 -276t-363 -101q-144 0 -243 54q-9 -48 -9 -92q0 -132 74 -203t207 -71q118 0 238 87l-20 -194q-160 -53 -283 -53q-414 0 -414 464zM344 644q76 -34 179 -34q156 0 255 50.5t99 147.5q0 123 -170 123 q-259 0 -363 -287zM621 1225l169 333h197l-226 -333h-140z" />
<glyph unicode="&#xea;" horiz-adv-x="1100" d="M104 444q0 273 174 460t438 187q159 0 254 -68t95 -194q0 -175 -148 -276t-363 -101q-144 0 -243 54q-9 -48 -9 -92q0 -132 74 -203t207 -71q118 0 238 87l-20 -194q-160 -53 -283 -53q-414 0 -414 464zM344 644q76 -34 179 -34q156 0 255 50.5t99 147.5q0 123 -170 123 q-259 0 -363 -287zM347 1222l361 341h107l242 -341h-197l-130 192l-211 -192h-172z" />
<glyph unicode="&#xeb;" horiz-adv-x="1100" d="M104 444q0 273 174 460t438 187q159 0 254 -68t95 -194q0 -175 -148 -276t-363 -101q-144 0 -243 54q-9 -48 -9 -92q0 -132 74 -203t207 -71q118 0 238 87l-20 -194q-160 -53 -283 -53q-414 0 -414 464zM344 644q76 -34 179 -34q156 0 255 50.5t99 147.5q0 123 -170 123 q-259 0 -363 -287zM377 1341q0 47 33 79.5t80 32.5t79.5 -32.5t32.5 -79.5t-33 -80t-79 -33q-47 0 -80 33t-33 80zM850 1341q0 47 32.5 79.5t79.5 32.5t80 -32.5t33 -79.5t-33 -80t-80 -33t-79.5 33t-32.5 80z" />
<glyph unicode="&#xec;" horiz-adv-x="628" d="M138 0l162 911h-142l35 157h327l-189 -1068h-193zM204 1558h197l59 -333h-100z" />
<glyph unicode="&#xed;" horiz-adv-x="628" d="M138 0l162 911h-142l35 157h327l-189 -1068h-193zM247 1225l169 333h197l-226 -333h-140z" />
<glyph unicode="&#xee;" horiz-adv-x="628" d="M138 1222l361 341h107l242 -341h-197l-130 192l-211 -192h-172zM238 0l162 911h-142l35 157h327l-189 -1068h-193z" />
<glyph unicode="&#xef;" horiz-adv-x="628" d="M138 0l162 911h-142l35 157h327l-189 -1068h-193zM138 1341q0 47 33 79.5t80 32.5t79.5 -32.5t32.5 -79.5t-33 -80t-79 -33q-47 0 -80 33t-33 80zM611 1341q0 47 32.5 79.5t79.5 32.5t80 -32.5t33 -79.5t-33 -80t-80 -33t-79.5 33t-32.5 80z" />
<glyph unicode="&#xf0;" horiz-adv-x="1125" d="M61 395q0 307 167 501.5t439 194.5q34 0 142 -30q-34 88 -92 195l-178 -90l-43 86l174 84q-28 43 -137 176l205 38q36 -43 102 -132l174 88l51 -71l-179 -96q76 -127 126.5 -300.5t50.5 -328.5q0 -326 -160 -528t-442 -202q-194 0 -297 110t-103 305zM252 406 q0 -256 239 -256q169 0 268 150t99 366q0 255 -221 255q-173 0 -279 -154t-106 -361z" />
<glyph unicode="&#xf1;" horiz-adv-x="1119" d="M78 0l144 812q5 28 5 66q0 102 -21 177l184 36q27 -146 26 -159q122 159 352 159q290 0 290 -296q0 -59 -13 -132l-115 -663h-202l112 623q15 83 15 138q0 170 -177 170q-68 0 -145.5 -40t-123.5 -95l-139 -796h-192zM369 1225q30 84 91.5 145.5t129.5 61.5 q76 0 143 -38.5t99 -38.5q82 0 122 77h88q-90 -207 -229 -207q-60 0 -130 38.5t-101 38.5q-71 0 -122 -77h-91z" />
<glyph unicode="&#xf2;" horiz-adv-x="1099" d="M73 394q0 287 168 492t427 205q195 0 298 -105.5t103 -299.5q0 -154 -61.5 -320t-201 -276t-334.5 -110q-193 0 -296 108.5t-103 305.5zM273 406q0 -271 227 -271q169 0 268.5 164t99.5 379q0 258 -227 258q-115 0 -202.5 -82t-126.5 -210t-39 -238zM505 1558h197 l59 -333h-100z" />
<glyph unicode="&#xf3;" horiz-adv-x="1099" d="M73 394q0 287 168 492t427 205q195 0 298 -105.5t103 -299.5q0 -154 -61.5 -320t-201 -276t-334.5 -110q-193 0 -296 108.5t-103 305.5zM273 406q0 -271 227 -271q169 0 268.5 164t99.5 379q0 258 -227 258q-115 0 -202.5 -82t-126.5 -210t-39 -238zM551 1225l169 333 h197l-226 -333h-140z" />
<glyph unicode="&#xf4;" horiz-adv-x="1099" d="M73 394q0 287 168 492t427 205q195 0 298 -105.5t103 -299.5q0 -154 -61.5 -320t-201 -276t-334.5 -110q-193 0 -296 108.5t-103 305.5zM273 406q0 -271 227 -271q169 0 268.5 164t99.5 379q0 258 -227 258q-115 0 -202.5 -82t-126.5 -210t-39 -238zM297 1222l361 341 h107l242 -341h-197l-130 192l-211 -192h-172z" />
<glyph unicode="&#xf5;" horiz-adv-x="1099" d="M73 394q0 287 168 492t427 205q195 0 298 -105.5t103 -299.5q0 -154 -61.5 -320t-201 -276t-334.5 -110q-193 0 -296 108.5t-103 305.5zM273 406q0 -271 227 -271q169 0 268.5 164t99.5 379q0 258 -227 258q-115 0 -202.5 -82t-126.5 -210t-39 -238zM349 1225 q30 84 91.5 145.5t129.5 61.5q76 0 143 -38.5t99 -38.5q82 0 122 77h88q-90 -207 -229 -207q-60 0 -130 38.5t-101 38.5q-71 0 -122 -77h-91z" />
<glyph unicode="&#xf6;" horiz-adv-x="1099" d="M73 394q0 287 168 492t427 205q195 0 298 -105.5t103 -299.5q0 -154 -61.5 -320t-201 -276t-334.5 -110q-193 0 -296 108.5t-103 305.5zM273 406q0 -271 227 -271q169 0 268.5 164t99.5 379q0 258 -227 258q-115 0 -202.5 -82t-126.5 -210t-39 -238zM357 1341 q0 47 33 79.5t80 32.5t79.5 -32.5t32.5 -79.5t-33 -80t-79 -33q-47 0 -80 33t-33 80zM830 1341q0 47 32.5 79.5t79.5 32.5t80 -32.5t33 -79.5t-33 -80t-80 -33t-79.5 33t-32.5 80z" />
<glyph unicode="&#xf7;" d="M160 564v141h838v-141h-838zM432 250q0 62 44 106t106 44q63 0 106.5 -44t43.5 -106t-43.5 -106.5t-106.5 -44.5q-62 0 -106 44.5t-44 106.5zM432 1000q0 62 44 106t106 44q63 0 106.5 -44t43.5 -106t-43.5 -106.5t-106.5 -44.5q-62 0 -106 44.5t-44 106.5z" />
<glyph unicode="&#xf8;" horiz-adv-x="1099" d="M-56 -20l179 184q-50 95 -50 230q0 287 168 492t427 205q173 0 274 -84l81 84h168l-172 -179q50 -93 50 -226q0 -154 -61.5 -320t-201 -276t-334.5 -110q-166 0 -267 82l-79 -82h-182zM273 407q0 -44 7 -81l530 546q-57 64 -169 64q-115 0 -202.5 -82t-126.5 -209.5 t-39 -237.5zM337 200q58 -65 163 -65q118 0 204 84t125 214.5t39 242.5q0 40 -5 73z" />
<glyph unicode="&#xf9;" horiz-adv-x="1140" d="M97 264q0 48 10 104l124 703h200l-125 -683q-8 -44 -8 -81q0 -167 174 -167q107 0 205.5 80t118.5 191l122 660h200l-196 -1071h-200l28 151q-112 -171 -388 -171q-125 0 -195 74t-70 210zM525 1558h197l59 -333h-100z" />
<glyph unicode="&#xfa;" horiz-adv-x="1140" d="M97 264q0 48 10 104l124 703h200l-125 -683q-8 -44 -8 -81q0 -167 174 -167q107 0 205.5 80t118.5 191l122 660h200l-196 -1071h-200l28 151q-112 -171 -388 -171q-125 0 -195 74t-70 210zM571 1225l169 333h197l-226 -333h-140z" />
<glyph unicode="&#xfb;" horiz-adv-x="1140" d="M97 264q0 48 10 104l124 703h200l-125 -683q-8 -44 -8 -81q0 -167 174 -167q107 0 205.5 80t118.5 191l122 660h200l-196 -1071h-200l28 151q-112 -171 -388 -171q-125 0 -195 74t-70 210zM347 1222l361 341h107l242 -341h-197l-130 192l-211 -192h-172z" />
<glyph unicode="&#xfc;" horiz-adv-x="1140" d="M97 264q0 48 10 104l124 703h200l-125 -683q-8 -44 -8 -81q0 -167 174 -167q107 0 205.5 80t118.5 191l122 660h200l-196 -1071h-200l28 151q-112 -171 -388 -171q-125 0 -195 74t-70 210zM377 1341q0 47 33 79.5t80 32.5t79.5 -32.5t32.5 -79.5t-33 -80t-79 -33 q-47 0 -80 33t-33 80zM850 1341q0 47 32.5 79.5t79.5 32.5t80 -32.5t33 -79.5t-33 -80t-80 -33t-79.5 33t-32.5 80z" />
<glyph unicode="&#xfd;" horiz-adv-x="1010" d="M31 -229q186 0 264 56t112 168q-141 0 -187 278l-134 798h207l118 -777q17 -115 82 -115l386 892h216l-537 -1199q-68 -152 -181 -222t-346 -70v191zM531 1225l169 333h197l-226 -333h-140z" />
<glyph unicode="&#xfe;" horiz-adv-x="1141" d="M-15 -425l330 1935h199l-103 -560q48 59 131.5 97.5t159.5 38.5q399 0 399 -397q0 -304 -168.5 -509t-442.5 -205q-59 0 -135.5 23t-95.5 56l-84 -479h-190zM287 211q18 -32 73 -54t103 -22q209 0 322.5 141.5t113.5 386.5q0 263 -266 263q-58 0 -134.5 -40.5 t-108.5 -84.5z" />
<glyph unicode="&#xff;" horiz-adv-x="1010" d="M31 -229q186 0 264 56t112 168q-141 0 -187 278l-134 798h207l118 -777q17 -115 82 -115l386 892h216l-537 -1199q-68 -152 -181 -222t-346 -70v191zM339 1341q0 47 33 79.5t80 32.5t79.5 -32.5t32.5 -79.5t-33 -80t-79 -33q-47 0 -80 33t-33 80zM812 1341 q0 47 32.5 79.5t79.5 32.5t80 -32.5t33 -79.5t-33 -80t-80 -33t-79.5 33t-32.5 80z" />
<glyph unicode="&#x152;" horiz-adv-x="2034" d="M50 538q0 427 212.5 690t528.5 263q270 0 402 -156l23 130h875l-32 -180h-675l-71 -407h484l-30 -170h-484l-94 -528h664l-31 -180h-864l24 138q-151 -163 -459 -163q-223 0 -348 155.5t-125 407.5zM263 566q0 -174 78 -292.5t214 -118.5q248 0 395 214.5t147 565.5 q0 376 -338 376q-207 0 -351.5 -219t-144.5 -526z" />
<glyph unicode="&#x153;" horiz-adv-x="1825" d="M56 394q0 285 167.5 491t427.5 206t354 -184q174 184 436 184q159 0 254 -68.5t95 -193.5q0 -175 -148 -276t-364 -101q-142 0 -242 54q-9 -48 -9 -92q0 -132 74.5 -203t206.5 -71q118 0 238 87l-20 -194q-159 -53 -283 -53q-267 0 -363 197q-163 -197 -425 -197 q-191 0 -295 108t-104 306zM256 406q0 -271 227 -271q168 0 268 163.5t100 379.5q0 258 -227 258q-167 0 -267.5 -161t-100.5 -369zM1069 644q77 -34 179 -34q148 0 251 54.5t103 153.5q0 113 -210 113q-100 0 -189 -81.5t-134 -205.5z" />
<glyph unicode="&#x178;" horiz-adv-x="1168" d="M182 1465h209l249 -625l461 625h226l-613 -809l-116 -656h-200l116 656zM429 1701q0 47 33 79.5t80 32.5t79.5 -32.5t32.5 -79.5t-33 -80t-79 -33q-47 0 -80 33t-33 80zM902 1701q0 47 32.5 79.5t79.5 32.5t80 -32.5t33 -79.5t-33 -80t-80 -33t-79.5 33t-32.5 80z" />
<glyph unicode="&#x2c6;" d="M297 1222l361 341h107l242 -341h-197l-130 192l-211 -192h-172z" />
<glyph unicode="&#x2dc;" d="M359 1225q30 84 91.5 145.5t129.5 61.5q76 0 143 -38.5t99 -38.5q82 0 122 77h88q-90 -207 -229 -207q-60 0 -130 38.5t-101 38.5q-71 0 -122 -77h-91z" />
<glyph unicode="&#x2000;" horiz-adv-x="961" />
<glyph unicode="&#x2001;" horiz-adv-x="1923" />
<glyph unicode="&#x2002;" horiz-adv-x="961" />
<glyph unicode="&#x2003;" horiz-adv-x="1923" />
<glyph unicode="&#x2004;" horiz-adv-x="641" />
<glyph unicode="&#x2005;" horiz-adv-x="480" />
<glyph unicode="&#x2006;" horiz-adv-x="320" />
<glyph unicode="&#x2007;" horiz-adv-x="320" />
<glyph unicode="&#x2008;" horiz-adv-x="240" />
<glyph unicode="&#x2009;" horiz-adv-x="384" />
<glyph unicode="&#x200a;" horiz-adv-x="106" />
<glyph unicode="&#x2010;" horiz-adv-x="752" d="M144 506l30 175h428l-30 -175h-428z" />
<glyph unicode="&#x2011;" horiz-adv-x="752" d="M144 506l30 175h428l-30 -175h-428z" />
<glyph unicode="&#x2012;" horiz-adv-x="752" d="M144 506l30 175h428l-30 -175h-428z" />
<glyph unicode="&#x2013;" horiz-adv-x="752" d="M85 532l22 132h522l-23 -132h-521z" />
<glyph unicode="&#x2014;" horiz-adv-x="1504" d="M85 532l21 132h1308l-20 -132h-1309z" />
<glyph unicode="&#x2018;" horiz-adv-x="752" d="M318 1047q0 15 1 31q24 265 303 432l59 -89l-80 -64q-59 -47 -65 -115q-4 -41 40.5 -95t40.5 -99q-13 -147 -158 -147q-141 0 -141 146z" />
<glyph unicode="&#x2019;" horiz-adv-x="752" d="M303 990l81 64q59 47 65 115q3 41 -41 95t-40 99q12 147 157 147q141 0 141 -146q0 -15 -1 -31q-23 -265 -303 -432z" />
<glyph unicode="&#x201a;" horiz-adv-x="752" d="M120 -243l81 64q59 47 65 115q3 41 -41 95t-40 99q12 147 157 147q141 0 141 -145q0 -16 -1 -32q-23 -265 -303 -432z" />
<glyph unicode="&#x201c;" d="M261 1048q0 14 1 30q24 265 303 432l59 -89l-80 -64q-59 -47 -65 -115q-4 -41 40.5 -95t40.5 -99q-13 -147 -158 -147q-141 0 -141 147zM720 1047q0 15 1 31q24 265 303 432l59 -89l-80 -64q-59 -47 -65 -115q-4 -41 40.5 -95t40.5 -99q-13 -147 -158 -147 q-141 0 -141 146z" />
<glyph unicode="&#x201d;" d="M255 990l81 64q59 47 65 115q3 41 -41 95t-40 99q12 147 157 147q141 0 141 -146q0 -15 -1 -31q-23 -265 -303 -432zM714 990l81 64q59 47 65 115q3 41 -41 95t-40 99q12 147 157 147q141 0 141 -146q0 -15 -1 -31q-23 -265 -303 -432z" />
<glyph unicode="&#x201e;" d="M70 -243l81 64q59 47 65 115q3 41 -41 95t-40 99q13 147 158 147q141 0 141 -147q0 -14 -2 -30q-23 -265 -303 -432zM530 -243l81 64q59 47 65 115q3 41 -41 95t-40 99q13 147 158 147q141 0 141 -147q0 -14 -2 -30q-23 -265 -303 -432z" />
<glyph unicode="&#x2022;" d="M253 574q0 120 84.5 204.5t204.5 84.5t204.5 -84.5t84.5 -204.5t-84.5 -204.5t-204.5 -84.5t-204.5 84.5t-84.5 204.5z" />
<glyph unicode="&#x2026;" horiz-adv-x="1504" d="M100 131q0 62 44 106t106 44t106 -44t44 -106t-44 -106.5t-106 -44.5t-106 44.5t-44 106.5zM602 131q0 62 44 106t106 44t106 -44t44 -106t-44 -106.5t-106 -44.5t-106 44.5t-44 106.5zM1104 131q0 62 44 106t106 44t106 -44t44 -106t-44 -106.5t-106 -44.5t-106 44.5 t-44 106.5z" />
<glyph unicode="&#x202f;" horiz-adv-x="384" />
<glyph unicode="&#x2039;" horiz-adv-x="752" d="M165 535l11 64l398 244l-22 -125l-240 -157l188 -138l-22 -125z" />
<glyph unicode="&#x203a;" horiz-adv-x="752" d="M163 298l22 125l236 138l-184 157l22 125l312 -244l-11 -64z" />
<glyph unicode="&#x205f;" horiz-adv-x="480" />
<glyph unicode="&#x20ac;" d="M93 516v151h132q6 63 17 120h-149v150h187q64 232 216 375q168 158 400 158q151 0 291 -70l-95 -174q-85 65 -207 65q-134 0 -247 -124q-93 -102 -131 -230h426l-41 -150h-431q-14 -60 -21 -120h414l-40 -151h-380q0 -360 282 -360q142 0 287 147v-214 q-108 -114 -332 -114q-227 0 -347 162q-106 145 -106 379h-125z" />
<glyph unicode="&#x2122;" horiz-adv-x="1300" d="M191 1381v90h527v-90h-219v-643h-100v643h-208zM638 739l112 732h75l169 -567l167 567h75l113 -732h-95l-83 498l-147 -503h-59l-155 510l-77 -505h-95z" />
<glyph unicode="&#x25fc;" horiz-adv-x="1070" d="M0 0v1070h1070v-1070h-1070z" />
<glyph unicode="&#xfb01;" horiz-adv-x="1303" d="M-42 -291q60 12 123 81t76 140l177 1010h-151l22 131h147q88 439 441 439q84 0 142 -30l-36 -148q-76 28 -118 28q-180 0 -231 -289h662l-184 -1071h-193l163 940h-467l-169 -1010q-24 -142 -130 -230.5t-257 -107.5zM1009 1358q0 56 39 94.5t94 38.5t94 -38.5t39 -94.5 q0 -55 -39 -93.5t-94 -38.5t-94 38.5t-39 93.5z" />
<glyph unicode="&#xfb02;" horiz-adv-x="1377" d="M-42 -291q60 12 123 81t76 140l177 1010h-151l22 131h147q42 214 161.5 326.5t299.5 112.5q78 0 155.5 -30.5t111.5 -71.5l15 102h201l-187 -912q-56 -273 -56 -306q0 -98 32.5 -135t109.5 -37l-22 -140q-320 0 -320 238q0 71 49 321l140 707q-30 50 -97 82t-144 32 q-94 0 -160.5 -78t-90.5 -211h248l-16 -131h-251l-169 -1010q-24 -142 -130 -230.5t-257 -107.5z" />
</font>
</defs>
</svg>
