<?xml version="1.0" encoding="utf-8"?>
<!-- Generator: Adobe Illustrator 18.1.1, SVG Export Plug-In . SVG Version: 6.00 Build 0)  -->
<svg version="1.1" id="Layer_1" xmlns="http://www.w3.org/2000/svg" xmlns:xlink="http://www.w3.org/1999/xlink" x="0px" y="0px"
	 viewBox="386 0 216 216" enable-background="new 386 0 216 216" xml:space="preserve">
<rect x="386" fill="none" width="216" height="216"/>
<path fill="#FFFFFF" d="M537.9,65.3C529.1,55.4,517,51,505,51c-12.1,0-24.1,4.4-32.9,13.2c-15.3,15.3-17.5,40.5-5.5,59.2l-28.5,28.5
	c-1.1,1.1-1.1,1.1-1.1,2.2c0,1.1,0,2.2,1.1,2.2l7.7,7.7c1.1,1.1,1.1,1.1,2.2,1.1s2.2,0,2.2-1.1l28.5-28.5c7.7,5.5,17.5,8.8,26.3,8.8
	c12.1,0,24.1-4.4,32.9-13.2c8.8-8.8,13.2-20.8,13.2-32.9S546.6,74,537.9,65.3z M505,67.5c7.7,0,15.3,3.3,20.8,8.8
	c12.1,12.1,12.1,30.7,0,41.6c-5.5,5.5-13.2,8.8-20.8,8.8s-15.3-3.3-20.8-8.8c-11-11-11-29.6,0-41.6C489.6,70.7,497.3,67.5,505,67.5z
	"/>
</svg>
