<?xml version="1.0" encoding="utf-8"?>
<!-- Generator: Adobe Illustrator 18.1.1, SVG Export Plug-In . SVG Version: 6.00 Build 0)  -->
<svg version="1.1" id="Layer_1" xmlns="http://www.w3.org/2000/svg" xmlns:xlink="http://www.w3.org/1999/xlink" x="0px" y="0px"
	 viewBox="0 0 36 36" enable-background="new 0 0 36 36" xml:space="preserve">
<g>
	<circle fill="#FFFFFF" cx="18" cy="18" r="18"/>
	<circle fill="#DD4B38" cx="18" cy="18" r="14.8"/>
	<path fill="#FFFFFF" d="M19.2,19.8l-0.7-0.6C18.2,19,18,18.8,18,18.4c0-0.4,0.3-0.7,0.6-1c0.8-0.7,1.7-1.3,1.7-2.8
		c0-1.5-0.9-2.3-1.4-2.7H20l1.3-0.8h-3.9c-1.1,0-2.6,0.3-3.7,1.2c-0.9,0.7-1.3,1.7-1.3,2.7c0,1.5,1.2,3.1,3.3,3.1c0.2,0,0.4,0,0.6,0
		c-0.1,0.2-0.2,0.4-0.2,0.8c0,0.6,0.3,1,0.6,1.3c-0.9,0.1-2.6,0.2-3.8,0.9c-1.2,0.7-1.5,1.7-1.5,2.4c0,1.5,1.4,2.8,4.3,2.8
		c3.4,0,5.2-1.9,5.2-3.7C20.8,21.2,20,20.5,19.2,19.8z M16.6,17.5c-1.7,0-2.5-2.2-2.5-3.5c0-0.5,0.1-1.1,0.4-1.5
		c0.3-0.4,0.9-0.7,1.4-0.7c1.6,0,2.5,2.2,2.5,3.6c0,0.4,0,1-0.5,1.4C17.6,17.3,17.1,17.5,16.6,17.5z M16.6,25.5
		c-2.1,0-3.5-1-3.5-2.4c0-1.4,1.3-1.9,1.7-2c0.8-0.3,1.9-0.3,2.1-0.3c0.2,0,0.3,0,0.5,0c1.5,1.1,2.2,1.6,2.2,2.6
		C19.5,24.6,18.5,25.5,16.6,25.5z"/>
	<polygon fill="#FFFFFF" points="24.2,17.5 24.2,15.5 23.2,15.5 23.2,17.5 21.2,17.5 21.2,18.5 23.2,18.5 23.2,20.5 24.2,20.5 
		24.2,18.5 26.2,18.5 26.2,17.5 	"/>
</g>
</svg>
