<?xml version="1.0" encoding="utf-8"?>
<!-- Generator: Adobe Illustrator 18.1.1, SVG Export Plug-In . SVG Version: 6.00 Build 0)  -->
<svg version="1.1" id="Layer_1" xmlns="http://www.w3.org/2000/svg" xmlns:xlink="http://www.w3.org/1999/xlink" x="0px" y="0px"
	 viewBox="0 0 36 36" enable-background="new 0 0 36 36" xml:space="preserve">
<g>
	<circle fill="#FFFFFF" cx="18" cy="18" r="18"/>
	<g>
		<defs>
			<circle id="SVGID_1_" cx="18" cy="18" r="14.8"/>
		</defs>
		<clipPath id="SVGID_2_">
			<use xlink:href="#SVGID_1_"  overflow="visible"/>
		</clipPath>
		<path clip-path="url(#SVGID_2_)" fill="#027BB6" d="M12.1,3.5c-2.2,0-9.9,0.8-9.9,2.9v17.2c0,2.2,2.8,9.9,4.9,9.9h22.2
			c2.2,0,3.9-7.8,3.9-9.9V11.5c0-2.2-1.8-8.9-3.9-8.9H12.1V3.5z M13,10.8c1,0,1.7,0.7,1.7,1.6c0,0.9-0.7,1.6-1.7,1.6h0
			c-1,0-1.7-0.7-1.7-1.6C11.3,11.5,12,10.8,13,10.8L13,10.8z M22,15c2,0,3.5,1.3,3.5,4.1v5.2h-3v-4.9c0-1.2-0.4-2.1-1.5-2.1
			c-0.8,0-1.3,0.6-1.6,1.1c-0.1,0.2-0.1,0.5-0.1,0.7v5.1h-3c0,0,0-8.2,0-9.1h3v1.3C19.6,15.9,20.4,15,22,15L22,15z M11.5,15.2h3v9.1
			h-3V15.2z"/>
	</g>
</g>
</svg>
