<?xml version="1.0" encoding="utf-8"?>
<!-- Generator: Adobe Illustrator 18.1.1, SVG Export Plug-In . SVG Version: 6.00 Build 0)  -->
<svg version="1.1" id="Layer_1" xmlns="http://www.w3.org/2000/svg" xmlns:xlink="http://www.w3.org/1999/xlink" x="0px" y="0px"
	 viewBox="0 0 36 36" enable-background="new 0 0 36 36" xml:space="preserve">
<g>
	<circle fill="#FFFFFF" cx="18" cy="18" r="18"/>
	<g>
		<defs>
			<circle id="SVGID_3_" cx="18" cy="18" r="14.8"/>
		</defs>
		<clipPath id="SVGID_2_">
			<use xlink:href="#SVGID_3_"  overflow="visible"/>
		</clipPath>
		<path clip-path="url(#SVGID_2_)" fill="#F26722" d="M18,9.6L18,9.6c-4.7,0-8.4,3.8-8.4,8.4c0,4.6,3.8,8.4,8.4,8.4h0
			c4.6,0,8.4-3.7,8.4-8.4c0-2.3-0.9-4.4-2.5-6C22.4,10.5,20.3,9.6,18,9.6z M16.8,17.2c-0.1-0.1-0.3-0.1-0.4-0.2
			c-0.3-0.1-0.6-0.3-0.9-0.3c-0.1,0-0.2-0.1-0.3-0.1c-0.2,0-0.4-0.1-0.6-0.1c-0.2,0.2-0.9,0.9-1.1,2.2c0.1-0.2,0.4-0.3,0.6-0.3
			c0.4,0,0.7,0.3,0.7,0.7c0,0.4-0.3,0.7-0.6,0.7c0.3,0.1,0.6,0.4,0.6,0.7c0,0.4-0.3,0.7-0.7,0.7c-0.4,0-0.6-0.2-0.7-0.6
			c-0.1,0.3-0.4,0.6-0.7,0.6c-0.4,0-0.7-0.3-0.7-0.7c0-0.4,0.3-0.7,0.6-0.7c-0.3-0.1-0.6-0.4-0.6-0.7c0-0.4,0.3-0.7,0.7-0.7
			c0.3,0,0.5,0.2,0.7,0.4c0-0.1,0.1-1.5,0.8-2.3c-0.8,0-1.6,0.1-2.3,0.5l0,0l0-0.1c0-1.2,1.2-2.3,2.6-2.3
			C15.6,14.7,16.8,15.8,16.8,17.2L16.8,17.2L16.8,17.2z M24.5,17L24.5,17c-0.8-0.3-1.6-0.5-2.4-0.5c-0.9,0-1.9,0.2-2.8,0.7l0,0l0,0
			c-0.1-0.5,0.1-1,0.4-1.5c0.5-0.6,1.1-1,1.8-1.1c0.1,0,0.2,0,0.3,0C23.2,14.6,24.3,15.7,24.5,17L24.5,17z"/>
		<circle clip-path="url(#SVGID_2_)" fill="#F26722" cx="13.2" cy="19.9" r="0.3"/>
		<path clip-path="url(#SVGID_2_)" fill="#F26722" d="M18,3.2C9.8,3.2,3.2,9.8,3.2,18S9.8,32.8,18,32.8S32.8,26.2,32.8,18
			S26.2,3.2,18,3.2z M25.3,25.3c-1.9,1.9-4.5,3-7.3,3h0c-2.8,0-5.4-1.1-7.3-3c-1.9-2-3-4.5-3-7.3c0-2.8,1.1-5.4,3-7.3
			c2-1.9,4.6-3,7.4-3h0c2.7,0,5.3,1.1,7.2,3.1c1.9,2,3,4.5,3,7.3C28.3,20.8,27.3,23.4,25.3,25.3z"/>
	</g>
</g>
</svg>
