<?xml version="1.0" encoding="utf-8"?>
<!-- Generator: Adobe Illustrator 18.1.1, SVG Export Plug-In . SVG Version: 6.00 Build 0)  -->
<svg version="1.1" id="Layer_1" xmlns="http://www.w3.org/2000/svg" xmlns:xlink="http://www.w3.org/1999/xlink" x="0px" y="0px"
	 viewBox="0 0 36 36" enable-background="new 0 0 36 36" xml:space="preserve">
<g>
	<circle fill="#FFFFFF" cx="18" cy="18" r="18"/>
	<circle fill="#7BB342" cx="18" cy="18" r="14.8"/>
	<path fill="#FFFFFF" d="M13.9,10.2c-5.7,1-7.5,7.4-3,10.4c0.2,0.1,0.2,0.1-0.1,1.3l-0.4,0.9l1.2-0.6l1.1-0.6l0.6,0.1
		c0.7,0.1,1.5,0.3,2,0.3h0.3l-0.1-0.5c-0.9-3.2,2.2-6.5,6.2-6.5h0.5l-0.1-0.4C21.3,11.5,17.6,9.6,13.9,10.2z M13.4,13
		c0.6,0.4,0.6,1.3,0.1,1.7c-0.9,0.6-2-0.5-1.4-1.4C12.4,12.9,13,12.8,13.4,13z M18.3,13c1,0.7,0.2,2.3-0.9,1.8
		c-0.8-0.4-0.8-1.4-0.1-1.8C17.5,12.9,18,12.9,18.3,13z M20.5,15.5c-2.8,0.5-4.8,2.6-4.7,5.1c0.1,3.3,3.9,5.6,7.7,4.6L24,25l0.9,0.5
		c0.5,0.3,0.9,0.5,0.9,0.4c0.1,0-0.1-0.4-0.2-0.8c-0.3-0.9-0.3-0.8,0.1-1.1C30.2,20.8,26.2,14.4,20.5,15.5z M20.4,18.1
		c0.3,0.2,0.4,0.6,0.3,0.9c-0.2,0.6-1.2,0.7-1.5,0.1C18.9,18.4,19.7,17.7,20.4,18.1z M24.3,18.2c0.4,0.4,0.4,1-0.1,1.2
		c-0.7,0.4-1.4-0.4-1.1-1.1C23.3,17.9,24,17.9,24.3,18.2z"/>
</g>
</svg>
