<?xml version="1.0" encoding="utf-8"?>
<!-- Generator: Adobe Illustrator 18.1.1, SVG Export Plug-In . SVG Version: 6.00 Build 0)  -->
<svg version="1.1" id="Layer_1" xmlns="http://www.w3.org/2000/svg" xmlns:xlink="http://www.w3.org/1999/xlink" x="0px" y="0px"
	 viewBox="0 0 36 36" enable-background="new 0 0 36 36" xml:space="preserve">
<g>
	<circle fill="#FFFFFF" cx="18" cy="18" r="18"/>
	<circle fill="#E41F2F" cx="18" cy="18" r="14.8"/>
	<path fill="#FFFFFF" d="M16.5,24.5c-3.1,0.3-5.8-1.1-6-3.1c-0.2-2,2.2-4,5.3-4.3c3.1-0.3,5.8,1.1,6,3.1
		C22,22.3,19.6,24.2,16.5,24.5 M22.7,17.7c-0.3-0.1-0.4-0.1-0.3-0.5c0.3-0.8,0.3-1.4,0-1.9c-0.6-0.9-2.3-0.8-4.2,0
		c0,0-0.6,0.3-0.4-0.2c0.3-0.9,0.2-1.7-0.2-2.2c-1-1-3.8,0-6.2,2.4c-1.8,1.8-2.8,3.7-2.8,5.3c0,3.1,4,5,7.9,5c5.1,0,8.5-3,8.5-5.3
		C25,18.9,23.8,18.1,22.7,17.7"/>
	<path fill="#FFFFFF" d="M26.1,12c-1.2-1.4-3.1-1.9-4.7-1.5c-0.4,0.1-0.6,0.5-0.6,0.9c0.1,0.4,0.5,0.6,0.9,0.6
		c1.2-0.3,2.5,0.1,3.4,1.1s1.1,2.3,0.7,3.5c-0.1,0.4,0.1,0.8,0.5,0.9c0.4,0.1,0.8-0.1,0.9-0.5v0C27.7,15.3,27.4,13.4,26.1,12"/>
	<path fill="#FFFFFF" d="M24.2,13.7c-0.6-0.7-1.5-0.9-2.3-0.7c-0.3,0.1-0.5,0.4-0.5,0.7c0.1,0.3,0.4,0.5,0.7,0.5
		c0.4-0.1,0.8,0,1.1,0.4c0.3,0.3,0.4,0.8,0.2,1.2c-0.1,0.3,0.1,0.7,0.4,0.8c0.3,0.1,0.7-0.1,0.8-0.4C25,15.3,24.8,14.4,24.2,13.7"/>
	<path fill="#FFFFFF" d="M16.7,20.8c-0.1,0.2-0.4,0.3-0.5,0.2c-0.2-0.1-0.2-0.3-0.1-0.5c0.1-0.2,0.3-0.3,0.5-0.2
		C16.7,20.4,16.8,20.6,16.7,20.8 M15.7,22.1c-0.3,0.5-0.9,0.7-1.4,0.5c-0.5-0.2-0.6-0.8-0.3-1.2c0.3-0.5,0.9-0.7,1.4-0.5
		C15.8,21,16,21.6,15.7,22.1 M16.8,18.7c-1.5-0.4-3.2,0.4-3.8,1.7c-0.7,1.3,0,2.8,1.5,3.3c1.6,0.5,3.4-0.3,4-1.7
		C19.1,20.5,18.3,19.1,16.8,18.7"/>
</g>
</svg>
