<?xml version="1.0" encoding="utf-8"?>
<!-- Generator: Adobe Illustrator 18.1.1, SVG Export Plug-In . SVG Version: 6.00 Build 0)  -->
<svg version="1.1" id="Layer_1" xmlns="http://www.w3.org/2000/svg" xmlns:xlink="http://www.w3.org/1999/xlink" x="0px" y="0px"
	 viewBox="0 0 36 36" enable-background="new 0 0 36 36" xml:space="preserve">
<g>
	<circle fill="#FFFFFF" cx="18" cy="18" r="18"/>
	<circle fill="#10A6DF" cx="18" cy="18" r="14.8"/>
	<path fill="#FFFFFF" d="M27.9,13.2c0-0.8,1.3-0.8,1.3,0c0,0.8,0,1.6,0,2.4c-0.1,1.1-0.8,1.6-1.9,1.7c-0.2,0-0.4,0-0.6,0
		c-1.1-0.1-1.8-0.6-1.9-1.8c0-0.6,0-1.1,0-1.7v-0.2c0-0.1,0-0.2,0-0.3l0,0c-0.1-0.8,1.3-0.8,1.3-0.1c0,0.8,0,1.7,0,2.4
		c0,1,1.7,1,1.7,0C28,14.9,27.9,14,27.9,13.2z"/>
	<path fill="#FFFFFF" d="M24.8,16.3c0.3,0.5-0.1,1.2-0.8,1c-0.3-0.1-0.7-0.6-1-0.9c-0.3-0.3-0.7-0.6-1-0.9c-0.2-0.3-0.1,0.2-0.1,0.5
		c0,0.3,0,0.7,0,0.8c0,0.3-0.2,0.4-0.5,0.5c-0.1,0-0.3,0-0.4,0c-0.3,0-0.4-0.2-0.5-0.5c0-1.2,0-2.4,0-3.7c0-0.7,1.3-0.7,1.3,0
		c0,0.4,0,0.9,0,1.3c0.2-0.1,0.3-0.3,0.5-0.5c0.1-0.1,0.3-0.2,0.4-0.4c0.2-0.2,0.4-0.4,0.6-0.6c0.3-0.5,1.3-0.5,1.4,0.2
		c0.1,0.9-1.2,1.3-1.4,1.8C23.8,15.4,24.6,15.8,24.8,16.3z"/>
	<path fill="#FFFFFF" d="M19.2,13.2c-0.1-0.8,1.4-0.8,1.3,0c0,0.8,0,1.6,0,2.4c-0.1,1.1-0.8,1.6-1.9,1.7c-0.1,0-0.3,0-0.4,0
		c-1.2-0.1-1.9-0.6-1.9-1.8c0-0.1,0-0.3,0-0.4h0c-0.2,1.4-0.9,2.1-2.1,2.2c-2,0.2-3.1-1.9-2.2-3.7c0.3-0.7,1.1-1.1,1.9-1.2
		c1.4-0.1,2.3,0.9,2.5,2.4c0.1-0.5,0-1.1,0-1.6c-0.1-0.9,1.4-0.9,1.3,0c0,0.8,0,1.7,0,2.5c0.1,0.8,1.7,0.8,1.6-0.1
		C19.3,14.9,19.2,14,19.2,13.2z M14.8,15.1v-0.4c0-1-1.1-1.4-1.7-0.8c-0.7,0.7-0.4,2.4,0.7,2.4C14.5,16.2,14.8,15.8,14.8,15.1z"/>
	<path fill="#FFFFFF" d="M11.9,12.7c0.1,0.5-0.4,1.3-0.6,1.7c-0.5,1.2-0.9,2.1-1.5,3.3c-0.2,0.6-0.4,1.2-0.9,1.5
		c-1.9,0.1-0.5-1.9-0.2-2.7c-0.4-0.8-1-1.7-1.5-2.6C7,13.5,6.4,12.8,7,12.3c0.2-0.2,0.7-0.2,0.9,0c0.7,0.5,1,1.9,1.6,2.5
		c0.2-0.3,0.4-0.8,0.6-1.3c0.2-0.4,0.3-1,0.6-1.2C11.1,12,11.8,12.3,11.9,12.7z"/>
	<path fill="#FFFFFF" d="M25,22.5c0,0.2,0,0.4,0,0.6h0C24.9,22.9,24.9,22.7,25,22.5L25,22.5z"/>
	<path fill="#FFFFFF" d="M24.9,23.1L24.9,23.1c-0.9,0.1-2.2,0.1-3.2,0h0C22.8,23.1,23.9,23.1,24.9,23.1z"/>
	<path fill="#FFFFFF" d="M24.9,22.5c0,0.2,0,0.4,0,0.6c-1,0-2.1,0-3.1,0c0-0.2,0-0.4,0-0.6c0.4,0,1,0.1,1.3,0c0-0.3,0-0.6,0-0.9
		c-0.1-0.1-0.6-0.1-0.7,0c0,0.2-0.1,0.4-0.1,0.6c-0.3,0-0.4-0.1-0.6-0.1c0.1-0.6,0.3-1.2,0.3-1.9c0.2,0,0.4,0,0.6,0
		c0,0.2-0.1,0.3,0,0.6c-0.2,0.2,0.3,0.1,0.5,0.1c0.1-0.2,0-0.7,0-1c0.2,0,0.5,0,0.7,0c0,0.3-0.1,0.7,0,1c0.3,0,0.6,0,0.9,0
		c0,0.2,0,0.4,0,0.6c-0.3,0-0.7-0.1-1,0c0,0.3-0.1,0.7,0,0.9C24.2,22.5,24.5,22.5,24.9,22.5z"/>
	<path fill="#FFFFFF" d="M24.8,25.1c0.1,0.1,0.1,0.6,0,0.7C24.8,25.5,24.8,25.3,24.8,25.1z"/>
	<path fill="#FFFFFF" d="M24.7,23.5c0.2,0.3,0.1,1.1,0,1.4C24.7,24.5,24.8,23.9,24.7,23.5z"/>
	<path fill="#FFFFFF" d="M24.8,25.1c0,0.2,0,0.5,0,0.7c0,0.3-0.2,0.5-0.5,0.5c-0.6,0-1.2,0-1.8,0c-0.3,0-0.5-0.2-0.5-0.5
		c0-0.8,0-1.5,0-2.3c0.9,0,1.8,0,2.8,0c0.1,0.4,0,1,0,1.4V25.1z M24,24.4c0.3-0.5-1.1-0.2-1.4-0.2c0,0.3,0,0.7,0,1
		c0,0.1,0,0.3,0,0.4l0,0l0,0h0.1c0.3,0.1,0.8,0.1,1,0h0.1l0-0.1l0,0v0C24.1,25.2,24,24.7,24,24.4z"/>
	<path fill="#FFFFFF" d="M22.7,24.1c0.3,0,1.7-0.3,1.4,0.2C24.1,23.9,23,24.3,22.7,24.1L22.7,24.1z"/>
	<path fill="#FFFFFF" d="M24,24.4c0,0.4,0.1,0.8,0,1.1C24,25.1,23.9,24.6,24,24.4z"/>
	<path fill="#FFFFFF" d="M24,25.6L24,25.6L24,25.6z"/>
	<polygon fill="#FFFFFF" points="24,25.6 23.9,25.6 23.9,25.6 	"/>
	<path fill="#FFFFFF" d="M22.8,25.6c0.3,0,0.7,0,1,0C23.6,25.7,23.1,25.7,22.8,25.6z"/>
	<polygon fill="#FFFFFF" points="22.8,25.6 22.7,25.6 22.7,25.6 	"/>
	<path fill="#FFFFFF" d="M22.7,25.5L22.7,25.5L22.7,25.5z"/>
	<path fill="#FFFFFF" d="M22.7,24.1L22.7,24.1c0,0.3,0.1,0.8,0,1C22.7,24.8,22.7,24.5,22.7,24.1z"/>
	<path fill="#FFFFFF" d="M22,23.5c0,0.8,0,1.5,0,2.3C21.9,25.1,21.9,24.1,22,23.5z"/>
	<path fill="#FFFFFF" d="M21.8,22.5c0,0.2,0,0.4,0,0.6h0C21.7,22.9,21.7,22.7,21.8,22.5L21.8,22.5z"/>
	<path fill="#FFFFFF" d="M21.5,21.5c-0.1,1.4,0.1,3.1-0.1,4.4C21.6,24.5,21.5,22.9,21.5,21.5c-0.3,0-0.8,0.1-1,0
		C20.9,21.4,21.3,21.4,21.5,21.5z"/>
	<path fill="#FFFFFF" d="M18.3,20.1c1.1,0,2.2,0,3.2,0c0,0.2,0.1,0.5,0,0.6c-0.3,0.1-1-0.1-0.9,0.1c0,0.2,0,0.3,0,0.5v0
		c0.2,0.1,0.6,0,0.9,0c0,1.4,0.1,3,0,4.4c-0.1,0.2-0.2,0.4-0.5,0.4c-0.7,0-1.4,0-2.1,0c-0.2,0-0.4,0-0.5-0.1l-0.1-0.3
		c0-1.1,0-2.2,0-3.3v0c0-0.3-0.1-0.7,0-1c0.3,0,0.6,0,0.9,0c0.1-0.2,0-0.5,0-0.7c-0.3,0-0.7,0-1,0C18.3,20.5,18.3,20.3,18.3,20.1z
		 M20.9,23.8c-0.1,0-0.2,0-0.3,0c-0.6-0.1-0.6-1.1-0.5-1.7h-0.2c-0.1,0.1,0,0.3,0,0.5c-0.1,0.5-0.2,1-0.4,1.4
		c-0.1-0.1-0.2-0.2-0.4-0.2c-0.2-0.2-0.1,0.3-0.1,0.5c0.5,0.1,1.3,0,1.9,0C20.9,24.2,20.8,24,20.9,23.8z M20.8,23.4
		c0.1-0.3,0.1-0.9,0-1.2c-0.1,0-0.3-0.1-0.2,0.1c0,0.3-0.1,0.8,0,1.1C20.6,23.3,20.7,23.4,20.8,23.4z M20.8,25.4v-0.6
		c-0.6,0-1.4-0.1-1.9,0c0,0.2,0,0.5,0,0.7h0.1c0.4,0.1,1.2,0.1,1.6,0C20.9,25.7,20.8,25.5,20.8,25.4z M19.8,21.5h0.2
		c0-0.2-0.1-0.4,0-0.6c0.2-0.1-0.1-0.2-0.2-0.1C19.8,21,19.7,21.3,19.8,21.5z M19.2,22.7c0.1-0.2,0.1-0.8-0.3-0.6
		c0.1,0.4-0.1,1.1,0.1,1.4l0-0.1C19.2,23.3,19.2,23,19.2,22.7z"/>
	<path fill="#FFFFFF" d="M20.5,23.8c0.1,0,0.2,0,0.3,0c0,0.1,0.1,0.4,0,0.5v0C20.9,23.9,20.7,23.8,20.5,23.8z"/>
	<path fill="#FFFFFF" d="M20.8,22.1c0.1,0.3,0.1,0.9,0,1.2C20.8,22.9,20.8,22.5,20.8,22.1z"/>
	<path fill="#FFFFFF" d="M20.8,24.9v0.6C20.8,25.3,20.8,25.1,20.8,24.9L20.8,24.9z"/>
	<path fill="#FFFFFF" d="M20.8,24.9L20.8,24.9c-0.6,0-1.3,0-1.9,0C19.5,24.8,20.2,24.9,20.8,24.9z"/>
	<path fill="#FFFFFF" d="M20.8,24.2L20.8,24.2c-0.6,0-1.4,0.1-1.9,0h0C19.6,24.2,20.2,24.2,20.8,24.2z"/>
	<path fill="#FFFFFF" d="M19.1,25.6c0.5,0,1.1,0,1.6,0C20.3,25.7,19.5,25.7,19.1,25.6z"/>
	<path fill="#FFFFFF" d="M20.6,22.2c0.1,0.3,0,0.7,0,1.1C20.5,23,20.6,22.5,20.6,22.2z"/>
	<path fill="#FFFFFF" d="M18.9,22.1c0.5-0.2,0.4,0.4,0.3,0.6C19.2,22.5,19.4,22,18.9,22.1c0,0.3,0,1.3,0.1,1.3l0,0.1
		C18.8,23.2,19,22.6,18.9,22.1z"/>
	<path fill="#FFFFFF" d="M19,23.8c-0.1,0.1,0,0.3,0,0.5h0C18.9,24.1,18.9,23.6,19,23.8z"/>
	<path fill="#FFFFFF" d="M18.3,22.5c0,1.1,0,2.2,0,3.3C18.2,24.8,18.2,23.5,18.3,22.5z"/>
	<path fill="#FFFFFF" d="M17.8,24.5c0,0.8-0.1,1.6-0.8,1.7c-0.3,0-0.6,0-0.8,0c-0.2-0.1-0.3-0.1-0.5-0.1c-0.1-0.2-0.3-0.3-0.2-0.6
		c0-0.3,0-0.9,0-1.6c0-0.5,0.1-1.5-0.1-1.6c-0.1,0-0.2,0-0.1,0.2c-0.1,1.2-0.5,2.3-1.2,3.2c-0.3,0.4-0.6,0.7-0.9,0.3
		c0-0.1-0.1-0.1-0.2-0.1c-0.1,0.1,0,0.3,0,0.5c-0.2,0-0.5,0-0.7,0c0-1,0-2.1,0-3.1H12c-0.1,0.2-0.3,0.4-0.4,0.6
		c-0.1,0-0.1-0.2-0.2-0.2c-0.1-0.2-0.2-0.2-0.3-0.4v0c0.7-0.9,1.2-2,1.6-3.2c0.2,0.1,0.5,0.2,0.7,0.3c-0.1,0.5-0.3,1-0.5,1.5
		c-0.1,0.2,0,0.5,0,0.7c0,0.4,0,0.9,0,1.3c0,0.4,0,0.8,0,1.2c-0.1,0.1,0,0.5,0,0.7c0.3,0,0.3-0.2,0.5-0.4c0.7-0.7,1.1-1.7,1.2-3
		c-0.1-0.1-0.3,0-0.5,0c-0.3,0-0.6,0-0.9,0c0-0.1,0.1-0.2,0-0.3c0.1,0,0-0.3,0-0.4c0.4,0,0.9,0,1.3,0h0c0-0.6,0-1.2,0-1.8
		c0.2,0,0.5,0,0.7,0c0.1,0.5,0,1.2,0,1.7v0c0.8,0,1.7-0.1,2.4,0v0.1c-0.1,0.1,0,0.4,0,0.5c-0.5,0-1,0-1.5,0c-0.1,0.9-0.1,2.2,0,3.1
		c0,0.3,0.5,0.2,0.7,0.2c0.2-0.3,0.1-0.8,0.2-1.2C17.3,24.4,17.5,24.5,17.8,24.5z"/>
	<path fill="#FFFFFF" d="M17.1,21.2c-0.4-0.3-0.7-0.5-1-0.7l0.4-0.6c0.3,0.2,0.7,0.4,1.1,0.7L17.1,21.2z"/>
</g>
</svg>
