<?xml version="1.0" encoding="utf-8"?>
<!-- Generator: Adobe Illustrator 18.1.1, SVG Export Plug-In . SVG Version: 6.00 Build 0)  -->
<svg version="1.1" id="Layer_1" xmlns="http://www.w3.org/2000/svg" xmlns:xlink="http://www.w3.org/1999/xlink" x="0px" y="0px"
	 viewBox="0 0 36 36" enable-background="new 0 0 36 36" xml:space="preserve">
<g>
	<circle fill="#FFFFFF" cx="18" cy="18" r="18"/>
	<g>
		<defs>
			<circle id="SVGID_1_" cx="18" cy="18" r="14.8"/>
		</defs>
		<clipPath id="SVGID_2_">
			<use xlink:href="#SVGID_1_"  overflow="visible"/>
		</clipPath>
		<path clip-path="url(#SVGID_2_)" fill="#BA2025" d="M20.5,24.9v-2.6c0-0.6-0.2-0.8-0.5-0.8c-0.2,0-0.4,0.1-0.6,0.3v3.8
			c0.2,0.2,0.4,0.3,0.6,0.3C20.4,25.7,20.5,25.4,20.5,24.9L20.5,24.9z M23.6,22.8h1.1v-0.6c0-0.6-0.2-0.9-0.6-0.9s-0.6,0.3-0.6,0.9
			V22.8z M14,18.3v1.2h-1.3v7.1h-1.2v-7.1h-1.3v-1.2H14L14,18.3z M17.4,20.4v6.2h-1.1V26c-0.4,0.5-0.9,0.8-1.3,0.8
			c-0.4,0-0.6-0.2-0.7-0.5c-0.1-0.2-0.1-0.5-0.1-0.9v-4.9h1.1V25c0,0.3,0,0.4,0,0.4c0,0.2,0.1,0.3,0.3,0.3c0.2,0,0.5-0.2,0.7-0.5
			v-4.7L17.4,20.4L17.4,20.4z M21.7,22.3v2.5c0,0.6,0,1-0.1,1.2c-0.1,0.5-0.4,0.7-0.9,0.7c-0.4,0-0.8-0.2-1.1-0.7v0.6h-1.1v-8.3h1.1
			V21c0.4-0.4,0.7-0.7,1.1-0.7c0.5,0,0.8,0.2,0.9,0.7C21.6,21.3,21.7,21.7,21.7,22.3z M25.9,24.5v0.2c0,0.3,0,0.6,0,0.7
			c0,0.2-0.1,0.5-0.3,0.7c-0.3,0.4-0.8,0.7-1.3,0.7c-0.6,0-1-0.2-1.4-0.6c-0.2-0.3-0.4-0.8-0.4-1.5v-2.2c0-0.7,0.1-1.1,0.3-1.5
			c0.3-0.4,0.8-0.6,1.3-0.6c0.6,0,1,0.2,1.3,0.6c0.2,0.3,0.4,0.8,0.4,1.5v1.3h-2.2v1.1c0,0.6,0.2,0.9,0.6,0.9c0.3,0,0.4-0.1,0.5-0.4
			l0-0.1c0-0.1,0-0.2,0-0.3v-0.4L25.9,24.5L25.9,24.5z M18.3,10.6v2.6c0,0.6-0.2,0.9-0.5,0.9s-0.5-0.3-0.5-0.9v-2.6
			c0-0.6,0.2-0.9,0.5-0.9S18.3,10,18.3,10.6z M27.3,22.6c0-2-0.1-3.5-0.3-4.4c-0.1-0.5-0.4-0.9-0.7-1.2c-0.4-0.3-0.8-0.5-1.3-0.6
			c-1.5-0.2-3.8-0.3-6.9-0.3c-3.1,0-5.4,0.1-6.9,0.3c-0.5,0.1-0.9,0.3-1.3,0.6c-0.4,0.3-0.6,0.7-0.7,1.2c-0.2,1-0.3,2.4-0.3,4.4
			c0,2,0.1,3.4,0.3,4.4c0.1,0.5,0.4,0.9,0.7,1.2c0.4,0.3,0.8,0.5,1.3,0.6c1.5,0.2,3.9,0.3,6.9,0.3c3.1,0,5.4-0.1,6.9-0.3
			c0.5-0.1,0.9-0.3,1.3-0.6c0.4-0.3,0.6-0.7,0.7-1.2C27.2,26.1,27.3,24.6,27.3,22.6z M14.5,11.6l1.5-5h-1.3l-0.9,3.3L13,6.7h-1.3
			l0.4,1.2c0,0,0.1,0.4,0.4,1.2c0.4,1.2,0.7,2,0.8,2.7V15h1.2L14.5,11.6L14.5,11.6z M19.4,13v-2.2c0-0.7-0.1-1.1-0.4-1.5
			c-0.3-0.4-0.8-0.6-1.3-0.6c-0.6,0-1,0.2-1.3,0.6c-0.2,0.3-0.4,0.8-0.4,1.5V13c0,0.7,0.1,1.1,0.4,1.5c0.3,0.4,0.7,0.6,1.3,0.6
			c0.6,0,1-0.2,1.3-0.6C19.3,14.2,19.4,13.7,19.4,13z M22.5,15h1.1V8.8h-1.1v4.8c-0.2,0.3-0.5,0.5-0.7,0.5c-0.2,0-0.3-0.1-0.3-0.3
			c0,0,0-0.2,0-0.4V8.8h-1.1v4.9c0,0.4,0,0.7,0.1,0.9c0.1,0.3,0.4,0.5,0.7,0.5c0.4,0,0.8-0.3,1.3-0.8L22.5,15L22.5,15z M33.8,9.9
			v16.2c0,1.3-3.3,2.5-4.3,3.4c-1,1-2.1,4.3-3.4,4.3H9.9c-1.3,0-2.5-3.3-3.4-4.3c-1-1-4.3-2.1-4.3-3.4V9.9c0-1.3,3.3-2.5,4.3-3.4
			s2.1-4.3,3.4-4.3h16.2c1.3,0,2.5,3.3,3.4,4.3c1,1,2.4,2.1,2.4,3.4L33.8,9.9z"/>
	</g>
</g>
<g>
</g>
<g>
</g>
<g>
</g>
<g>
</g>
<g>
</g>
<g>
</g>
</svg>
