<?xml version="1.0" encoding="UTF-8" standalone="no"?>
<svg width="808px" height="223px" viewBox="0 0 808 223" version="1.1" xmlns="http://www.w3.org/2000/svg" xmlns:xlink="http://www.w3.org/1999/xlink" xmlns:sketch="http://www.bohemiancoding.com/sketch/ns">
    <!-- Generator: Sketch 3.2.2 (9983) - http://www.bohemiancoding.com/sketch -->
    <title>Slice 1</title>
    <desc>Created with Sketch.</desc>
    <defs></defs>
    <g id="Page-1" stroke="none" stroke-width="1" fill="none" fill-rule="evenodd" sketch:type="MSPage">
        <g id="PHO-logo" sketch:type="MSLayerGroup">
            <path d="M101.1,126.8 L139.1,134.3 L160.6,96.8 L123.1,89 L101.1,126.8 L101.1,126.8 Z" id="Shape" fill="#0072BC" sketch:type="MSShapeGroup"></path>
            <path d="M123.4,89.5 L130.9,105 L139.4,93.3 L135.6,106.3 L159.9,97.3 L136.9,111 L148.1,116.8 L134.6,116 L138.9,133.8 L130.1,118 L121.1,129.5 L125.9,116.3 L102.1,126.5 L122.9,111.3 L113.4,107.5 L125.6,107 L123.4,89.5 L123.4,89.5 Z" id="Shape" fill="#FFFFFF" sketch:type="MSShapeGroup"></path>
            <path d="M146.6,142.3 L146.6,142.3 L147.4,143.3 L148.1,144.5 L148.6,145.5 L149.1,146.8 L149.4,147.8 L149.4,148.8 L148.9,150.8 L148.1,152.8 L146.9,154.5 L145.4,156 L143.9,157.3 L141.6,159.3 L139.1,161 L136.4,162.5 L133.6,164 L127.6,167 L121.1,169.3 L114.4,171 L107.1,172.5 L103.6,173 L100.1,173.3 L96.4,173.3 L92.9,173.3 L89.1,173.3 L85.4,172.8 L81.9,172.3 L78.4,171.5 L74.9,170.8 L71.4,169.8 L68.1,168.5 L64.6,167 L61.6,165.3 L58.4,163.5 L55.4,161.3 L52.6,159 L49.9,156.5 L47.4,153.8 L44.9,150.8 L42.6,147.5 L40.6,144 L38.9,140.3 L37.4,136.5 L36.4,133 L35.4,129 L34.9,125.3 L34.4,121.3 L34.4,117.5 L34.4,113.5 L34.9,109.5 L35.4,105.5 L36.1,101.5 L36.9,97.5 L38.1,93.5 L39.4,89.8 L40.9,85.8 L44.1,78 L47.9,70.5 L52.1,63.3 L56.6,56.5 L61.6,50 L66.6,44 L71.6,38.5 L76.6,33.8 L80.9,30 L85.1,26.5 L89.4,23.5 L93.4,20.5 L97.4,17.8 L101.4,15.5 L105.1,13.3 L108.9,11.3 L116.4,8 L123.1,5.3 L129.6,3.3 L135.4,2 L140.9,1 L145.6,0.5 L149.9,0.5 L153.4,0.5 L156.1,0.8 L158.4,1 L159.6,1.3 L160.1,1.5 L159.6,1.8 L157.9,2.3 L151.4,3.8 L146.6,4.8 L141.4,6.5 L135.4,8.5 L128.9,11.3 L121.9,14.5 L114.6,18.3 L110.9,20.5 L107.1,23 L103.4,25.8 L99.6,28.5 L95.9,31.5 L92.1,34.8 L88.6,38.3 L84.9,42 L81.4,46 L77.9,50.3 L74.4,55 L71.1,59.8 L66.9,66.8 L63.1,73.3 L59.9,79.8 L57.1,85.8 L55.1,91.5 L53.4,97 L52.1,102 L51.4,107 L50.9,111.5 L51.1,116 L51.4,120 L52.1,123.8 L53.1,127.3 L54.4,130.5 L56.1,133.5 L57.9,136.5 L59.9,139 L62.1,141.3 L64.4,143.5 L66.9,145.3 L69.6,147 L72.1,148.5 L74.9,150 L77.9,151 L80.6,152 L83.4,152.8 L86.1,153.3 L88.6,153.8 L91.4,153.8 L93.6,154 L96.1,154 L98.1,153.8 L104.6,152.8 L108.4,152 L112.4,151 L116.9,149.8 L121.9,147.8 L127.9,145.3 L134.6,141.8 L137.6,140.5 L139.1,140 L140.6,139.8 L142.1,139.8 L143.6,140 L145.1,141 L146.6,142.3 L146.6,142.3 Z" id="Shape" fill="#6950A1" sketch:type="MSShapeGroup"></path>
            <path d="M91.6,119.3 L91.6,119.3 L91.1,114.3 L90.9,109.3 L90.9,104.5 L91.1,100 L91.6,95.5 L92.4,91.5 L93.6,87.3 L94.6,83.5 L96.1,79.8 L97.9,76.3 L99.6,73 L101.6,69.8 L103.9,66.8 L106.1,63.8 L108.6,61 L111.4,58.5 L114.1,56 L116.9,53.5 L119.9,51.5 L123.1,49.3 L126.1,47.5 L129.4,45.8 L136.1,42.5 L142.9,39.8 L149.9,37.3 L156.6,35.5 L163.6,34 L171.9,32.8 L179.9,31.8 L187.1,31.5 L193.9,31.8 L200.4,32.5 L206.4,33.5 L211.9,35.3 L217.1,37 L221.6,39.3 L226.1,41.5 L230.1,44.3 L233.6,47.3 L237.1,50.5 L240.1,53.8 L242.9,57 L245.1,60.5 L247.4,64 L249.4,67.8 L250.9,71.3 L252.4,74.8 L254.6,81.3 L256.4,87.5 L257.4,92.5 L258.1,96.8 L258.6,99.3 L258.9,100.3 L259.1,99.8 L259.4,98 L259.6,95.5 L259.9,92.3 L259.9,88 L259.4,83.5 L258.6,78.3 L257.1,72.5 L255.1,66.8 L253.9,63.8 L252.6,60.8 L250.9,57.5 L249.1,54.5 L246.9,51.5 L244.6,48.5 L242.1,45.5 L239.1,42.5 L236.1,39.8 L232.6,36.8 L228.9,34.3 L224.9,31.5 L220.4,29.3 L215.9,26.8 L211.9,25 L207.9,23.5 L203.9,22.3 L199.9,21 L195.9,20.3 L191.9,19.3 L187.9,18.8 L183.9,18.3 L179.9,18 L176.1,18 L168.1,18 L160.4,18.8 L152.9,20.3 L145.4,22 L138.1,24.3 L131.1,26.8 L124.4,30 L117.9,33.3 L111.6,37 L105.9,40.8 L100.4,45 L96.6,48.3 L93.1,51.3 L90.1,54.5 L87.1,58 L84.4,61.3 L82.1,64.5 L79.9,67.8 L77.9,71 L76.1,74.3 L74.6,77.3 L72.1,83.5 L70.1,89.5 L68.9,95 L68.1,100.3 L67.6,105 L67.6,109.3 L67.9,113 L68.4,118 L68.6,120 L69.4,122.5 L70.4,125 L71.9,127.8 L73.9,130.8 L74.9,132 L76.4,133.3 L77.6,134.3 L79.4,135 L80.9,135.5 L82.9,135.5 L84.4,135.5 L85.9,135.3 L87.1,134.8 L88.1,134.3 L89.1,133.5 L89.9,132.8 L90.4,131.8 L91.1,130.8 L91.6,128.3 L91.9,125.5 L91.9,122.5 L91.6,119.3 L91.6,119.3 Z" id="Shape" fill="#6950A1" sketch:type="MSShapeGroup"></path>
            <path d="M113.6,80.5 L113.6,80.5 L112.6,79.3 L111.9,78.3 L111.4,77 L111.1,76 L110.9,75 L110.9,74 L111.4,72 L112.1,70 L113.4,68.3 L114.6,66.8 L116.1,65.3 L118.6,63.5 L121.1,61.8 L123.9,60 L126.6,58.5 L132.6,55.8 L139.1,53.5 L145.9,51.5 L152.9,50.3 L156.6,49.8 L160.1,49.5 L163.9,49.3 L167.4,49.3 L171.1,49.5 L174.6,49.8 L178.4,50.5 L181.9,51 L185.4,52 L188.9,53 L192.1,54.3 L195.4,55.8 L198.6,57.5 L201.9,59.3 L204.6,61.5 L207.6,63.8 L210.4,66.3 L212.9,69 L215.4,72 L217.4,75.3 L219.6,78.8 L221.4,82.5 L222.6,86 L223.9,89.8 L224.6,93.5 L225.4,97.5 L225.6,101.3 L225.9,105.3 L225.6,109.3 L225.4,113.3 L224.9,117.3 L224.1,121.3 L223.1,125.3 L222.1,129 L220.9,133 L219.4,137 L216.1,144.8 L212.1,152.3 L207.9,159.3 L203.4,166.3 L198.6,172.8 L193.6,178.8 L188.6,184 L183.4,189 L179.1,192.8 L174.9,196 L170.9,199.3 L166.9,202.3 L162.6,204.8 L158.9,207.3 L154.9,209.5 L151.1,211.5 L143.9,214.8 L137.1,217.5 L130.6,219.3 L124.6,220.8 L119.4,221.8 L114.6,222.3 L110.4,222.3 L106.9,222.3 L103.9,222 L101.9,221.8 L100.6,221.3 L100.1,221 L100.6,220.8 L102.4,220.5 L108.9,219 L113.6,217.8 L118.9,216.3 L124.9,214.3 L131.4,211.5 L138.4,208.3 L145.6,204.3 L149.4,202 L153.1,199.8 L156.6,197 L160.4,194.3 L164.1,191.3 L167.9,187.8 L171.6,184.3 L175.4,180.5 L178.9,176.5 L182.4,172.3 L185.6,167.8 L189.1,163 L193.4,156 L197.1,149.3 L200.4,143 L203.1,137 L205.1,131.3 L206.9,125.8 L208.1,120.5 L208.9,115.8 L209.1,111.3 L209.1,106.8 L208.9,102.8 L208.1,99 L207.1,95.5 L205.6,92.3 L204.1,89 L202.4,86.3 L200.4,83.8 L198.1,81.3 L195.6,79.3 L193.1,77.3 L190.6,75.5 L187.9,74 L185.1,72.8 L182.4,71.8 L179.6,70.8 L176.9,70 L174.1,69.5 L171.4,69 L168.9,68.8 L166.4,68.8 L164.1,68.8 L161.9,69 L155.6,70 L151.9,70.5 L147.9,71.5 L143.4,73 L138.1,75 L132.4,77.5 L125.4,81 L122.6,82.3 L121.1,82.8 L119.6,83 L118.1,83 L116.6,82.5 L115.1,81.8 L113.6,80.5 L113.6,80.5 Z" id="Shape" fill="#6950A1" sketch:type="MSShapeGroup"></path>
            <path d="M168.9,103.8 L168.9,103.8 L169.4,109 L169.6,113.8 L169.4,118.5 L169.1,123 L168.6,127.5 L167.9,131.8 L166.9,135.8 L165.6,139.5 L164.1,143.3 L162.4,146.8 L160.6,150 L158.6,153.3 L156.4,156.5 L154.1,159.3 L151.6,162 L148.9,164.8 L146.1,167 L143.4,169.5 L140.4,171.8 L137.4,173.8 L134.1,175.5 L130.9,177.5 L124.1,180.8 L117.4,183.5 L110.4,185.8 L103.6,187.5 L96.6,189 L88.4,190.5 L80.6,191.3 L73.1,191.5 L66.4,191.3 L59.9,190.5 L53.9,189.5 L48.4,188 L43.4,186 L38.6,184 L34.1,181.5 L30.1,178.8 L26.6,175.8 L23.4,172.8 L20.4,169.3 L17.6,166 L15.1,162.5 L12.9,159 L11.1,155.5 L9.4,152 L7.9,148.5 L5.6,141.8 L3.9,135.8 L2.9,130.5 L2.1,126.5 L1.9,123.8 L1.6,122.8 L1.4,123.3 L0.9,125 L0.6,127.5 L0.4,130.8 L0.6,135 L0.9,139.8 L1.9,145 L3.1,150.5 L5.1,156.3 L6.4,159.5 L7.9,162.5 L9.4,165.5 L11.4,168.5 L13.4,171.5 L15.6,174.5 L18.4,177.5 L21.1,180.5 L24.4,183.5 L27.6,186.3 L31.4,188.8 L35.4,191.5 L39.9,194 L44.6,196.3 L48.4,198 L52.4,199.5 L56.4,200.8 L60.4,202 L64.4,203 L68.4,203.8 L72.4,204.3 L76.4,204.8 L80.4,205 L84.4,205.3 L92.1,205 L99.9,204.3 L107.6,203 L114.9,201 L122.1,198.8 L129.1,196.3 L136.1,193.3 L142.4,189.8 L148.6,186.3 L154.4,182.3 L159.9,178 L163.6,175 L167.1,171.8 L170.4,168.5 L173.1,165.3 L175.9,162 L178.4,158.8 L180.4,155.5 L182.4,152.3 L184.1,149 L185.6,145.8 L188.1,139.5 L190.1,133.5 L191.4,128 L192.1,122.8 L192.6,118 L192.6,113.8 L192.6,110 L191.9,105 L191.6,103 L190.9,100.8 L189.9,98.3 L188.4,95.3 L186.4,92.5 L185.4,91 L184.1,90 L182.6,89 L181.1,88.3 L179.4,87.8 L177.6,87.5 L175.9,87.5 L174.4,87.8 L173.1,88.3 L172.1,88.8 L171.1,89.5 L170.4,90.3 L169.9,91.3 L169.4,92.3 L168.6,94.8 L168.4,97.5 L168.4,100.5 L168.9,103.8 L168.9,103.8 Z" id="Shape" fill="#6950A1" sketch:type="MSShapeGroup"></path>
            <path d="M295.1,80 L302.1,80 L307.1,79.7 L312.1,79.2 L314.6,78.9 L316.9,78.1 L319.2,77.3 L321.2,76.5 L323.2,75.5 L325,74.2 L326.5,72.7 L327.8,70.9 L328.8,69.1 L329.6,66.8 L330.1,64.3 L330.4,61.8 L330.1,59.5 L329.8,57.2 L329.3,55.4 L328.5,53.9 L327.5,52.4 L326.5,51.4 L325.2,50.4 L323.7,49.4 L322.2,48.9 L320.7,48.1 L316.9,47.6 L313.1,47.1 L308.8,47.1 L302,47.1 L295.1,80 L295.1,80 Z M291.1,36 L304.4,36 L314.4,36 L319.7,36.3 L322.2,36.6 L325,37.4 L327.5,37.9 L330,38.9 L332.3,39.9 L334.6,41.4 L336.6,42.9 L338.6,44.7 L340.1,46.5 L341.6,48.8 L342.9,51.3 L343.7,54.1 L344.2,57.1 L344.5,60.6 L344.2,63.9 L343.7,67.2 L342.9,70.5 L341.9,73.3 L340.4,76.3 L338.9,78.8 L336.9,81.3 L334.6,83.3 L331.8,85.3 L329,87.1 L325.7,88.6 L322.2,90.1 L318.7,91.1 L314.7,91.6 L310.2,92.1 L305.7,92.4 L292.4,92.4 L284.1,129.4 L270.8,129.4 L291.1,36 L291.1,36 Z" id="Shape" fill="#0072BC" sketch:type="MSShapeGroup"></path>
            <path d="M365.4,29 L377.9,29 L369.6,69.5 L369.9,69.5 L371.6,67 L373.9,65 L376.4,63.3 L379.1,62 L381.9,60.8 L384.9,60 L388.1,59.5 L391.1,59.5 L393.6,59.5 L395.9,59.8 L398.1,60 L400.4,60.8 L402.4,61.5 L404.1,62.3 L405.9,63.5 L407.4,64.8 L408.9,66 L410.1,67.8 L411.4,69.3 L412.1,71.3 L412.9,73.5 L413.4,75.8 L413.6,78 L413.9,80.8 L413.6,83.8 L413.4,87 L412.4,93 L404.9,128.8 L392.4,128.8 L400.6,88.3 L401.1,84.8 L401.4,82 L401.1,79.3 L400.6,77 L399.4,74.8 L398.1,73 L396.4,71.5 L394.1,70.5 L391.6,69.8 L388.9,69.5 L386.1,69.8 L383.6,70.3 L381.1,71 L378.9,72.3 L376.6,73.8 L374.9,75.3 L373.1,77 L371.4,79 L370.1,81 L368.6,83 L366.6,87.3 L365.1,91.3 L364.1,94.8 L357.1,128.8 L344.6,128.8 L365.4,29 L365.4,29 Z" id="Shape" fill="#0072BC" sketch:type="MSShapeGroup"></path>
            <path d="M458.1,120.3 L458.1,120.3 L460.9,120.3 L463.4,119.5 L465.7,118.7 L468,117.4 L470.3,116.1 L472.3,114.3 L474.3,112.3 L476.1,110.3 L477.6,108 L479.1,105.5 L480.4,102.7 L481.4,100.2 L482.2,97.4 L482.7,94.4 L483.2,91.6 L483.2,88.6 L482.9,84.8 L482.1,81.3 L481.3,79.5 L480.5,78 L479.7,76.5 L478.7,75 L477.4,73.7 L476.1,72.4 L474.6,71.4 L473.1,70.6 L471.3,69.8 L469.5,69.3 L467.5,68.8 L465.5,68.8 L462.5,69.1 L459.7,69.6 L456.9,70.6 L454.4,71.9 L452.1,73.4 L450.1,75.2 L448.3,77.2 L446.5,79.5 L445,82 L443.7,84.5 L442.7,87 L441.9,89.8 L441.1,92.6 L440.6,95.4 L440.3,98.2 L440,101 L440.5,104.8 L441.3,108.6 L441.8,110.4 L442.6,111.9 L443.6,113.4 L444.6,114.7 L445.6,116 L446.9,117 L448.4,118 L449.9,118.8 L451.7,119.6 L453.7,120.1 L455.7,120.4 L458.1,120.4 L458.1,120.3 L458.1,120.3 Z M466.1,59.5 L466.1,59.5 L469.4,59.5 L472.7,60 L475.7,60.5 L478.7,61.5 L481.2,62.5 L483.7,63.8 L486,65.6 L488.3,67.4 L490.1,69.4 L491.9,71.7 L493.2,74.2 L494.5,76.7 L495.5,79.7 L496,82.7 L496.5,86 L496.5,89 L496.5,93.3 L496,97.6 L495.2,101.6 L493.9,105.4 L492.6,108.9 L490.8,112.4 L488.8,115.7 L486.5,118.7 L484,121.2 L481.2,123.7 L477.9,125.7 L474.6,127.5 L470.8,128.8 L466.8,129.8 L462.5,130.6 L458.2,130.9 L454.7,130.6 L451.4,130.3 L448.4,129.8 L445.4,128.8 L442.6,127.8 L440.1,126.5 L437.8,125 L435.5,123.2 L433.5,120.9 L432,118.9 L430.5,116.4 L429.2,113.6 L428.2,110.6 L427.4,107.3 L427.1,104 L426.8,100.2 L427.1,95.9 L427.6,91.9 L428.4,87.9 L429.4,84.1 L430.9,80.6 L432.7,77.1 L434.7,74.1 L437,71.1 L439.8,68.6 L442.6,66.1 L445.9,64.1 L449.4,62.3 L453.2,61 L457.2,60 L461.5,59.2 L466.1,59.2 L466.1,59.5 L466.1,59.5 Z" id="Shape" fill="#0072BC" sketch:type="MSShapeGroup"></path>
            <path d="M550.6,73 L550.6,73 L547.6,71.8 L544.1,70.5 L540.6,69.8 L536.9,69.5 L534.9,69.5 L532.6,69.8 L530.6,70.3 L528.6,71 L526.9,72.3 L525.6,73.5 L525.1,74.5 L524.6,75.5 L524.4,76.5 L524.4,77.8 L524.6,79.8 L525.4,81.8 L526.4,83.3 L527.9,84.8 L529.6,86.3 L531.6,87.8 L535.9,90.5 L538.1,92 L540.1,93.8 L542.1,95.5 L543.9,97.5 L545.4,99.8 L546.4,102.5 L547.1,105.5 L547.4,108.8 L547.4,111.8 L546.9,114.5 L546.1,116.8 L544.9,119 L543.6,121 L542.1,122.8 L540.4,124.5 L538.6,125.8 L536.6,127 L534.6,128 L532.4,128.8 L530.4,129.3 L525.9,130.3 L521.9,130.5 L514.9,130.3 L512.1,130 L509.6,129.5 L505.6,128.5 L501.9,127.3 L504.4,116.5 L508.1,118 L511.9,119.3 L515.9,120 L517.9,120.3 L519.9,120.3 L522.4,120.3 L525.1,119.8 L527.4,119 L529.6,118 L531.4,116.5 L532.1,115.8 L532.9,114.8 L533.4,113.8 L533.9,112.5 L534.1,111.3 L534.1,109.8 L533.9,107.8 L533.1,106 L532.1,104.3 L530.6,102.5 L528.9,101 L526.9,99.5 L522.6,96.8 L518.4,93.5 L516.4,91.8 L514.6,89.8 L513.1,87.5 L511.9,85 L511.4,82.5 L511.1,79.3 L511.1,76.8 L511.6,74.3 L512.4,72.3 L513.4,70.3 L514.6,68.3 L516.1,66.8 L517.9,65.3 L519.6,64 L521.6,62.8 L523.6,62 L525.6,61 L527.9,60.5 L532.1,59.8 L536.6,59.5 L541.1,59.8 L545.6,60.5 L549.9,61.5 L554.4,63 L550.6,73 L550.6,73 Z" id="Shape" fill="#0072BC" sketch:type="MSShapeGroup"></path>
            <path d="M610.4,88.5 L610.4,88.5 L610.7,85.7 L610.7,83.2 L610.4,80.2 L609.9,77.7 L608.6,75.2 L607.1,73.2 L605.1,71.7 L602.6,70.4 L599.6,69.6 L596.3,69.3 L594.3,69.3 L592.5,69.8 L590.7,70.3 L588.9,70.8 L587.1,71.6 L585.6,72.6 L584.1,73.9 L582.8,75.2 L580.3,78 L578,81.3 L576.5,84.8 L575.2,88.6 L610.4,88.6 L610.4,88.5 L610.4,88.5 Z M611.9,127.8 L611.9,127.8 L606.9,128.8 L601.9,129.8 L596.9,130.3 L591.9,130.6 L588.6,130.3 L585.6,130 L582.8,129.7 L579.8,128.9 L577,128.1 L574.5,126.8 L572,125.5 L569.7,124 L567.7,122 L565.9,119.7 L564.1,117.2 L562.8,114.4 L561.5,111.1 L560.7,107.6 L560.2,103.8 L560.2,99.3 L560.2,95.8 L560.7,92.3 L561.5,88.8 L562.5,85 L564,81.7 L565.5,78.2 L567.5,74.9 L569.8,71.9 L572.3,69.1 L575.1,66.6 L578.1,64.3 L581.4,62.3 L585.2,60.8 L589,59.5 L593.3,59 L597.6,58.7 L600.6,58.7 L603.4,59 L606.2,59.8 L608.7,60.6 L611,61.6 L613,62.6 L615,64.1 L616.8,65.6 L618.3,67.4 L619.6,69.4 L620.9,71.7 L621.7,74 L622.5,76.5 L623.3,79 L623.6,82 L623.6,84.8 L623.6,88.1 L623.3,91.4 L622.3,97.4 L574.5,97.4 L574.2,99.4 L574.2,101.7 L574.2,104.2 L574.5,106.5 L575,108.8 L575.8,110.6 L576.6,112.4 L577.6,113.9 L578.9,115.2 L580.2,116.5 L581.7,117.5 L583.5,118.3 L585,119.1 L587,119.6 L591,120.4 L595.3,120.4 L600.1,120.1 L605.1,119.3 L609.9,118 L614.7,116.2 L611.9,127.8 L611.9,127.8 Z" id="Shape" fill="#0072BC" sketch:type="MSShapeGroup"></path>
            <path d="M665.1,120.3 L665.1,120.3 L667.9,120.3 L670.4,119.5 L672.9,118.7 L675.2,117.4 L677.2,116.1 L679.5,114.3 L681.3,112.3 L683.1,110.3 L684.6,108 L686.1,105.5 L687.4,102.7 L688.4,100.2 L689.2,97.4 L690,94.4 L690.3,91.6 L690.3,88.6 L690,84.8 L689.2,81.3 L688.7,79.5 L687.9,78 L686.9,76.5 L685.9,75 L684.6,73.7 L683.3,72.4 L681.8,71.4 L680.3,70.6 L678.5,69.8 L676.7,69.3 L674.9,68.8 L672.6,68.8 L669.6,69.1 L666.8,69.6 L664,70.6 L661.7,71.9 L659.4,73.4 L657.4,75.2 L655.4,77.2 L653.9,79.5 L652.4,82 L651.1,84.5 L649.8,87 L649,89.8 L648.2,92.6 L647.7,95.4 L647.4,98.2 L647.4,101 L647.7,104.8 L648.5,108.6 L649,110.4 L649.8,111.9 L650.8,113.4 L651.8,114.7 L652.8,116 L654.3,117 L655.6,118 L657.4,118.8 L658.9,119.6 L660.9,120.1 L662.9,120.4 L665.1,120.4 L665.1,120.3 L665.1,120.3 Z M673.1,59.5 L673.1,59.5 L676.6,59.5 L679.9,60 L682.9,60.5 L685.7,61.5 L688.5,62.5 L691,63.8 L693.3,65.6 L695.3,67.4 L697.1,69.4 L698.9,71.7 L700.2,74.2 L701.5,76.7 L702.5,79.7 L703.3,82.7 L703.6,86 L703.9,89.3 L703.6,93.6 L703.1,97.9 L702.3,101.9 L701.3,105.7 L699.8,109.2 L698,112.7 L696,116 L693.7,119 L691.2,121.5 L688.4,124 L685.1,126 L681.8,127.8 L678,129.1 L674,130.1 L670,130.9 L665.5,131.2 L662,130.9 L658.7,130.6 L655.7,130.1 L652.7,129.1 L649.9,128.1 L647.4,126.8 L645.1,125.3 L642.8,123.5 L641,121.2 L639.2,119.2 L637.7,116.7 L636.4,113.9 L635.6,110.9 L634.8,107.6 L634.3,104.3 L634,100.5 L634.3,96.2 L634.8,92.2 L635.6,88.2 L636.9,84.4 L638.2,80.9 L640,77.4 L642,74.4 L644.5,71.4 L647,68.9 L650,66.4 L653,64.4 L656.5,62.6 L660.3,61.3 L664.3,60.3 L668.6,59.5 L673.1,59.5 L673.1,59.5 L673.1,59.5 Z" id="Shape" fill="#0072BC" sketch:type="MSShapeGroup"></path>
            <path d="M726.1,71.3 L726.1,71.3 L726.9,66.5 L727.9,61 L739.6,61 L737.6,71.8 L737.9,71.8 L739.4,69.5 L741.4,67.3 L743.6,65 L746.4,63.3 L749.4,61.5 L752.9,60.5 L756.6,59.8 L760.9,59.5 L763.4,59.5 L765.6,59.8 L767.9,60 L770.1,60.8 L772.1,61.5 L773.9,62.3 L775.6,63.5 L777.1,64.8 L778.6,66 L779.9,67.8 L780.9,69.3 L781.9,71.3 L782.6,73.5 L783.1,75.8 L783.4,78 L783.6,80.8 L783.4,83.8 L783.1,87 L781.9,93 L774.4,128.8 L761.9,128.8 L770.4,88.3 L770.9,84.8 L771.1,82 L770.9,79.3 L770.1,77 L769.1,74.8 L767.6,73 L765.9,71.5 L763.9,70.5 L761.4,69.8 L758.6,69.5 L755.9,69.8 L753.1,70.3 L750.9,71 L748.6,72.3 L746.4,73.8 L744.4,75.3 L742.6,77 L741.1,79 L739.6,81 L738.4,83 L736.4,87.3 L734.9,91.3 L733.9,94.8 L726.6,128.8 L714.1,128.8 L726.1,71.3 L726.1,71.3 Z" id="Shape" fill="#0072BC" sketch:type="MSShapeGroup"></path>
            <path d="M297.6,153.8 L287.1,153.8 L280.9,183 L276.1,183 L282.4,153.8 L271.9,153.8 L272.9,149.5 L298.4,149.5 L297.6,153.8 L297.6,153.8 Z" id="Shape" fill="#0072BC" sketch:type="MSShapeGroup"></path>
            <path d="M325.1,149.5 L343.4,149.5 L342.4,153.8 L329.1,153.8 L326.9,163.5 L339.4,163.5 L338.6,167.8 L325.9,167.8 L323.6,178.8 L337.6,178.8 L336.6,183 L317.9,183 L325.1,149.5 L325.1,149.5 Z" id="Shape" fill="#0072BC" sketch:type="MSShapeGroup"></path>
            <path d="M389.4,182.8 L389.4,182.8 L386.4,183.5 L383.4,183.8 L380.1,183.5 L377.1,182.8 L374.4,181.5 L373.1,180.8 L372.1,180 L371.1,179 L370.1,177.8 L369.4,176.5 L368.9,175.3 L368.4,173.8 L367.9,172 L367.6,170.3 L367.6,168.3 L367.9,165.3 L368.6,161.8 L369.4,160.3 L370.1,158.5 L371.1,157 L372.1,155.5 L373.6,154.3 L374.9,153 L376.6,151.8 L378.4,150.8 L380.4,150 L382.6,149.5 L385.1,149 L387.6,149 L389.6,149 L391.9,149.3 L393.9,149.8 L395.6,150.5 L394.4,154.8 L392.6,154 L391.1,153.5 L389.4,153.3 L387.9,153.3 L385.9,153.3 L384.1,153.5 L382.6,154 L381.1,154.5 L379.9,155.3 L378.6,156 L377.4,157 L376.4,158 L374.9,160.3 L373.6,162.8 L372.9,165.8 L372.6,168.5 L372.9,171.3 L373.6,173.3 L374.6,175.3 L375.9,176.8 L377.6,178 L379.6,178.8 L381.6,179.3 L384.1,179.5 L387.1,179.3 L388.6,178.8 L390.1,178.3 L389.4,182.8 L389.4,182.8 Z" id="Shape" fill="#0072BC" sketch:type="MSShapeGroup"></path>
            <path d="M424.1,149.5 L429.1,149.5 L426.1,163.5 L442.1,163.5 L445.1,149.5 L449.9,149.5 L442.9,183 L437.9,183 L441.1,167.8 L425.4,167.8 L422.1,183 L417.1,183 L424.1,149.5 L424.1,149.5 Z" id="Shape" fill="#0072BC" sketch:type="MSShapeGroup"></path>
            <path d="M480.1,149.5 L486.6,149.5 L495.9,177.8 L496.1,177.8 L502.1,149.5 L506.6,149.5 L499.4,183 L493.1,183 L483.6,155.3 L477.9,183 L473.1,183 L480.1,149.5 L480.1,149.5 Z" id="Shape" fill="#0072BC" sketch:type="MSShapeGroup"></path>
            <path d="M545.4,179.5 L545.4,179.5 L546.9,179.2 L548.2,178.9 L549.7,178.4 L551,177.9 L552,177.1 L553.3,176.1 L555.1,173.8 L556.6,171.3 L557.9,168.5 L558.4,165.7 L558.7,162.9 L558.7,161 L558.2,159 L557.4,157.2 L556.6,155.7 L555.3,154.7 L553.8,153.7 L552,153.2 L550,153.2 L548.5,153.2 L547,153.5 L545.5,154 L544.2,154.5 L542.9,155.3 L541.9,156.3 L539.9,158.3 L538.4,160.8 L537.1,163.6 L536.3,166.6 L536,169.6 L536.3,171.9 L536.6,173.7 L537.4,175.5 L538.4,177 L539.7,178 L541.5,179 L543.3,179.5 L545.4,179.5 L545.4,179.5 Z M549.9,149 L549.9,149 L552.9,149.3 L555.7,150.1 L558,151.1 L560,152.6 L561.5,154.6 L562.8,156.9 L563.6,159.7 L563.9,162.7 L563.4,166.7 L563.1,168.7 L562.6,170.5 L561.8,172.5 L561,174.3 L560,175.8 L559,177.3 L557.7,178.8 L556.4,180.1 L554.6,181.4 L553.1,182.2 L551.3,183 L549.3,183.8 L547.3,184.1 L545,184.4 L541.7,184.1 L538.9,183.3 L536.4,182 L535.4,181.2 L534.4,180.4 L533.6,179.4 L532.8,178.4 L531.5,175.9 L531,173.1 L530.7,169.8 L530.7,168 L531,166 L531.3,164.2 L532.1,162.4 L532.6,160.6 L533.6,158.8 L534.6,157.3 L535.6,155.8 L536.9,154.3 L538.4,153 L539.9,151.7 L541.7,150.7 L543.5,149.9 L545.5,149.4 L547.5,148.9 L549.9,148.9 L549.9,149 L549.9,149 Z" id="Shape" fill="#0072BC" sketch:type="MSShapeGroup"></path>
            <path d="M595.4,149.5 L600.4,149.5 L594.1,178.8 L607.9,178.8 L607.1,183 L588.1,183 L595.4,149.5 L595.4,149.5 Z" id="Shape" fill="#0072BC" sketch:type="MSShapeGroup"></path>
            <path d="M649.9,179.5 L649.9,179.5 L651.4,179.2 L652.9,178.9 L654.2,178.4 L655.5,177.9 L656.8,177.1 L657.8,176.1 L659.8,173.8 L661.1,171.3 L662.4,168.5 L663.2,165.7 L663.2,162.9 L663.2,161 L662.7,159 L662.2,157.2 L661.2,155.7 L659.9,154.7 L658.4,153.7 L656.6,153.2 L654.6,153.2 L653.1,153.2 L651.6,153.5 L650.3,154 L648.8,154.5 L647.8,155.3 L646.5,156.3 L644.5,158.3 L643,160.8 L641.7,163.6 L640.9,166.6 L640.6,169.6 L640.9,171.9 L641.2,173.7 L642,175.5 L643,177 L644.5,178 L646,179 L647.8,179.5 L649.9,179.5 L649.9,179.5 Z M654.4,149 L654.4,149 L657.7,149.3 L660.2,150.1 L662.7,151.1 L664.5,152.6 L666.3,154.6 L667.3,156.9 L668.1,159.7 L668.4,162.7 L668.1,166.7 L667.6,168.7 L667.1,170.5 L666.3,172.5 L665.5,174.3 L664.5,175.8 L663.5,177.3 L662.2,178.8 L660.9,180.1 L659.4,181.4 L657.6,182.2 L655.8,183 L653.8,183.8 L651.8,184.1 L649.5,184.4 L646.2,184.1 L643.4,183.3 L640.9,182 L639.9,181.2 L638.9,180.4 L638.1,179.4 L637.3,178.4 L636,175.9 L635.5,173.1 L635.2,169.8 L635.2,168 L635.5,166 L636,164.2 L636.5,162.4 L637,160.6 L638,158.8 L639,157.3 L640,155.8 L641.3,154.3 L642.8,153 L644.3,151.7 L646.1,150.7 L647.9,149.9 L649.9,149.4 L651.9,148.9 L654.4,148.9 L654.4,149 L654.4,149 Z" id="Shape" fill="#0072BC" sketch:type="MSShapeGroup"></path>
            <path d="M723.4,155 L723.4,155 L721.9,154.3 L719.6,153.8 L717.4,153.3 L714.6,153.3 L712.9,153.3 L711.1,153.5 L709.6,154 L708.1,154.5 L706.6,155.3 L705.4,156 L704.4,157 L703.4,158 L701.6,160.3 L700.6,162.8 L699.9,165.8 L699.6,168.5 L699.9,171.3 L700.4,173.3 L701.4,175.3 L702.9,176.8 L704.6,178 L706.4,178.8 L708.6,179.3 L711.1,179.5 L713.1,179.3 L715.1,179 L717.1,168.8 L710.1,168.8 L711.1,164.8 L722.9,164.8 L718.9,182.8 L715.4,183.3 L712.9,183.5 L710.4,183.8 L707.1,183.5 L704.1,182.8 L701.4,181.5 L700.1,180.8 L699.1,180 L698.1,179 L697.1,177.8 L696.4,176.5 L695.6,175.3 L695.1,173.8 L694.9,172 L694.6,170.3 L694.6,168.3 L694.9,165.3 L695.6,161.8 L696.4,160.3 L697.1,158.5 L698.1,157 L699.1,155.5 L700.4,154.3 L701.9,153 L703.6,151.8 L705.4,150.8 L707.4,150 L709.6,149.5 L712.1,149 L714.6,149 L718.1,149.3 L720.9,149.5 L723.1,150.3 L724.9,151 L723.4,155 L723.4,155 Z" id="Shape" fill="#0072BC" sketch:type="MSShapeGroup"></path>
            <path d="M761.4,169 L752.4,149.5 L757.6,149.5 L764.4,164.8 L777.4,149.5 L783.6,149.5 L765.9,169 L763.1,183 L758.4,183 L761.4,169 L761.4,169 Z" id="Shape" fill="#0072BC" sketch:type="MSShapeGroup"></path>
            <g id="Group" transform="translate(789.000000, 58.000000)" fill="#0072BC" sketch:type="MSShapeGroup">
                <path d="M3.2,1.7 L0,1.7 L0.2,0.5 L7.9,0.5 L7.7,1.7 L4.5,1.7 L2.7,11.3 L1.4,11.3 L3.2,1.7 L3.2,1.7 Z" id="Shape"></path>
                <path d="M16.1,11.4 L16.9,5.6 C17,4.6 17.3,3 17.5,2 L17.4,2 C16.9,3.1 16.3,4.4 15.7,5.5 L12.5,11.4 L11.5,11.4 L10.7,5.6 C10.5,4.4 10.4,3.1 10.4,2 L10.4,2 C10.2,3 9.8,4.6 9.6,5.6 L8.1,11.4 L6.8,11.4 L9.6,0.6 L11.3,0.6 L12.1,6.8 C12.2,7.7 12.3,8.7 12.4,9.5 L12.4,9.5 C12.7,8.7 13.2,7.7 13.7,6.8 L17,0.6 L18.7,0.6 L17.3,11.4 L16.1,11.4 L16.1,11.4 Z" id="Shape"></path>
            </g>
        </g>
    </g>
</svg>